G75*
G70*
%OFA0B0*%
%FSLAX24Y24*%
%IPPOS*%
%LPD*%
%AMOC8*
5,1,8,0,0,1.08239X$1,22.5*
%
%ADD10C,0.0000*%
%ADD11C,0.0080*%
%ADD12C,0.0060*%
%ADD13R,0.0079X0.0079*%
%ADD14R,0.0240X0.0620*%
D10*
X006353Y003953D02*
X006353Y005503D01*
X006346Y005561D01*
X006336Y005618D01*
X006323Y005675D01*
X006305Y005731D01*
X006285Y005785D01*
X006260Y005838D01*
X006233Y005890D01*
X006202Y005939D01*
X006169Y005987D01*
X006132Y006032D01*
X006093Y006075D01*
X006051Y006116D01*
X006007Y006154D01*
X005960Y006189D01*
X005911Y006220D01*
X005860Y006249D01*
X005808Y006275D01*
X005754Y006297D01*
X005699Y006316D01*
X005643Y006331D01*
X005585Y006343D01*
X005528Y006351D01*
X005470Y006355D01*
X005411Y006356D01*
X005353Y006353D01*
X002703Y006353D01*
X002643Y006355D01*
X002582Y006360D01*
X002523Y006369D01*
X002464Y006382D01*
X002405Y006398D01*
X002348Y006418D01*
X002293Y006441D01*
X002238Y006468D01*
X002186Y006497D01*
X002135Y006530D01*
X002086Y006566D01*
X002040Y006604D01*
X001996Y006646D01*
X001954Y006690D01*
X001916Y006736D01*
X001880Y006785D01*
X001847Y006836D01*
X001818Y006888D01*
X001791Y006943D01*
X001768Y006998D01*
X001748Y007055D01*
X001732Y007114D01*
X001719Y007173D01*
X001710Y007232D01*
X001705Y007293D01*
X001703Y007353D01*
X001703Y011853D01*
X001705Y011913D01*
X001710Y011974D01*
X001719Y012033D01*
X001732Y012092D01*
X001748Y012151D01*
X001768Y012208D01*
X001791Y012263D01*
X001818Y012318D01*
X001847Y012370D01*
X001880Y012421D01*
X001916Y012470D01*
X001954Y012516D01*
X001996Y012560D01*
X002040Y012602D01*
X002086Y012640D01*
X002135Y012676D01*
X002186Y012709D01*
X002238Y012738D01*
X002293Y012765D01*
X002348Y012788D01*
X002405Y012808D01*
X002464Y012824D01*
X002523Y012837D01*
X002582Y012846D01*
X002643Y012851D01*
X002703Y012853D01*
X005353Y012853D01*
X006353Y013603D02*
X006353Y013853D01*
X006353Y013603D02*
X006343Y013546D01*
X006329Y013490D01*
X006312Y013435D01*
X006291Y013381D01*
X006266Y013328D01*
X006239Y013278D01*
X006208Y013229D01*
X006173Y013182D01*
X006136Y013138D01*
X006096Y013096D01*
X006054Y013057D01*
X006008Y013021D01*
X005961Y012988D01*
X005912Y012958D01*
X005860Y012931D01*
X005807Y012908D01*
X005753Y012888D01*
X005697Y012872D01*
X005641Y012859D01*
X005584Y012850D01*
X005526Y012845D01*
X005468Y012844D01*
X005410Y012847D01*
X005353Y012853D01*
X006353Y013853D02*
X006355Y013913D01*
X006360Y013974D01*
X006369Y014033D01*
X006382Y014092D01*
X006398Y014151D01*
X006418Y014208D01*
X006441Y014263D01*
X006468Y014318D01*
X006497Y014370D01*
X006530Y014421D01*
X006566Y014470D01*
X006604Y014516D01*
X006646Y014560D01*
X006690Y014602D01*
X006736Y014640D01*
X006785Y014676D01*
X006836Y014709D01*
X006888Y014738D01*
X006943Y014765D01*
X006998Y014788D01*
X007055Y014808D01*
X007114Y014824D01*
X007173Y014837D01*
X007232Y014846D01*
X007293Y014851D01*
X007353Y014853D01*
X012253Y014853D01*
X012313Y014851D01*
X012374Y014846D01*
X012433Y014837D01*
X012492Y014824D01*
X012551Y014808D01*
X012608Y014788D01*
X012663Y014765D01*
X012718Y014738D01*
X012770Y014709D01*
X012821Y014676D01*
X012870Y014640D01*
X012916Y014602D01*
X012960Y014560D01*
X013002Y014516D01*
X013040Y014470D01*
X013076Y014421D01*
X013109Y014370D01*
X013138Y014318D01*
X013165Y014263D01*
X013188Y014208D01*
X013208Y014151D01*
X013224Y014092D01*
X013237Y014033D01*
X013246Y013974D01*
X013251Y013913D01*
X013253Y013853D01*
X013253Y013753D01*
X013255Y013693D01*
X013260Y013632D01*
X013269Y013573D01*
X013282Y013514D01*
X013298Y013455D01*
X013318Y013398D01*
X013341Y013343D01*
X013368Y013288D01*
X013397Y013236D01*
X013430Y013185D01*
X013466Y013136D01*
X013504Y013090D01*
X013546Y013046D01*
X013590Y013004D01*
X013636Y012966D01*
X013685Y012930D01*
X013736Y012897D01*
X013788Y012868D01*
X013843Y012841D01*
X013898Y012818D01*
X013955Y012798D01*
X014014Y012782D01*
X014073Y012769D01*
X014132Y012760D01*
X014193Y012755D01*
X014253Y012753D01*
X017153Y012753D01*
X017213Y012751D01*
X017274Y012746D01*
X017333Y012737D01*
X017392Y012724D01*
X017451Y012708D01*
X017508Y012688D01*
X017563Y012665D01*
X017618Y012638D01*
X017670Y012609D01*
X017721Y012576D01*
X017770Y012540D01*
X017816Y012502D01*
X017860Y012460D01*
X017902Y012416D01*
X017940Y012370D01*
X017976Y012321D01*
X018009Y012270D01*
X018038Y012218D01*
X018065Y012163D01*
X018088Y012108D01*
X018108Y012051D01*
X018124Y011992D01*
X018137Y011933D01*
X018146Y011874D01*
X018151Y011813D01*
X018153Y011753D01*
X018153Y007403D01*
X017353Y007103D02*
X017355Y007134D01*
X017361Y007165D01*
X017371Y007195D01*
X017384Y007223D01*
X017401Y007250D01*
X017421Y007274D01*
X017444Y007296D01*
X017469Y007314D01*
X017497Y007329D01*
X017526Y007341D01*
X017556Y007349D01*
X017587Y007353D01*
X017619Y007353D01*
X017650Y007349D01*
X017680Y007341D01*
X017709Y007329D01*
X017737Y007314D01*
X017762Y007296D01*
X017785Y007274D01*
X017805Y007250D01*
X017822Y007223D01*
X017835Y007195D01*
X017845Y007165D01*
X017851Y007134D01*
X017853Y007103D01*
X017851Y007072D01*
X017845Y007041D01*
X017835Y007011D01*
X017822Y006983D01*
X017805Y006956D01*
X017785Y006932D01*
X017762Y006910D01*
X017737Y006892D01*
X017709Y006877D01*
X017680Y006865D01*
X017650Y006857D01*
X017619Y006853D01*
X017587Y006853D01*
X017556Y006857D01*
X017526Y006865D01*
X017497Y006877D01*
X017469Y006892D01*
X017444Y006910D01*
X017421Y006932D01*
X017401Y006956D01*
X017384Y006983D01*
X017371Y007011D01*
X017361Y007041D01*
X017355Y007072D01*
X017353Y007103D01*
X017153Y006403D02*
X017213Y006405D01*
X017274Y006410D01*
X017333Y006419D01*
X017392Y006432D01*
X017451Y006448D01*
X017508Y006468D01*
X017563Y006491D01*
X017618Y006518D01*
X017670Y006547D01*
X017721Y006580D01*
X017770Y006616D01*
X017816Y006654D01*
X017860Y006696D01*
X017902Y006740D01*
X017940Y006786D01*
X017976Y006835D01*
X018009Y006886D01*
X018038Y006938D01*
X018065Y006993D01*
X018088Y007048D01*
X018108Y007105D01*
X018124Y007164D01*
X018137Y007223D01*
X018146Y007282D01*
X018151Y007343D01*
X018153Y007403D01*
X017153Y006403D02*
X014253Y006403D01*
X014193Y006401D01*
X014132Y006396D01*
X014073Y006387D01*
X014014Y006374D01*
X013955Y006358D01*
X013898Y006338D01*
X013843Y006315D01*
X013788Y006288D01*
X013736Y006259D01*
X013685Y006226D01*
X013636Y006190D01*
X013590Y006152D01*
X013546Y006110D01*
X013504Y006066D01*
X013466Y006020D01*
X013430Y005971D01*
X013397Y005920D01*
X013368Y005868D01*
X013341Y005813D01*
X013318Y005758D01*
X013298Y005701D01*
X013282Y005642D01*
X013269Y005583D01*
X013260Y005524D01*
X013255Y005463D01*
X013253Y005403D01*
X013253Y003953D01*
X013251Y003893D01*
X013246Y003832D01*
X013237Y003773D01*
X013224Y003714D01*
X013208Y003655D01*
X013188Y003598D01*
X013165Y003543D01*
X013138Y003488D01*
X013109Y003436D01*
X013076Y003385D01*
X013040Y003336D01*
X013002Y003290D01*
X012960Y003246D01*
X012916Y003204D01*
X012870Y003166D01*
X012821Y003130D01*
X012770Y003097D01*
X012718Y003068D01*
X012663Y003041D01*
X012608Y003018D01*
X012551Y002998D01*
X012492Y002982D01*
X012433Y002969D01*
X012374Y002960D01*
X012313Y002955D01*
X012253Y002953D01*
X007353Y002953D01*
X007293Y002955D01*
X007232Y002960D01*
X007173Y002969D01*
X007114Y002982D01*
X007055Y002998D01*
X006998Y003018D01*
X006943Y003041D01*
X006888Y003068D01*
X006836Y003097D01*
X006785Y003130D01*
X006736Y003166D01*
X006690Y003204D01*
X006646Y003246D01*
X006604Y003290D01*
X006566Y003336D01*
X006530Y003385D01*
X006497Y003436D01*
X006468Y003488D01*
X006441Y003543D01*
X006418Y003598D01*
X006398Y003655D01*
X006382Y003714D01*
X006369Y003773D01*
X006360Y003832D01*
X006355Y003893D01*
X006353Y003953D01*
D11*
X009484Y005147D02*
X009484Y005359D01*
X009634Y005813D02*
X009972Y005813D01*
X009972Y004693D02*
X009634Y004693D01*
X011606Y004639D02*
X011606Y004167D01*
X012000Y004403D01*
X011606Y004639D01*
D12*
X010921Y003739D02*
X010685Y003739D01*
X010685Y003267D02*
X010921Y003267D01*
X009921Y004017D02*
X009685Y004017D01*
X009685Y004489D02*
X009921Y004489D01*
X008921Y003739D02*
X008685Y003739D01*
X008685Y003267D02*
X008921Y003267D01*
X007921Y004717D02*
X007685Y004717D01*
X007685Y005189D02*
X007921Y005189D01*
D13*
X007843Y004253D03*
D14*
X012073Y004403D03*
M02*
