%
M48
M72
T01C0.0130
T02C0.0394
T03C0.0500
T04C0.0600
%
T01
X7453Y5453
X6753Y6603
X6753Y7603
X6753Y8603
X6753Y9603
X6753Y10603
X6753Y11603
X6753Y12603
X8803Y12603
X8803Y11603
X8803Y10603
X8803Y9603
X8803Y8603
X8803Y7603
X8803Y6603
X10853Y6653
X10853Y6153
X10853Y7153
X10853Y7653
X12803Y9603
X13803Y9603
X13803Y10603
X13803Y11603
X13803Y8603
X13803Y7603
T02
X13753Y6853
X11803Y3503
X9803Y3503
X7803Y3503
X5853Y6803
X5853Y12303
X7803Y14303
X9803Y14303
X11803Y14303
X13753Y12303
T03
X17603Y7103
T04
X17403Y9603
X2403Y9603
M30
