G75*
G70*
%OFA0B0*%
%FSLAX24Y24*%
%IPPOS*%
%LPD*%
%AMOC8*
5,1,8,0,0,1.08239X$1,22.5*
%
%ADD10C,0.1000*%
%ADD11C,0.0750*%
%ADD12C,0.0270*%
%ADD13C,0.0100*%
D10*
X002403Y009603D03*
X017403Y009603D03*
D11*
X013753Y012303D03*
X011803Y014303D03*
X009803Y014303D03*
X007803Y014303D03*
X005853Y012303D03*
X005853Y006803D03*
X007803Y003503D03*
X009803Y003503D03*
X011803Y003503D03*
X013753Y006853D03*
D12*
X013803Y007603D03*
X013803Y008603D03*
X013803Y009603D03*
X012803Y009603D03*
X013803Y010603D03*
X013803Y011603D03*
X010853Y007653D03*
X010853Y007153D03*
X010853Y006653D03*
X010853Y006153D03*
X008803Y006603D03*
X008803Y007603D03*
X008803Y008603D03*
X008803Y009603D03*
X008803Y010603D03*
X008803Y011603D03*
X008803Y012603D03*
X006753Y012603D03*
X006753Y011603D03*
X006753Y010603D03*
X006753Y009603D03*
X006753Y008603D03*
X006753Y007603D03*
X006753Y006603D03*
X007453Y005453D03*
D13*
X006563Y003828D02*
X006640Y003590D01*
X006788Y003387D01*
X006990Y003240D01*
X007228Y003163D01*
X007353Y003153D01*
X007411Y003153D01*
X007358Y003206D01*
X007278Y003399D01*
X007278Y003607D01*
X007358Y003800D01*
X007506Y003948D01*
X007699Y004028D01*
X007908Y004028D01*
X008101Y003948D01*
X008248Y003800D01*
X008328Y003607D01*
X008328Y003399D01*
X008248Y003206D01*
X008196Y003153D01*
X010353Y003153D01*
X010353Y014653D01*
X008196Y014653D01*
X008248Y014600D01*
X008328Y014407D01*
X008328Y014199D01*
X008248Y014006D01*
X008101Y013858D01*
X007908Y013778D01*
X007699Y013778D01*
X007506Y013858D01*
X007358Y014006D01*
X007278Y014199D01*
X007278Y014407D01*
X007358Y014600D01*
X007411Y014653D01*
X007353Y014653D01*
X007228Y014643D01*
X006990Y014566D01*
X006788Y014419D01*
X006640Y014216D01*
X006563Y013978D01*
X006553Y013853D01*
X006553Y013670D01*
X006563Y013657D01*
X006553Y013589D01*
X006553Y013520D01*
X006542Y013509D01*
X006527Y013405D01*
X006527Y013405D01*
X006376Y013097D01*
X006376Y013097D01*
X006137Y012850D01*
X006137Y012850D01*
X006035Y012796D01*
X006151Y012748D01*
X006298Y012600D01*
X006378Y012407D01*
X006378Y012199D01*
X006298Y012006D01*
X006151Y011858D01*
X005958Y011778D01*
X005749Y011778D01*
X005556Y011858D01*
X005408Y012006D01*
X005328Y012199D01*
X005328Y012407D01*
X005408Y012600D01*
X005446Y012638D01*
X005339Y012653D01*
X002703Y012653D01*
X002578Y012643D01*
X002340Y012566D01*
X002138Y012419D01*
X001990Y012216D01*
X005328Y012216D01*
X005328Y012315D02*
X002062Y012315D01*
X002134Y012413D02*
X005331Y012413D01*
X005372Y012512D02*
X002266Y012512D01*
X002477Y012610D02*
X005418Y012610D01*
X005362Y012118D02*
X001958Y012118D01*
X001990Y012216D02*
X001913Y011978D01*
X001903Y011853D01*
X001903Y011770D01*
X001903Y010019D01*
X001914Y010033D01*
X001974Y010093D01*
X002041Y010145D01*
X002115Y010187D01*
X002194Y010220D01*
X002276Y010242D01*
X002353Y010252D01*
X002353Y009653D01*
X002453Y009653D01*
X002453Y010252D01*
X002530Y010242D01*
X002613Y010220D01*
X002691Y010187D01*
X002765Y010145D01*
X002833Y010093D01*
X002893Y010033D01*
X002945Y009965D01*
X002987Y009891D01*
X003020Y009812D01*
X003042Y009730D01*
X003052Y009653D01*
X002453Y009653D01*
X002453Y009553D01*
X002453Y008954D01*
X002530Y008964D01*
X002613Y008986D01*
X002691Y009019D01*
X002765Y009061D01*
X002833Y009113D01*
X002893Y009174D01*
X002945Y009241D01*
X002987Y009315D01*
X003020Y009394D01*
X003042Y009476D01*
X003052Y009553D01*
X002453Y009553D01*
X002353Y009553D01*
X002353Y008954D01*
X002276Y008964D01*
X001903Y008964D01*
X001903Y008866D02*
X010353Y008866D01*
X010353Y008964D02*
X002531Y008964D01*
X002453Y008964D02*
X002353Y008964D01*
X002276Y008964D02*
X002194Y008986D01*
X002115Y009019D01*
X002041Y009061D01*
X001974Y009113D01*
X001914Y009174D01*
X001903Y009187D01*
X001903Y007353D01*
X001913Y007228D01*
X001990Y006990D01*
X002138Y006787D01*
X002340Y006640D01*
X002578Y006563D01*
X002703Y006553D01*
X002786Y006553D01*
X005345Y006553D01*
X005387Y006556D01*
X005328Y006699D01*
X005328Y006907D01*
X005408Y007100D01*
X005556Y007248D01*
X005749Y007328D01*
X005958Y007328D01*
X006151Y007248D01*
X006298Y007100D01*
X006378Y006907D01*
X006378Y006699D01*
X006298Y006506D01*
X006151Y006358D01*
X006103Y006338D01*
X006168Y006298D01*
X006168Y006298D01*
X006401Y006027D01*
X006538Y005697D01*
X006547Y005593D01*
X006553Y005586D01*
X006553Y005511D01*
X006559Y005437D01*
X006553Y005430D01*
X006553Y003953D01*
X006563Y003828D01*
X006562Y003840D02*
X007398Y003840D01*
X007334Y003741D02*
X006591Y003741D01*
X006623Y003643D02*
X007293Y003643D01*
X007278Y003544D02*
X006674Y003544D01*
X006745Y003446D02*
X007278Y003446D01*
X007300Y003347D02*
X006843Y003347D01*
X006978Y003249D02*
X007340Y003249D01*
X008266Y003249D02*
X010353Y003249D01*
X010353Y003347D02*
X008307Y003347D01*
X008328Y003446D02*
X010353Y003446D01*
X010353Y003544D02*
X008328Y003544D01*
X008314Y003643D02*
X010353Y003643D01*
X010353Y003741D02*
X008273Y003741D01*
X008209Y003840D02*
X010353Y003840D01*
X010353Y003939D02*
X008110Y003939D01*
X007496Y003939D02*
X006554Y003939D01*
X006553Y004037D02*
X010353Y004037D01*
X010353Y004136D02*
X006553Y004136D01*
X006553Y004234D02*
X010353Y004234D01*
X010353Y004333D02*
X006553Y004333D01*
X006553Y004431D02*
X010353Y004431D01*
X010353Y004530D02*
X006553Y004530D01*
X006553Y004628D02*
X010353Y004628D01*
X010353Y004727D02*
X006553Y004727D01*
X006553Y004825D02*
X010353Y004825D01*
X010353Y004924D02*
X006553Y004924D01*
X006553Y005022D02*
X010353Y005022D01*
X010353Y005121D02*
X006553Y005121D01*
X006553Y005220D02*
X010353Y005220D01*
X010353Y005318D02*
X006553Y005318D01*
X006553Y005417D02*
X010353Y005417D01*
X010353Y005515D02*
X006553Y005515D01*
X006545Y005614D02*
X010353Y005614D01*
X010353Y005712D02*
X006532Y005712D01*
X006491Y005811D02*
X010353Y005811D01*
X010353Y005909D02*
X006450Y005909D01*
X006409Y006008D02*
X010353Y006008D01*
X010353Y006106D02*
X006333Y006106D01*
X006248Y006205D02*
X010353Y006205D01*
X010353Y006304D02*
X006159Y006304D01*
X006195Y006402D02*
X010353Y006402D01*
X010353Y006501D02*
X006293Y006501D01*
X006337Y006599D02*
X010353Y006599D01*
X010353Y006698D02*
X006378Y006698D01*
X006378Y006796D02*
X010353Y006796D01*
X010353Y006895D02*
X006378Y006895D01*
X006343Y006993D02*
X010353Y006993D01*
X010353Y007092D02*
X006302Y007092D01*
X006208Y007190D02*
X010353Y007190D01*
X010353Y007289D02*
X006052Y007289D01*
X005655Y007289D02*
X001908Y007289D01*
X001903Y007388D02*
X010353Y007388D01*
X010353Y007486D02*
X001903Y007486D01*
X001903Y007585D02*
X010353Y007585D01*
X010353Y007683D02*
X001903Y007683D01*
X001903Y007782D02*
X010353Y007782D01*
X010353Y007880D02*
X001903Y007880D01*
X001903Y007979D02*
X010353Y007979D01*
X010353Y008077D02*
X001903Y008077D01*
X001903Y008176D02*
X010353Y008176D01*
X010353Y008274D02*
X001903Y008274D01*
X001903Y008373D02*
X010353Y008373D01*
X010353Y008471D02*
X001903Y008471D01*
X001903Y008570D02*
X010353Y008570D01*
X010353Y008669D02*
X001903Y008669D01*
X001903Y008767D02*
X010353Y008767D01*
X010553Y008767D02*
X017953Y008767D01*
X017953Y008669D02*
X010553Y008669D01*
X010553Y008570D02*
X017953Y008570D01*
X017953Y008471D02*
X010553Y008471D01*
X010553Y008373D02*
X017953Y008373D01*
X017953Y008274D02*
X010553Y008274D01*
X010553Y008176D02*
X017953Y008176D01*
X017953Y008077D02*
X010553Y008077D01*
X010553Y007979D02*
X017953Y007979D01*
X017953Y007880D02*
X010553Y007880D01*
X010553Y007782D02*
X017953Y007782D01*
X017953Y007683D02*
X010553Y007683D01*
X010553Y007585D02*
X017953Y007585D01*
X017953Y007486D02*
X017854Y007486D01*
X017858Y007485D02*
X017693Y007553D01*
X017514Y007553D01*
X017348Y007485D01*
X017222Y007358D01*
X017153Y007193D01*
X017153Y007014D01*
X017222Y006848D01*
X017348Y006722D01*
X017465Y006673D01*
X017278Y006613D01*
X017153Y006603D01*
X017070Y006603D01*
X014336Y006603D01*
X014287Y006603D01*
X014218Y006603D01*
X014278Y006749D01*
X014278Y006957D01*
X014198Y007150D01*
X014051Y007298D01*
X013858Y007378D01*
X013649Y007378D01*
X013456Y007298D01*
X013308Y007150D01*
X013228Y006957D01*
X013228Y006749D01*
X013308Y006556D01*
X013456Y006408D01*
X013545Y006371D01*
X013394Y006262D01*
X013171Y005955D01*
X013171Y005955D01*
X013053Y005593D01*
X013053Y005486D01*
X013053Y004036D01*
X013053Y003953D01*
X013043Y003828D01*
X012966Y003590D01*
X012819Y003387D01*
X012616Y003240D01*
X012378Y003163D01*
X012253Y003153D01*
X012196Y003153D01*
X012248Y003206D01*
X012328Y003399D01*
X012328Y003607D01*
X012248Y003800D01*
X012101Y003948D01*
X011908Y004028D01*
X011699Y004028D01*
X011506Y003948D01*
X011358Y003800D01*
X011278Y003607D01*
X011278Y003399D01*
X011358Y003206D01*
X011411Y003153D01*
X010553Y003153D01*
X010553Y014653D01*
X011411Y014653D01*
X011358Y014600D01*
X011278Y014407D01*
X011278Y014199D01*
X011358Y014006D01*
X011506Y013858D01*
X011699Y013778D01*
X011908Y013778D01*
X012101Y013858D01*
X012248Y014006D01*
X012328Y014199D01*
X012328Y014407D01*
X012248Y014600D01*
X012196Y014653D01*
X012253Y014653D01*
X012378Y014643D01*
X012616Y014566D01*
X012819Y014419D01*
X012966Y014216D01*
X013043Y013978D01*
X013053Y013853D01*
X013053Y013836D01*
X013053Y013811D01*
X013053Y013670D01*
X013053Y013670D01*
X013053Y013563D01*
X013171Y013202D01*
X010553Y013202D01*
X010553Y013300D02*
X013139Y013300D01*
X013171Y013202D02*
X013171Y013201D01*
X013394Y012894D01*
X013394Y012894D01*
X013394Y012894D01*
X013545Y012785D01*
X013456Y012748D01*
X013308Y012600D01*
X013228Y012407D01*
X013228Y012199D01*
X013308Y012006D01*
X013456Y011858D01*
X013649Y011778D01*
X013858Y011778D01*
X014051Y011858D01*
X014198Y012006D01*
X014278Y012199D01*
X014278Y012407D01*
X014218Y012553D01*
X017070Y012553D01*
X017153Y012553D01*
X017278Y012543D01*
X017516Y012466D01*
X017719Y012319D01*
X017866Y012116D01*
X017943Y011878D01*
X017953Y011753D01*
X017953Y009950D01*
X017945Y009965D01*
X017893Y010033D01*
X017833Y010093D01*
X017765Y010145D01*
X017691Y010187D01*
X017613Y010220D01*
X017530Y010242D01*
X017453Y010252D01*
X017453Y009653D01*
X017353Y009653D01*
X017353Y009553D01*
X016754Y009553D01*
X016764Y009476D01*
X016786Y009394D01*
X016819Y009315D01*
X016862Y009241D01*
X016914Y009174D01*
X016974Y009113D01*
X017041Y009061D01*
X017115Y009019D01*
X017194Y008986D01*
X017276Y008964D01*
X010553Y008964D01*
X010553Y008866D02*
X017953Y008866D01*
X017953Y008964D02*
X017531Y008964D01*
X017530Y008964D02*
X017613Y008986D01*
X017691Y009019D01*
X017765Y009061D01*
X017833Y009113D01*
X017893Y009174D01*
X017945Y009241D01*
X017953Y009256D01*
X017953Y007403D01*
X017952Y007390D01*
X017858Y007485D01*
X017352Y007486D02*
X010553Y007486D01*
X010553Y007388D02*
X017251Y007388D01*
X017193Y007289D02*
X014060Y007289D01*
X014158Y007190D02*
X017153Y007190D01*
X017153Y007092D02*
X014223Y007092D01*
X014263Y006993D02*
X017162Y006993D01*
X017202Y006895D02*
X014278Y006895D01*
X014278Y006796D02*
X017274Y006796D01*
X017406Y006698D02*
X014257Y006698D01*
X013470Y006402D02*
X010553Y006402D01*
X010553Y006304D02*
X013451Y006304D01*
X013394Y006262D02*
X013394Y006262D01*
X013394Y006262D01*
X013353Y006205D02*
X010553Y006205D01*
X010553Y006106D02*
X013281Y006106D01*
X013210Y006008D02*
X010553Y006008D01*
X010553Y005909D02*
X013156Y005909D01*
X013124Y005811D02*
X010553Y005811D01*
X010553Y005712D02*
X013092Y005712D01*
X013060Y005614D02*
X010553Y005614D01*
X010553Y005515D02*
X013053Y005515D01*
X013053Y005486D02*
X013053Y005486D01*
X013053Y005417D02*
X010553Y005417D01*
X010553Y005318D02*
X013053Y005318D01*
X013053Y005220D02*
X010553Y005220D01*
X010553Y005121D02*
X013053Y005121D01*
X013053Y005022D02*
X010553Y005022D01*
X010553Y004924D02*
X013053Y004924D01*
X013053Y004825D02*
X010553Y004825D01*
X010553Y004727D02*
X013053Y004727D01*
X013053Y004628D02*
X010553Y004628D01*
X010553Y004530D02*
X013053Y004530D01*
X013053Y004431D02*
X010553Y004431D01*
X010553Y004333D02*
X013053Y004333D01*
X013053Y004234D02*
X010553Y004234D01*
X010553Y004136D02*
X013053Y004136D01*
X013053Y004037D02*
X010553Y004037D01*
X010553Y003939D02*
X011496Y003939D01*
X011398Y003840D02*
X010553Y003840D01*
X010553Y003741D02*
X011334Y003741D01*
X011293Y003643D02*
X010553Y003643D01*
X010553Y003544D02*
X011278Y003544D01*
X011278Y003446D02*
X010553Y003446D01*
X010553Y003347D02*
X011300Y003347D01*
X011340Y003249D02*
X010553Y003249D01*
X012110Y003939D02*
X013052Y003939D01*
X013044Y003840D02*
X012209Y003840D01*
X012273Y003741D02*
X013015Y003741D01*
X012983Y003643D02*
X012314Y003643D01*
X012328Y003544D02*
X012933Y003544D01*
X012861Y003446D02*
X012328Y003446D01*
X012307Y003347D02*
X012764Y003347D01*
X012628Y003249D02*
X012266Y003249D01*
X013053Y005593D02*
X013053Y005593D01*
X013363Y006501D02*
X010553Y006501D01*
X010553Y006599D02*
X013290Y006599D01*
X013249Y006698D02*
X010553Y006698D01*
X010553Y006796D02*
X013228Y006796D01*
X013228Y006895D02*
X010553Y006895D01*
X010553Y006993D02*
X013243Y006993D01*
X013284Y007092D02*
X010553Y007092D01*
X010553Y007190D02*
X013348Y007190D01*
X013447Y007289D02*
X010553Y007289D01*
X010553Y009063D02*
X017040Y009063D01*
X016926Y009161D02*
X010553Y009161D01*
X010553Y009260D02*
X016851Y009260D01*
X016801Y009358D02*
X010553Y009358D01*
X010553Y009457D02*
X016769Y009457D01*
X016754Y009653D02*
X017353Y009653D01*
X017353Y010252D01*
X017276Y010242D01*
X017194Y010220D01*
X017115Y010187D01*
X017041Y010145D01*
X016974Y010093D01*
X016914Y010033D01*
X016862Y009965D01*
X016819Y009891D01*
X016786Y009812D01*
X016764Y009730D01*
X016754Y009653D01*
X016754Y009654D02*
X010553Y009654D01*
X010553Y009555D02*
X017353Y009555D01*
X017353Y009553D02*
X017453Y009553D01*
X017453Y008954D01*
X017530Y008964D01*
X017453Y008964D02*
X017353Y008964D01*
X017353Y008954D02*
X017353Y009553D01*
X017353Y009457D02*
X017453Y009457D01*
X017453Y009358D02*
X017353Y009358D01*
X017353Y009260D02*
X017453Y009260D01*
X017453Y009161D02*
X017353Y009161D01*
X017353Y009063D02*
X017453Y009063D01*
X017353Y008954D02*
X017276Y008964D01*
X017767Y009063D02*
X017953Y009063D01*
X017953Y009161D02*
X017881Y009161D01*
X017453Y009654D02*
X017353Y009654D01*
X017353Y009753D02*
X017453Y009753D01*
X017453Y009851D02*
X017353Y009851D01*
X017353Y009950D02*
X017453Y009950D01*
X017453Y010048D02*
X017353Y010048D01*
X017353Y010147D02*
X017453Y010147D01*
X017453Y010245D02*
X017353Y010245D01*
X017302Y010245D02*
X010553Y010245D01*
X010553Y010147D02*
X017045Y010147D01*
X016929Y010048D02*
X010553Y010048D01*
X010553Y009950D02*
X016853Y009950D01*
X016803Y009851D02*
X010553Y009851D01*
X010553Y009753D02*
X016770Y009753D01*
X017505Y010245D02*
X017953Y010245D01*
X017953Y010147D02*
X017762Y010147D01*
X017877Y010048D02*
X017953Y010048D01*
X017953Y010344D02*
X010553Y010344D01*
X010553Y010442D02*
X017953Y010442D01*
X017953Y010541D02*
X010553Y010541D01*
X010553Y010639D02*
X017953Y010639D01*
X017953Y010738D02*
X010553Y010738D01*
X010553Y010837D02*
X017953Y010837D01*
X017953Y010935D02*
X010553Y010935D01*
X010553Y011034D02*
X017953Y011034D01*
X017953Y011132D02*
X010553Y011132D01*
X010553Y011231D02*
X017953Y011231D01*
X017953Y011329D02*
X010553Y011329D01*
X010553Y011428D02*
X017953Y011428D01*
X017953Y011526D02*
X010553Y011526D01*
X010553Y011625D02*
X017953Y011625D01*
X017953Y011723D02*
X010553Y011723D01*
X010553Y011822D02*
X013543Y011822D01*
X013393Y011921D02*
X010553Y011921D01*
X010553Y012019D02*
X013303Y012019D01*
X013262Y012118D02*
X010553Y012118D01*
X010553Y012216D02*
X013228Y012216D01*
X013228Y012315D02*
X010553Y012315D01*
X010553Y012413D02*
X013231Y012413D01*
X013272Y012512D02*
X010553Y012512D01*
X010553Y012610D02*
X013318Y012610D01*
X013417Y012709D02*
X010553Y012709D01*
X010553Y012807D02*
X013513Y012807D01*
X013386Y012906D02*
X010553Y012906D01*
X010553Y013004D02*
X013314Y013004D01*
X013242Y013103D02*
X010553Y013103D01*
X010353Y013103D02*
X006379Y013103D01*
X006427Y013202D02*
X010353Y013202D01*
X010353Y013300D02*
X006476Y013300D01*
X006524Y013399D02*
X010353Y013399D01*
X010353Y013497D02*
X006540Y013497D01*
X006554Y013596D02*
X010353Y013596D01*
X010353Y013694D02*
X006553Y013694D01*
X006553Y013793D02*
X007663Y013793D01*
X007473Y013891D02*
X006556Y013891D01*
X006567Y013990D02*
X007374Y013990D01*
X007324Y014088D02*
X006599Y014088D01*
X006631Y014187D02*
X007283Y014187D01*
X007278Y014286D02*
X006691Y014286D01*
X006762Y014384D02*
X007278Y014384D01*
X007309Y014483D02*
X006876Y014483D01*
X007037Y014581D02*
X007350Y014581D01*
X008256Y014581D02*
X010353Y014581D01*
X010353Y014483D02*
X008297Y014483D01*
X008328Y014384D02*
X010353Y014384D01*
X010353Y014286D02*
X008328Y014286D01*
X008323Y014187D02*
X010353Y014187D01*
X010353Y014088D02*
X008283Y014088D01*
X008233Y013990D02*
X010353Y013990D01*
X010353Y013891D02*
X008134Y013891D01*
X007943Y013793D02*
X010353Y013793D01*
X010553Y013793D02*
X011663Y013793D01*
X011473Y013891D02*
X010553Y013891D01*
X010553Y013990D02*
X011374Y013990D01*
X011324Y014088D02*
X010553Y014088D01*
X010553Y014187D02*
X011283Y014187D01*
X011278Y014286D02*
X010553Y014286D01*
X010553Y014384D02*
X011278Y014384D01*
X011309Y014483D02*
X010553Y014483D01*
X010553Y014581D02*
X011350Y014581D01*
X012256Y014581D02*
X012569Y014581D01*
X012731Y014483D02*
X012297Y014483D01*
X012328Y014384D02*
X012844Y014384D01*
X012916Y014286D02*
X012328Y014286D01*
X012323Y014187D02*
X012976Y014187D01*
X013008Y014088D02*
X012283Y014088D01*
X012233Y013990D02*
X013040Y013990D01*
X013050Y013891D02*
X012134Y013891D01*
X011943Y013793D02*
X013053Y013793D01*
X013053Y013694D02*
X010553Y013694D01*
X010553Y013596D02*
X013053Y013596D01*
X013053Y013563D02*
X013053Y013563D01*
X013075Y013497D02*
X010553Y013497D01*
X010553Y013399D02*
X013107Y013399D01*
X014235Y012512D02*
X017375Y012512D01*
X017589Y012413D02*
X014276Y012413D01*
X014278Y012315D02*
X017722Y012315D01*
X017794Y012216D02*
X014278Y012216D01*
X014245Y012118D02*
X017865Y012118D01*
X017898Y012019D02*
X014204Y012019D01*
X014113Y011921D02*
X017930Y011921D01*
X017948Y011822D02*
X013964Y011822D01*
X010353Y011822D02*
X006064Y011822D01*
X006213Y011921D02*
X010353Y011921D01*
X010353Y012019D02*
X006304Y012019D01*
X006345Y012118D02*
X010353Y012118D01*
X010353Y012216D02*
X006378Y012216D01*
X006378Y012315D02*
X010353Y012315D01*
X010353Y012413D02*
X006376Y012413D01*
X006335Y012512D02*
X010353Y012512D01*
X010353Y012610D02*
X006288Y012610D01*
X006190Y012709D02*
X010353Y012709D01*
X010353Y012807D02*
X006056Y012807D01*
X006191Y012906D02*
X010353Y012906D01*
X010353Y013004D02*
X006286Y013004D01*
X005403Y012019D02*
X001926Y012019D01*
X001909Y011921D02*
X005493Y011921D01*
X005643Y011822D02*
X001903Y011822D01*
X001903Y011723D02*
X010353Y011723D01*
X010353Y011625D02*
X001903Y011625D01*
X001903Y011526D02*
X010353Y011526D01*
X010353Y011428D02*
X001903Y011428D01*
X001903Y011329D02*
X010353Y011329D01*
X010353Y011231D02*
X001903Y011231D01*
X001903Y011132D02*
X010353Y011132D01*
X010353Y011034D02*
X001903Y011034D01*
X001903Y010935D02*
X010353Y010935D01*
X010353Y010837D02*
X001903Y010837D01*
X001903Y010738D02*
X010353Y010738D01*
X010353Y010639D02*
X001903Y010639D01*
X001903Y010541D02*
X010353Y010541D01*
X010353Y010442D02*
X001903Y010442D01*
X001903Y010344D02*
X010353Y010344D01*
X010353Y010245D02*
X002505Y010245D01*
X002453Y010245D02*
X002353Y010245D01*
X002302Y010245D02*
X001903Y010245D01*
X001903Y010147D02*
X002045Y010147D01*
X001929Y010048D02*
X001903Y010048D01*
X002353Y010048D02*
X002453Y010048D01*
X002453Y009950D02*
X002353Y009950D01*
X002353Y009851D02*
X002453Y009851D01*
X002453Y009753D02*
X002353Y009753D01*
X002353Y009654D02*
X002453Y009654D01*
X002453Y009555D02*
X010353Y009555D01*
X010353Y009457D02*
X003037Y009457D01*
X003005Y009358D02*
X010353Y009358D01*
X010353Y009260D02*
X002956Y009260D01*
X002881Y009161D02*
X010353Y009161D01*
X010353Y009063D02*
X002767Y009063D01*
X002453Y009063D02*
X002353Y009063D01*
X002353Y009161D02*
X002453Y009161D01*
X002453Y009260D02*
X002353Y009260D01*
X002353Y009358D02*
X002453Y009358D01*
X002453Y009457D02*
X002353Y009457D01*
X002040Y009063D02*
X001903Y009063D01*
X001903Y009161D02*
X001926Y009161D01*
X003052Y009654D02*
X010353Y009654D01*
X010353Y009753D02*
X003036Y009753D01*
X003004Y009851D02*
X010353Y009851D01*
X010353Y009950D02*
X002954Y009950D01*
X002877Y010048D02*
X010353Y010048D01*
X010353Y010147D02*
X002762Y010147D01*
X002453Y010147D02*
X002353Y010147D01*
X001925Y007190D02*
X005498Y007190D01*
X005405Y007092D02*
X001957Y007092D01*
X001989Y006993D02*
X005364Y006993D01*
X005328Y006895D02*
X002060Y006895D01*
X002131Y006796D02*
X005328Y006796D01*
X005329Y006698D02*
X002261Y006698D01*
X002466Y006599D02*
X005369Y006599D01*
X007453Y005453D02*
X009003Y005453D01*
M02*
