G75*
G70*
%OFA0B0*%
%FSLAX24Y24*%
%IPPOS*%
%LPD*%
%AMOC8*
5,1,8,0,0,1.08239X$1,22.5*
%
%ADD10C,0.1000*%
%ADD11C,0.0200*%
%ADD12C,0.0270*%
%ADD13C,0.0750*%
%ADD14C,0.0100*%
D10*
X002152Y006507D03*
X017152Y006507D03*
D11*
X004861Y003409D02*
X004560Y003507D01*
X004451Y003507D01*
X002301Y003507D01*
X002252Y003507D01*
X002173Y003513D01*
X002025Y003561D01*
X001898Y003653D01*
X001806Y003780D01*
X001758Y003929D01*
X001752Y004007D01*
X001752Y005932D01*
X001762Y005924D01*
X001841Y005878D01*
X001926Y005843D01*
X002015Y005819D01*
X002102Y005807D01*
X002102Y006457D01*
X002202Y006457D01*
X002202Y006557D01*
X002851Y006557D01*
X002840Y006644D01*
X002816Y006732D01*
X002781Y006817D01*
X002735Y006897D01*
X002679Y006969D01*
X002614Y007034D01*
X002541Y007090D01*
X002462Y007136D01*
X002377Y007171D01*
X002289Y007195D01*
X002202Y007206D01*
X002202Y006557D01*
X002102Y006557D01*
X002102Y007206D01*
X002015Y007195D01*
X001926Y007171D01*
X001841Y007136D01*
X001762Y007090D01*
X001752Y007082D01*
X001752Y008957D01*
X001752Y009007D01*
X001758Y009085D01*
X001806Y009234D01*
X001898Y009360D01*
X002025Y009452D01*
X002174Y009501D01*
X002252Y009507D01*
X004451Y009507D01*
X004451Y009507D01*
X004560Y009507D01*
X004560Y009507D01*
X004861Y009605D01*
X004861Y009605D01*
X005118Y009791D01*
X005304Y010047D01*
X005304Y010047D01*
X005353Y010199D01*
X005449Y010103D01*
X005645Y010022D01*
X005858Y010022D01*
X006055Y010103D01*
X006205Y010254D01*
X006287Y010450D01*
X006287Y010663D01*
X006206Y010857D01*
X007197Y010857D01*
X007117Y010663D01*
X007117Y010450D01*
X007198Y010254D01*
X007349Y010103D01*
X007545Y010022D01*
X007758Y010022D01*
X007955Y010103D01*
X008105Y010254D01*
X008187Y010450D01*
X008187Y010663D01*
X008106Y010857D01*
X010002Y010857D01*
X010002Y007407D01*
X009752Y007407D01*
X009752Y006557D01*
X010002Y006557D01*
X010002Y003417D01*
X009759Y003417D01*
X009719Y003457D01*
X009610Y003502D01*
X009493Y003502D01*
X009385Y003457D01*
X009302Y003374D01*
X009257Y003266D01*
X009257Y003148D01*
X009302Y003040D01*
X009385Y002957D01*
X009493Y002912D01*
X009610Y002912D01*
X009719Y002957D01*
X009759Y002997D01*
X010002Y002997D01*
X010002Y001307D01*
X008106Y001307D01*
X008187Y001500D01*
X008187Y001713D01*
X008105Y001910D01*
X007955Y002060D01*
X007758Y002142D01*
X007545Y002142D01*
X007349Y002060D01*
X007198Y001910D01*
X007117Y001713D01*
X007117Y001500D01*
X007197Y001307D01*
X006206Y001307D01*
X006287Y001500D01*
X006287Y001713D01*
X006205Y001910D01*
X006055Y002060D01*
X005858Y002142D01*
X005645Y002142D01*
X005449Y002060D01*
X005402Y002013D01*
X005402Y002457D01*
X005402Y002464D01*
X005402Y002557D01*
X005402Y002665D01*
X005402Y002665D01*
X005304Y002966D01*
X005304Y002967D01*
X005118Y003223D01*
X005118Y003223D01*
X005118Y003223D01*
X004861Y003409D01*
X004861Y003409D01*
X004902Y003379D02*
X007307Y003379D01*
X007302Y003374D02*
X007257Y003266D01*
X007257Y003148D01*
X007302Y003040D01*
X007385Y002957D01*
X007493Y002912D01*
X007610Y002912D01*
X007719Y002957D01*
X007759Y002997D01*
X008345Y002997D01*
X008385Y002957D01*
X008493Y002912D01*
X008610Y002912D01*
X008719Y002957D01*
X008802Y003040D01*
X008847Y003148D01*
X008847Y003266D01*
X008802Y003374D01*
X008719Y003457D01*
X008610Y003502D01*
X008493Y003502D01*
X008385Y003457D01*
X008345Y003417D01*
X007759Y003417D01*
X007719Y003457D01*
X007610Y003502D01*
X007493Y003502D01*
X007385Y003457D01*
X007302Y003374D01*
X007257Y003181D02*
X005148Y003181D01*
X005292Y002982D02*
X007359Y002982D01*
X007744Y002982D02*
X008359Y002982D01*
X008744Y002982D02*
X009359Y002982D01*
X009257Y003181D02*
X008847Y003181D01*
X008797Y003379D02*
X009307Y003379D01*
X009744Y002982D02*
X010002Y002982D01*
X010002Y002784D02*
X005363Y002784D01*
X005402Y002585D02*
X010002Y002585D01*
X010002Y002387D02*
X005402Y002387D01*
X005402Y002557D02*
X005402Y002557D01*
X005402Y002188D02*
X010002Y002188D01*
X010002Y001989D02*
X008026Y001989D01*
X008155Y001791D02*
X010002Y001791D01*
X010262Y001699D02*
X011084Y002522D01*
X011169Y002557D01*
X011252Y002640D01*
X011297Y002748D01*
X011297Y002866D01*
X011252Y002974D01*
X011229Y002997D01*
X011792Y002997D01*
X011792Y002714D01*
X011752Y002674D01*
X011707Y002566D01*
X011707Y002448D01*
X011752Y002340D01*
X011835Y002257D01*
X011943Y002212D01*
X012060Y002212D01*
X012169Y002257D01*
X012252Y002340D01*
X012297Y002448D01*
X012297Y002566D01*
X012252Y002674D01*
X012212Y002714D01*
X012212Y003020D01*
X012212Y003194D01*
X012112Y003294D01*
X011989Y003417D01*
X010262Y003417D01*
X010262Y006609D01*
X010222Y006704D01*
X010149Y006777D01*
X010053Y006817D01*
X010012Y006817D01*
X010012Y007147D01*
X010053Y007147D01*
X010149Y007186D01*
X010222Y007260D01*
X010262Y007355D01*
X010262Y007459D01*
X010262Y010857D01*
X011197Y010857D01*
X011117Y010663D01*
X011117Y010450D01*
X011198Y010254D01*
X011349Y010103D01*
X011545Y010022D01*
X011758Y010022D01*
X011955Y010103D01*
X012105Y010254D01*
X012187Y010450D01*
X012187Y010663D01*
X012106Y010857D01*
X013097Y010857D01*
X013017Y010663D01*
X013017Y010450D01*
X013098Y010254D01*
X013249Y010103D01*
X013445Y010022D01*
X013658Y010022D01*
X013855Y010103D01*
X013910Y010158D01*
X014001Y009935D01*
X014278Y009654D01*
X014278Y009654D01*
X014641Y009500D01*
X014838Y009497D01*
X014881Y009496D01*
X017009Y009468D01*
X017009Y009468D01*
X017058Y009467D01*
X017155Y009456D01*
X017333Y009380D01*
X017469Y009243D01*
X017542Y009064D01*
X017552Y008967D01*
X017552Y007082D01*
X017541Y007090D01*
X017462Y007136D01*
X017377Y007171D01*
X017289Y007195D01*
X017202Y007206D01*
X017202Y006557D01*
X017102Y006557D01*
X017102Y007206D01*
X017015Y007195D01*
X016926Y007171D01*
X016841Y007136D01*
X016762Y007090D01*
X016689Y007034D01*
X016624Y006969D01*
X016568Y006897D01*
X016523Y006817D01*
X016487Y006732D01*
X016464Y006644D01*
X016452Y006557D01*
X017101Y006557D01*
X017101Y006457D01*
X016452Y006457D01*
X016464Y006370D01*
X016487Y006281D01*
X016523Y006197D01*
X016568Y006117D01*
X016624Y006044D01*
X016689Y005979D01*
X016762Y005924D01*
X016841Y005878D01*
X016926Y005843D01*
X017015Y005819D01*
X017102Y005807D01*
X017102Y006457D01*
X017202Y006457D01*
X017202Y005807D01*
X017289Y005819D01*
X017377Y005843D01*
X017462Y005878D01*
X017541Y005924D01*
X017552Y005932D01*
X017552Y004465D01*
X017451Y004507D01*
X017252Y004507D01*
X017069Y004431D01*
X016928Y004290D01*
X016852Y004106D01*
X016852Y003907D01*
X016928Y003724D01*
X017069Y003583D01*
X017245Y003510D01*
X017124Y003472D01*
X017045Y003467D01*
X014869Y003496D01*
X014866Y003497D01*
X014706Y003499D01*
X014706Y003499D01*
X014400Y003404D01*
X014140Y003218D01*
X014140Y003218D01*
X014140Y003218D01*
X013951Y002960D01*
X013852Y002656D01*
X013852Y002500D01*
X013852Y002062D01*
X013658Y002142D01*
X013445Y002142D01*
X013249Y002060D01*
X013098Y001910D01*
X013017Y001713D01*
X013017Y001500D01*
X013097Y001307D01*
X012106Y001307D01*
X012187Y001500D01*
X012187Y001713D01*
X012105Y001910D01*
X011955Y002060D01*
X011758Y002142D01*
X011545Y002142D01*
X011349Y002060D01*
X011198Y001910D01*
X011117Y001713D01*
X011117Y001500D01*
X011197Y001307D01*
X010262Y001307D01*
X010262Y001699D01*
X010262Y001592D02*
X011117Y001592D01*
X011161Y001394D02*
X010262Y001394D01*
X010002Y001394D02*
X008142Y001394D01*
X008187Y001592D02*
X010002Y001592D01*
X009802Y001607D02*
X009652Y001607D01*
X009802Y001607D02*
X011002Y002807D01*
X011197Y002585D02*
X011715Y002585D01*
X011732Y002387D02*
X010949Y002387D01*
X010750Y002188D02*
X013852Y002188D01*
X013852Y002387D02*
X012271Y002387D01*
X012289Y002585D02*
X013852Y002585D01*
X013852Y002656D02*
X013852Y002656D01*
X013893Y002784D02*
X012212Y002784D01*
X012212Y002982D02*
X013967Y002982D01*
X013951Y002960D02*
X013951Y002960D01*
X014113Y003181D02*
X012212Y003181D01*
X012026Y003379D02*
X014366Y003379D01*
X014400Y003404D02*
X014400Y003404D01*
X012602Y003557D02*
X012602Y003657D01*
X011792Y002982D02*
X011244Y002982D01*
X011297Y002784D02*
X011792Y002784D01*
X012026Y001989D02*
X013178Y001989D01*
X013049Y001791D02*
X012155Y001791D01*
X012187Y001592D02*
X013017Y001592D01*
X013061Y001394D02*
X012142Y001394D01*
X011278Y001989D02*
X010552Y001989D01*
X010353Y001791D02*
X011149Y001791D01*
X010262Y003578D02*
X017081Y003578D01*
X016906Y003776D02*
X010262Y003776D01*
X010002Y003776D02*
X001809Y003776D01*
X001754Y003975D02*
X010002Y003975D01*
X010002Y004173D02*
X001752Y004173D01*
X001752Y004372D02*
X010002Y004372D01*
X010002Y004571D02*
X001752Y004571D01*
X001752Y004769D02*
X010002Y004769D01*
X010262Y004769D02*
X017552Y004769D01*
X017552Y004571D02*
X010262Y004571D01*
X010262Y004372D02*
X017010Y004372D01*
X016880Y004173D02*
X010262Y004173D01*
X010262Y003975D02*
X016852Y003975D01*
X017552Y004968D02*
X010262Y004968D01*
X010262Y005166D02*
X017552Y005166D01*
X017552Y005365D02*
X010262Y005365D01*
X010262Y005563D02*
X017552Y005563D01*
X017552Y005762D02*
X010262Y005762D01*
X010002Y005762D02*
X001752Y005762D01*
X001752Y005563D02*
X010002Y005563D01*
X010002Y005365D02*
X001752Y005365D01*
X001752Y005166D02*
X010002Y005166D01*
X010002Y004968D02*
X001752Y004968D01*
X002202Y005807D02*
X002289Y005819D01*
X002377Y005843D01*
X002462Y005878D01*
X002541Y005924D01*
X002614Y005979D01*
X002679Y006044D01*
X002735Y006117D01*
X002781Y006197D01*
X002816Y006281D01*
X002840Y006370D01*
X002851Y006457D01*
X002202Y006457D01*
X002202Y005807D01*
X002202Y005960D02*
X002102Y005960D01*
X002102Y006159D02*
X002202Y006159D01*
X002202Y006357D02*
X002102Y006357D01*
X002202Y006556D02*
X010002Y006556D01*
X010002Y006357D02*
X002836Y006357D01*
X002759Y006159D02*
X010002Y006159D01*
X010002Y005960D02*
X002589Y005960D01*
X002807Y006754D02*
X009752Y006754D01*
X009752Y006953D02*
X002692Y006953D01*
X002425Y007152D02*
X009752Y007152D01*
X009752Y007350D02*
X001752Y007350D01*
X001752Y007549D02*
X010002Y007549D01*
X010262Y007549D02*
X017552Y007549D01*
X017552Y007350D02*
X010260Y007350D01*
X010065Y007152D02*
X016879Y007152D01*
X017102Y007152D02*
X017202Y007152D01*
X017202Y006953D02*
X017102Y006953D01*
X017102Y006754D02*
X017202Y006754D01*
X017101Y006556D02*
X010262Y006556D01*
X010262Y006357D02*
X016467Y006357D01*
X016544Y006159D02*
X010262Y006159D01*
X010262Y005960D02*
X016714Y005960D01*
X017102Y005960D02*
X017202Y005960D01*
X017202Y006159D02*
X017102Y006159D01*
X017102Y006357D02*
X017202Y006357D01*
X016497Y006754D02*
X010172Y006754D01*
X010012Y006953D02*
X016612Y006953D01*
X017425Y007152D02*
X017552Y007152D01*
X017552Y007747D02*
X010262Y007747D01*
X010002Y007747D02*
X001752Y007747D01*
X001752Y007946D02*
X010002Y007946D01*
X010002Y008144D02*
X001752Y008144D01*
X001752Y008343D02*
X010002Y008343D01*
X010002Y008541D02*
X001752Y008541D01*
X001752Y008740D02*
X010002Y008740D01*
X010262Y008740D02*
X017552Y008740D01*
X017552Y008938D02*
X010262Y008938D01*
X010262Y009137D02*
X017512Y009137D01*
X017377Y009336D02*
X010262Y009336D01*
X010262Y009534D02*
X014560Y009534D01*
X014201Y009733D02*
X010262Y009733D01*
X010002Y009733D02*
X005037Y009733D01*
X005118Y009791D02*
X005118Y009791D01*
X005118Y009791D01*
X005219Y009931D02*
X010002Y009931D01*
X010002Y010130D02*
X007981Y010130D01*
X008136Y010328D02*
X010002Y010328D01*
X010002Y010527D02*
X008187Y010527D01*
X008161Y010725D02*
X010002Y010725D01*
X010262Y010725D02*
X011142Y010725D01*
X011117Y010527D02*
X010262Y010527D01*
X010262Y010328D02*
X011167Y010328D01*
X011322Y010130D02*
X010262Y010130D01*
X010262Y009931D02*
X014005Y009931D01*
X014001Y009935D02*
X014001Y009935D01*
X013921Y010130D02*
X013881Y010130D01*
X013222Y010130D02*
X011981Y010130D01*
X012136Y010328D02*
X013067Y010328D01*
X013017Y010527D02*
X012187Y010527D01*
X012161Y010725D02*
X013042Y010725D01*
X010002Y009534D02*
X004644Y009534D01*
X005331Y010130D02*
X005422Y010130D01*
X006081Y010130D02*
X007322Y010130D01*
X007167Y010328D02*
X006236Y010328D01*
X006287Y010527D02*
X007117Y010527D01*
X007142Y010725D02*
X006261Y010725D01*
X010002Y009336D02*
X001880Y009336D01*
X001775Y009137D02*
X010002Y009137D01*
X010002Y008938D02*
X001752Y008938D01*
X001752Y007152D02*
X001879Y007152D01*
X002102Y007152D02*
X002202Y007152D01*
X002202Y006953D02*
X002102Y006953D01*
X002102Y006754D02*
X002202Y006754D01*
X002002Y003578D02*
X010002Y003578D01*
X007278Y001989D02*
X006126Y001989D01*
X006255Y001791D02*
X007149Y001791D01*
X007117Y001592D02*
X006287Y001592D01*
X006242Y001394D02*
X007161Y001394D01*
X004451Y003507D02*
X004451Y003507D01*
X010262Y007946D02*
X017552Y007946D01*
X017552Y008144D02*
X010262Y008144D01*
X010262Y008343D02*
X017552Y008343D01*
X017552Y008541D02*
X010262Y008541D01*
D12*
X012602Y003557D03*
X012002Y002507D03*
X011002Y002807D03*
X011002Y002057D03*
X009552Y003207D03*
X008552Y003207D03*
X007552Y003207D03*
D13*
X007652Y001607D03*
X005752Y001607D03*
X009652Y001607D03*
X011652Y001607D03*
X013552Y001607D03*
X013552Y010557D03*
X011652Y010557D03*
X009652Y010557D03*
X007652Y010557D03*
X005752Y010557D03*
D14*
X007552Y003207D02*
X008552Y003207D01*
X009552Y003207D02*
X011902Y003207D01*
X012002Y003107D01*
X012002Y002507D01*
M02*
