%
M48
M72
T01C0.0130
T02C0.0394
T03C0.0500
T04C0.0600
%
T01
X5333Y3169
X5333Y3569
X5833Y3569
X5833Y3169
X6333Y3169
X6333Y3569
X7133Y2969
X8533Y2119
X7683Y7819
X7683Y8769
X6683Y8769
X6683Y9819
X5683Y9819
X7683Y9819
T02
X4583Y3719
X6533Y1069
X8533Y1069
X10533Y1069
X12483Y3769
X12483Y9219
X10533Y11219
X8533Y11219
X6533Y11219
X4583Y9219
T03
X933Y9019
T04
X1133Y6519
X16133Y6519
M30
