G75*
G70*
%OFA0B0*%
%FSLAX24Y24*%
%IPPOS*%
%LPD*%
%AMOC8*
5,1,8,0,0,1.08239X$1,22.5*
%
%ADD10C,0.0000*%
D10*
X004402Y003257D02*
X004456Y003255D01*
X004509Y003249D01*
X004561Y003240D01*
X004613Y003227D01*
X004664Y003210D01*
X004714Y003189D01*
X004761Y003165D01*
X004807Y003138D01*
X004851Y003107D01*
X004893Y003074D01*
X004932Y003037D01*
X004969Y002998D01*
X005002Y002956D01*
X005033Y002912D01*
X005060Y002866D01*
X005084Y002819D01*
X005105Y002769D01*
X005122Y002718D01*
X005135Y002666D01*
X005144Y002614D01*
X005150Y002561D01*
X005152Y002507D01*
X005152Y001657D01*
X005154Y001610D01*
X005159Y001563D01*
X005169Y001517D01*
X005181Y001472D01*
X005198Y001427D01*
X005217Y001385D01*
X005240Y001344D01*
X005267Y001304D01*
X005296Y001267D01*
X005328Y001233D01*
X005362Y001201D01*
X005399Y001172D01*
X005439Y001145D01*
X005480Y001122D01*
X005522Y001103D01*
X005567Y001086D01*
X005612Y001074D01*
X005658Y001064D01*
X005705Y001059D01*
X005752Y001057D01*
X013552Y001057D01*
X013595Y001056D01*
X013639Y001060D01*
X013682Y001067D01*
X013724Y001077D01*
X013765Y001091D01*
X013805Y001108D01*
X013843Y001128D01*
X013880Y001152D01*
X013914Y001179D01*
X013947Y001208D01*
X013976Y001240D01*
X014003Y001274D01*
X014027Y001310D01*
X014048Y001348D01*
X014066Y001388D01*
X014080Y001429D01*
X014091Y001471D01*
X014099Y001514D01*
X014102Y001557D01*
X014102Y002497D01*
X014104Y002551D01*
X014110Y002605D01*
X014119Y002658D01*
X014133Y002710D01*
X014150Y002761D01*
X014171Y002811D01*
X014195Y002859D01*
X014223Y002906D01*
X014254Y002950D01*
X014288Y002992D01*
X014325Y003031D01*
X014365Y003068D01*
X014407Y003101D01*
X014452Y003132D01*
X014498Y003159D01*
X014547Y003183D01*
X014597Y003203D01*
X014649Y003219D01*
X014701Y003232D01*
X014754Y003241D01*
X014808Y003246D01*
X014862Y003247D01*
X017042Y003217D01*
X017096Y003218D01*
X017150Y003223D01*
X017203Y003232D01*
X017255Y003245D01*
X017307Y003262D01*
X017357Y003282D01*
X017405Y003305D01*
X017452Y003333D01*
X017497Y003363D01*
X017539Y003397D01*
X017579Y003433D01*
X017616Y003472D01*
X017650Y003514D01*
X017681Y003558D01*
X017709Y003605D01*
X017733Y003653D01*
X017754Y003703D01*
X017771Y003754D01*
X017785Y003806D01*
X017794Y003859D01*
X017800Y003913D01*
X017802Y003967D01*
X017802Y008967D01*
X017800Y009020D01*
X017794Y009073D01*
X017785Y009125D01*
X017772Y009177D01*
X017756Y009227D01*
X017735Y009276D01*
X017712Y009324D01*
X017685Y009369D01*
X017655Y009413D01*
X017622Y009455D01*
X017586Y009494D01*
X017547Y009530D01*
X017506Y009564D01*
X017463Y009594D01*
X017417Y009622D01*
X017370Y009646D01*
X017321Y009667D01*
X017271Y009684D01*
X017220Y009698D01*
X017168Y009708D01*
X017115Y009714D01*
X017062Y009717D01*
X014842Y009747D01*
X014789Y009750D01*
X014736Y009756D01*
X014684Y009766D01*
X014633Y009780D01*
X014583Y009797D01*
X014534Y009818D01*
X014487Y009842D01*
X014441Y009870D01*
X014398Y009900D01*
X014357Y009934D01*
X014318Y009970D01*
X014282Y010009D01*
X014249Y010051D01*
X014219Y010095D01*
X014192Y010140D01*
X014169Y010188D01*
X014148Y010237D01*
X014132Y010287D01*
X014119Y010339D01*
X014110Y010391D01*
X014104Y010444D01*
X014102Y010497D01*
X014102Y010557D01*
X014104Y010601D01*
X014103Y010645D01*
X014097Y010688D01*
X014088Y010731D01*
X014076Y010773D01*
X014060Y010813D01*
X014040Y010853D01*
X014017Y010890D01*
X013991Y010925D01*
X013961Y010958D01*
X013929Y010988D01*
X013895Y011015D01*
X013858Y011039D01*
X013820Y011059D01*
X013780Y011077D01*
X013738Y011090D01*
X013695Y011100D01*
X013652Y011107D01*
X005602Y011107D01*
X005561Y011103D01*
X005520Y011096D01*
X005480Y011085D01*
X005441Y011070D01*
X005403Y011052D01*
X005368Y011031D01*
X005334Y011007D01*
X005302Y010980D01*
X005273Y010950D01*
X005247Y010918D01*
X005223Y010884D01*
X005203Y010848D01*
X005186Y010810D01*
X005172Y010771D01*
X005161Y010731D01*
X005155Y010690D01*
X005151Y010649D01*
X005152Y010607D01*
X005152Y010507D01*
X005150Y010453D01*
X005144Y010400D01*
X005135Y010348D01*
X005122Y010296D01*
X005105Y010245D01*
X005084Y010195D01*
X005060Y010148D01*
X005033Y010102D01*
X005002Y010058D01*
X004969Y010016D01*
X004932Y009977D01*
X004893Y009940D01*
X004851Y009907D01*
X004807Y009876D01*
X004761Y009849D01*
X004714Y009825D01*
X004664Y009804D01*
X004613Y009787D01*
X004561Y009774D01*
X004509Y009765D01*
X004456Y009759D01*
X004402Y009757D01*
X002252Y009757D01*
X002198Y009755D01*
X002145Y009749D01*
X002093Y009740D01*
X002041Y009727D01*
X001990Y009710D01*
X001940Y009689D01*
X001893Y009665D01*
X001847Y009638D01*
X001803Y009607D01*
X001761Y009574D01*
X001722Y009537D01*
X001685Y009498D01*
X001652Y009456D01*
X001621Y009412D01*
X001594Y009366D01*
X001570Y009319D01*
X001549Y009269D01*
X001532Y009218D01*
X001519Y009166D01*
X001510Y009114D01*
X001504Y009061D01*
X001502Y009007D01*
X001502Y004007D01*
X001504Y003953D01*
X001510Y003900D01*
X001519Y003848D01*
X001532Y003796D01*
X001549Y003745D01*
X001570Y003695D01*
X001594Y003648D01*
X001621Y003602D01*
X001652Y003558D01*
X001685Y003516D01*
X001722Y003477D01*
X001761Y003440D01*
X001803Y003407D01*
X001847Y003376D01*
X001893Y003349D01*
X001940Y003325D01*
X001990Y003304D01*
X002041Y003287D01*
X002093Y003274D01*
X002145Y003265D01*
X002198Y003259D01*
X002252Y003257D01*
X004402Y003257D01*
X017102Y004007D02*
X017104Y004038D01*
X017110Y004069D01*
X017120Y004099D01*
X017133Y004127D01*
X017150Y004154D01*
X017170Y004178D01*
X017193Y004200D01*
X017218Y004218D01*
X017246Y004233D01*
X017275Y004245D01*
X017305Y004253D01*
X017336Y004257D01*
X017368Y004257D01*
X017399Y004253D01*
X017429Y004245D01*
X017458Y004233D01*
X017486Y004218D01*
X017511Y004200D01*
X017534Y004178D01*
X017554Y004154D01*
X017571Y004127D01*
X017584Y004099D01*
X017594Y004069D01*
X017600Y004038D01*
X017602Y004007D01*
X017600Y003976D01*
X017594Y003945D01*
X017584Y003915D01*
X017571Y003887D01*
X017554Y003860D01*
X017534Y003836D01*
X017511Y003814D01*
X017486Y003796D01*
X017458Y003781D01*
X017429Y003769D01*
X017399Y003761D01*
X017368Y003757D01*
X017336Y003757D01*
X017305Y003761D01*
X017275Y003769D01*
X017246Y003781D01*
X017218Y003796D01*
X017193Y003814D01*
X017170Y003836D01*
X017150Y003860D01*
X017133Y003887D01*
X017120Y003915D01*
X017110Y003945D01*
X017104Y003976D01*
X017102Y004007D01*
M02*
