%
M48
M72
T01C0.0130
T02C0.0394
T03C0.0500
T04C0.0600
%
T01
X7552Y3207
X8552Y3207
X9552Y3207
X11002Y2807
X11002Y2057
X12002Y2507
X12602Y3557
T02
X5752Y1607
X7652Y1607
X9652Y1607
X11652Y1607
X13552Y1607
X13552Y10557
X11652Y10557
X9652Y10557
X7652Y10557
X5752Y10557
T03
X17352Y4007
T04
X17152Y6507
X2152Y6507
M30
