G75*
G70*
%OFA0B0*%
%FSLAX24Y24*%
%IPPOS*%
%LPD*%
%AMOC8*
5,1,8,0,0,1.08239X$1,22.5*
%
%ADD10R,0.0472X0.0217*%
%ADD11R,0.0315X0.0472*%
%ADD12R,0.0472X0.0315*%
%ADD13R,0.0472X0.0472*%
%ADD14C,0.1000*%
%ADD15R,0.0551X0.0709*%
%ADD16C,0.0100*%
%ADD17C,0.0200*%
%ADD18C,0.0160*%
%ADD19C,0.0750*%
%ADD20C,0.0270*%
D10*
X008022Y001745D03*
X008022Y002493D03*
X009045Y002493D03*
X009045Y002119D03*
X009045Y001745D03*
D11*
X009179Y001069D03*
X009888Y001069D03*
X007888Y001069D03*
X007179Y001069D03*
D12*
X007133Y001865D03*
X006333Y001865D03*
X006333Y002573D03*
X007133Y002573D03*
D13*
X005533Y002582D03*
X005533Y001756D03*
D14*
X001133Y006519D03*
X016133Y006519D03*
D15*
X011203Y001969D03*
X009864Y001969D03*
D16*
X004858Y003308D02*
X004804Y003285D01*
X004980Y003212D01*
X004980Y003212D01*
X005177Y003015D01*
X005177Y003015D01*
X005224Y002901D01*
X005252Y002929D01*
X005815Y002929D01*
X005880Y002864D01*
X005880Y002379D01*
X005952Y002379D01*
X005947Y002396D01*
X005947Y002544D01*
X006304Y002544D01*
X006304Y002602D01*
X005947Y002602D01*
X005947Y002751D01*
X005957Y002789D01*
X005977Y002823D01*
X006005Y002851D01*
X006039Y002871D01*
X006077Y002881D01*
X006305Y002881D01*
X006305Y002602D01*
X006362Y002602D01*
X006362Y002881D01*
X006589Y002881D01*
X006627Y002871D01*
X006662Y002851D01*
X006690Y002823D01*
X006709Y002789D01*
X006720Y002751D01*
X006720Y002602D01*
X006362Y002602D01*
X006362Y002544D01*
X006720Y002544D01*
X006720Y002396D01*
X006709Y002358D01*
X006690Y002324D01*
X006662Y002296D01*
X006627Y002276D01*
X006589Y002266D01*
X006463Y002266D01*
X006493Y002235D01*
X006493Y002132D01*
X006615Y002132D01*
X006680Y002068D01*
X006680Y001729D01*
X006787Y001729D01*
X006787Y002068D01*
X006852Y002132D01*
X007415Y002132D01*
X007480Y002068D01*
X007480Y002029D01*
X007550Y002029D01*
X007674Y001905D01*
X007681Y001905D01*
X007740Y001963D01*
X008173Y001963D01*
X008173Y002235D01*
X008026Y002235D01*
X008026Y002489D01*
X008017Y002489D01*
X007635Y002489D01*
X007635Y002365D01*
X007646Y002327D01*
X007665Y002293D01*
X007693Y002265D01*
X007727Y002245D01*
X007766Y002235D01*
X008017Y002235D01*
X008017Y002489D01*
X008017Y002497D01*
X007635Y002497D01*
X007635Y002621D01*
X007646Y002659D01*
X007665Y002693D01*
X007693Y002721D01*
X007727Y002741D01*
X007766Y002751D01*
X008017Y002751D01*
X008017Y002497D01*
X008026Y002497D01*
X008026Y002751D01*
X008173Y002751D01*
X008173Y002753D01*
X007117Y003809D01*
X005068Y003809D01*
X005068Y003622D01*
X004995Y003444D01*
X004858Y003308D01*
X004868Y003318D02*
X007608Y003318D01*
X007510Y003417D02*
X004967Y003417D01*
X005024Y003515D02*
X007411Y003515D01*
X007312Y003614D02*
X005065Y003614D01*
X005068Y003712D02*
X007214Y003712D01*
X007342Y003811D02*
X009983Y003811D01*
X009983Y003909D02*
X007243Y003909D01*
X007183Y003969D02*
X005005Y003969D01*
X004995Y003994D01*
X004858Y004130D01*
X004680Y004204D01*
X004487Y004204D01*
X004309Y004130D01*
X004233Y004055D01*
X004233Y005186D01*
X004233Y005200D01*
X004233Y005352D01*
X004233Y005408D01*
X004233Y005408D01*
X004127Y005665D01*
X004127Y005665D01*
X003930Y005862D01*
X003673Y005969D01*
X003616Y005969D01*
X001481Y005969D01*
X001495Y005977D01*
X001563Y006029D01*
X001623Y006089D01*
X001675Y006157D01*
X001718Y006231D01*
X001750Y006310D01*
X001772Y006392D01*
X001782Y006469D01*
X001184Y006469D01*
X001184Y006569D01*
X001782Y006569D01*
X001772Y006646D01*
X001750Y006728D01*
X001718Y006807D01*
X001675Y006881D01*
X001623Y006948D01*
X001563Y007009D01*
X001495Y007061D01*
X001421Y007103D01*
X001343Y007136D01*
X001260Y007158D01*
X001183Y007168D01*
X001183Y006569D01*
X001083Y006569D01*
X001083Y007168D01*
X001006Y007158D01*
X000924Y007136D01*
X000845Y007103D01*
X000771Y007061D01*
X000704Y007009D01*
X000644Y006948D01*
X000633Y006935D01*
X000633Y008683D01*
X000678Y008637D01*
X000844Y008569D01*
X001023Y008569D01*
X001188Y008637D01*
X001315Y008764D01*
X001383Y008929D01*
X001383Y009108D01*
X001315Y009274D01*
X001188Y009400D01*
X001042Y009461D01*
X001070Y009482D01*
X001308Y009559D01*
X001433Y009569D01*
X001516Y009569D01*
X004069Y009569D01*
X004225Y009547D01*
X004225Y009547D01*
X004225Y009547D01*
X004172Y009494D01*
X004098Y009315D01*
X004098Y009122D01*
X004172Y008944D01*
X004309Y008808D01*
X004487Y008734D01*
X004680Y008734D01*
X004858Y008808D01*
X004995Y008944D01*
X005068Y009122D01*
X005068Y009315D01*
X004995Y009494D01*
X004858Y009630D01*
X004719Y009688D01*
X004867Y009766D01*
X004870Y009769D01*
X005133Y009769D01*
X009983Y004919D01*
X009983Y002473D01*
X009914Y002473D01*
X009914Y002019D01*
X009814Y002019D01*
X009814Y002473D01*
X009569Y002473D01*
X009531Y002463D01*
X009496Y002443D01*
X009468Y002415D01*
X009449Y002381D01*
X009439Y002343D01*
X009439Y002019D01*
X009814Y002019D01*
X009814Y001919D01*
X009439Y001919D01*
X009439Y001595D01*
X009449Y001557D01*
X009468Y001523D01*
X009496Y001495D01*
X009531Y001475D01*
X009569Y001465D01*
X009814Y001465D01*
X009814Y001919D01*
X009914Y001919D01*
X009914Y001465D01*
X009983Y001465D01*
X009983Y001455D01*
X009916Y001455D01*
X009916Y001098D01*
X009859Y001098D01*
X009859Y001455D01*
X009710Y001455D01*
X009672Y001445D01*
X009638Y001425D01*
X009610Y001397D01*
X009590Y001363D01*
X009580Y001325D01*
X009580Y001098D01*
X009859Y001098D01*
X009859Y001040D01*
X009580Y001040D01*
X009580Y000813D01*
X009590Y000775D01*
X009610Y000741D01*
X009632Y000719D01*
X008869Y000719D01*
X008925Y000774D01*
X008976Y000723D01*
X009382Y000723D01*
X009446Y000787D01*
X009446Y001351D01*
X009382Y001415D01*
X008976Y001415D01*
X008925Y001364D01*
X008808Y001480D01*
X008630Y001554D01*
X008595Y001554D01*
X008600Y001559D01*
X008731Y001559D01*
X008763Y001527D01*
X009327Y001527D01*
X009391Y001591D01*
X009391Y001899D01*
X009358Y001932D01*
X009391Y001965D01*
X009391Y002273D01*
X009386Y002278D01*
X009401Y002293D01*
X009421Y002327D01*
X009431Y002365D01*
X009431Y002489D01*
X009050Y002489D01*
X009050Y002497D01*
X009431Y002497D01*
X009431Y002621D01*
X009421Y002659D01*
X009401Y002693D01*
X009374Y002721D01*
X009339Y002741D01*
X009301Y002751D01*
X009049Y002751D01*
X009049Y002497D01*
X009041Y002497D01*
X009041Y002489D01*
X008659Y002489D01*
X008659Y002365D01*
X008669Y002329D01*
X008667Y002329D01*
X008582Y002364D01*
X008485Y002364D01*
X008395Y002327D01*
X008333Y002265D01*
X008333Y002305D01*
X008368Y002339D01*
X008368Y002647D01*
X008333Y002681D01*
X008333Y002819D01*
X007183Y003969D01*
X007440Y003712D02*
X009983Y003712D01*
X009983Y003614D02*
X007539Y003614D01*
X007637Y003515D02*
X009983Y003515D01*
X009983Y003417D02*
X007736Y003417D01*
X007834Y003318D02*
X009983Y003318D01*
X009983Y003219D02*
X007933Y003219D01*
X008031Y003121D02*
X009983Y003121D01*
X009983Y003022D02*
X008130Y003022D01*
X008229Y002924D02*
X009983Y002924D01*
X009983Y002825D02*
X008327Y002825D01*
X008333Y002727D02*
X008726Y002727D01*
X008717Y002721D02*
X008689Y002693D01*
X008669Y002659D01*
X008659Y002621D01*
X008659Y002497D01*
X009041Y002497D01*
X009041Y002751D01*
X008789Y002751D01*
X008751Y002741D01*
X008717Y002721D01*
X008661Y002628D02*
X008368Y002628D01*
X008368Y002530D02*
X008659Y002530D01*
X008659Y002431D02*
X008368Y002431D01*
X008361Y002333D02*
X008409Y002333D01*
X008173Y002234D02*
X006493Y002234D01*
X006493Y002135D02*
X008173Y002135D01*
X008173Y002037D02*
X007480Y002037D01*
X007483Y001869D02*
X007607Y001745D01*
X008022Y001745D01*
X007715Y001938D02*
X007640Y001938D01*
X007483Y001869D02*
X007138Y001869D01*
X007133Y001865D01*
X006787Y001840D02*
X006680Y001840D01*
X006680Y001938D02*
X006787Y001938D01*
X006787Y002037D02*
X006680Y002037D01*
X006680Y001741D02*
X006787Y001741D01*
X006733Y001569D02*
X006333Y001569D01*
X006033Y001269D01*
X005633Y001269D01*
X005533Y001369D01*
X005533Y001756D01*
X005373Y001409D02*
X005292Y001409D01*
X005293Y001394D01*
X005371Y001156D01*
X005518Y000953D01*
X006872Y000953D01*
X006872Y001040D02*
X006872Y000813D01*
X006882Y000775D01*
X006902Y000741D01*
X006923Y000719D01*
X006166Y000719D01*
X006083Y000719D01*
X005958Y000729D01*
X005720Y000806D01*
X005518Y000953D01*
X005446Y001051D02*
X007150Y001051D01*
X007150Y001040D02*
X006872Y001040D01*
X006872Y001098D02*
X007150Y001098D01*
X007150Y001040D01*
X007208Y001040D02*
X007208Y001098D01*
X007486Y001098D01*
X007486Y001325D01*
X007477Y001359D01*
X007629Y001359D01*
X007620Y001351D01*
X007620Y000787D01*
X007685Y000723D01*
X008091Y000723D01*
X008142Y000774D01*
X008173Y000743D01*
X008173Y000719D01*
X007435Y000719D01*
X007457Y000741D01*
X007476Y000775D01*
X007486Y000813D01*
X007486Y001040D01*
X007208Y001040D01*
X007208Y001051D02*
X007620Y001051D01*
X007620Y000953D02*
X007486Y000953D01*
X007486Y000854D02*
X007620Y000854D01*
X007652Y000756D02*
X007465Y000756D01*
X007486Y001150D02*
X007620Y001150D01*
X007620Y001249D02*
X007486Y001249D01*
X007481Y001347D02*
X007620Y001347D01*
X008333Y001519D02*
X006783Y001519D01*
X006733Y001569D01*
X006667Y001409D02*
X006717Y001359D01*
X006850Y001359D01*
X006881Y001359D01*
X006872Y001325D01*
X006872Y001098D01*
X006872Y001150D02*
X006141Y001150D01*
X006100Y001109D02*
X006193Y001203D01*
X006400Y001409D01*
X006667Y001409D01*
X006878Y001347D02*
X006338Y001347D01*
X006239Y001249D02*
X006872Y001249D01*
X006872Y000854D02*
X005654Y000854D01*
X005875Y000756D02*
X006893Y000756D01*
X006100Y001109D02*
X005700Y001109D01*
X005567Y001109D01*
X005467Y001209D01*
X005373Y001303D01*
X005373Y001409D01*
X005373Y001347D02*
X005308Y001347D01*
X005340Y001249D02*
X005427Y001249D01*
X005375Y001150D02*
X005526Y001150D01*
X006333Y001865D02*
X006333Y002169D01*
X006283Y002219D01*
X005633Y002219D01*
X005583Y002269D01*
X005583Y002532D01*
X005533Y002582D01*
X005880Y002628D02*
X005947Y002628D01*
X005947Y002530D02*
X005880Y002530D01*
X005880Y002431D02*
X005947Y002431D01*
X005947Y002727D02*
X005880Y002727D01*
X005880Y002825D02*
X005980Y002825D01*
X005820Y002924D02*
X006888Y002924D01*
X006888Y002920D02*
X006921Y002841D01*
X006852Y002841D01*
X006787Y002776D01*
X006787Y002370D01*
X006852Y002306D01*
X007415Y002306D01*
X007480Y002370D01*
X007480Y002776D01*
X007415Y002841D01*
X007345Y002841D01*
X007378Y002920D01*
X007378Y003018D01*
X007341Y003108D01*
X007272Y003177D01*
X007182Y003214D01*
X007085Y003214D01*
X006995Y003177D01*
X006926Y003108D01*
X006888Y003018D01*
X006888Y002920D01*
X006890Y003022D02*
X005170Y003022D01*
X005215Y002924D02*
X005247Y002924D01*
X005071Y003121D02*
X006939Y003121D01*
X006836Y002825D02*
X006687Y002825D01*
X006720Y002727D02*
X006787Y002727D01*
X006787Y002628D02*
X006720Y002628D01*
X006720Y002530D02*
X006787Y002530D01*
X006787Y002431D02*
X006720Y002431D01*
X006695Y002333D02*
X006825Y002333D01*
X006362Y002628D02*
X006305Y002628D01*
X006305Y002727D02*
X006362Y002727D01*
X006362Y002825D02*
X006305Y002825D01*
X007328Y003121D02*
X007805Y003121D01*
X007707Y003219D02*
X004963Y003219D01*
X004980Y004008D02*
X009983Y004008D01*
X009983Y004106D02*
X004882Y004106D01*
X004285Y004106D02*
X004233Y004106D01*
X004233Y004205D02*
X009983Y004205D01*
X009983Y004303D02*
X004233Y004303D01*
X004233Y004402D02*
X009983Y004402D01*
X009983Y004501D02*
X004233Y004501D01*
X004233Y004599D02*
X009983Y004599D01*
X009983Y004698D02*
X004233Y004698D01*
X004233Y004796D02*
X009983Y004796D01*
X009983Y004895D02*
X004233Y004895D01*
X004233Y004993D02*
X009909Y004993D01*
X009811Y005092D02*
X004233Y005092D01*
X004233Y005190D02*
X009712Y005190D01*
X009614Y005289D02*
X004233Y005289D01*
X004233Y005387D02*
X009515Y005387D01*
X009416Y005486D02*
X004201Y005486D01*
X004160Y005584D02*
X009318Y005584D01*
X009219Y005683D02*
X004109Y005683D01*
X004011Y005782D02*
X009121Y005782D01*
X009022Y005880D02*
X003887Y005880D01*
X001767Y006373D02*
X008530Y006373D01*
X008628Y006274D02*
X001736Y006274D01*
X001686Y006176D02*
X008727Y006176D01*
X008825Y006077D02*
X001611Y006077D01*
X001497Y005979D02*
X008924Y005979D01*
X009051Y006077D02*
X015712Y006077D01*
X015788Y006002D02*
X016012Y005909D01*
X016184Y005909D01*
X016085Y005877D01*
X015983Y005869D01*
X014166Y005869D01*
X014144Y005869D01*
X014001Y005869D01*
X013893Y005869D01*
X013532Y005751D01*
X013532Y005751D01*
X013224Y005528D01*
X013001Y005221D01*
X013001Y005220D01*
X012883Y004859D01*
X012883Y004752D01*
X012883Y004055D01*
X012758Y004180D01*
X012580Y004254D01*
X012387Y004254D01*
X012209Y004180D01*
X012072Y004044D01*
X011998Y003865D01*
X011998Y003672D01*
X012072Y003494D01*
X012205Y003361D01*
X012087Y003312D01*
X011890Y003115D01*
X011783Y002858D01*
X011783Y002802D01*
X011783Y001602D01*
X011783Y001519D01*
X011774Y001394D01*
X011696Y001156D01*
X011549Y000953D01*
X011347Y000806D01*
X011109Y000729D01*
X010983Y000719D01*
X010143Y000719D01*
X010143Y000775D01*
X010155Y000787D01*
X010155Y001351D01*
X010143Y001363D01*
X010143Y001505D01*
X010185Y001505D01*
X010250Y001569D01*
X010250Y002369D01*
X010185Y002433D01*
X010143Y002433D01*
X010143Y004985D01*
X010050Y005079D01*
X008633Y006495D01*
X008633Y010735D01*
X008808Y010808D01*
X008945Y010944D01*
X009018Y011122D01*
X009018Y011315D01*
X008945Y011494D01*
X008869Y011569D01*
X010901Y011569D01*
X010983Y011569D01*
X011109Y011559D01*
X011347Y011482D01*
X011549Y011335D01*
X011696Y011132D01*
X011774Y010894D01*
X011783Y010769D01*
X011783Y010352D01*
X011783Y010320D01*
X011783Y010186D01*
X011783Y010130D01*
X011783Y010130D01*
X011890Y009872D01*
X012087Y009676D01*
X012205Y009627D01*
X012072Y009494D01*
X011998Y009315D01*
X011998Y009122D01*
X012072Y008944D01*
X012209Y008808D01*
X012387Y008734D01*
X012580Y008734D01*
X012758Y008808D01*
X012833Y008883D01*
X012833Y008399D01*
X012831Y008397D01*
X012833Y008317D01*
X012833Y008236D01*
X012836Y008234D01*
X012838Y008128D01*
X012838Y008128D01*
X012962Y007777D01*
X013189Y007481D01*
X013495Y007270D01*
X013496Y007270D02*
X013852Y007164D01*
X013852Y007164D01*
X014036Y007169D01*
X015901Y007169D01*
X015983Y007169D01*
X016085Y007161D01*
X016184Y007129D01*
X016012Y007129D01*
X015788Y007036D01*
X015616Y006864D01*
X015523Y006640D01*
X015523Y006398D01*
X015616Y006173D01*
X015788Y006002D01*
X015844Y005979D02*
X009150Y005979D01*
X009248Y005880D02*
X016095Y005880D01*
X015615Y006176D02*
X008953Y006176D01*
X008854Y006274D02*
X015574Y006274D01*
X015534Y006373D02*
X008756Y006373D01*
X008657Y006471D02*
X015523Y006471D01*
X015523Y006570D02*
X008633Y006570D01*
X008633Y006668D02*
X015535Y006668D01*
X015576Y006767D02*
X008633Y006767D01*
X008633Y006866D02*
X015617Y006866D01*
X015716Y006964D02*
X008633Y006964D01*
X008633Y007063D02*
X015852Y007063D01*
X016083Y007161D02*
X008633Y007161D01*
X008633Y007260D02*
X013531Y007260D01*
X013496Y007270D02*
X013495Y007270D01*
X013367Y007358D02*
X008633Y007358D01*
X008633Y007457D02*
X013224Y007457D01*
X013189Y007481D02*
X013189Y007481D01*
X013189Y007481D01*
X013132Y007555D02*
X008633Y007555D01*
X008633Y007654D02*
X013056Y007654D01*
X012981Y007752D02*
X008633Y007752D01*
X008633Y007851D02*
X012936Y007851D01*
X012962Y007777D02*
X012962Y007777D01*
X012901Y007950D02*
X008633Y007950D01*
X008633Y008048D02*
X012866Y008048D01*
X012838Y008147D02*
X008633Y008147D01*
X008633Y008245D02*
X012833Y008245D01*
X012833Y008344D02*
X008633Y008344D01*
X008633Y008442D02*
X012833Y008442D01*
X012833Y008541D02*
X008633Y008541D01*
X008633Y008639D02*
X012833Y008639D01*
X012833Y008738D02*
X012589Y008738D01*
X012377Y008738D02*
X008633Y008738D01*
X008633Y008836D02*
X012180Y008836D01*
X012081Y008935D02*
X008633Y008935D01*
X008633Y009034D02*
X012035Y009034D01*
X011998Y009132D02*
X008633Y009132D01*
X008633Y009231D02*
X011998Y009231D01*
X012004Y009329D02*
X008633Y009329D01*
X008633Y009428D02*
X012045Y009428D01*
X012105Y009526D02*
X008633Y009526D01*
X008633Y009625D02*
X012203Y009625D01*
X012087Y009676D02*
X012087Y009676D01*
X012039Y009723D02*
X008633Y009723D01*
X008633Y009822D02*
X011941Y009822D01*
X011890Y009872D02*
X011890Y009872D01*
X011870Y009920D02*
X008633Y009920D01*
X008633Y010019D02*
X011829Y010019D01*
X011788Y010117D02*
X008633Y010117D01*
X008633Y010216D02*
X011783Y010216D01*
X011783Y010315D02*
X008633Y010315D01*
X008633Y010413D02*
X011783Y010413D01*
X011783Y010512D02*
X008633Y010512D01*
X008633Y010610D02*
X011783Y010610D01*
X011783Y010709D02*
X008633Y010709D01*
X008807Y010807D02*
X011780Y010807D01*
X011770Y010906D02*
X008906Y010906D01*
X008969Y011004D02*
X011738Y011004D01*
X011706Y011103D02*
X009010Y011103D01*
X009018Y011201D02*
X011646Y011201D01*
X011574Y011300D02*
X009018Y011300D01*
X008984Y011399D02*
X011461Y011399D01*
X011299Y011497D02*
X008941Y011497D01*
X008198Y011569D02*
X008122Y011494D01*
X008048Y011315D01*
X008048Y011122D01*
X008122Y010944D01*
X008259Y010808D01*
X008433Y010735D01*
X008433Y006719D01*
X008420Y006709D01*
X005200Y009929D01*
X005067Y009929D01*
X005025Y009929D01*
X005106Y010012D01*
X005106Y010013D01*
X005257Y010321D01*
X005272Y010425D01*
X005283Y010436D01*
X005283Y010505D01*
X005293Y010573D01*
X005283Y010586D01*
X005283Y010769D01*
X005293Y010894D01*
X005371Y011132D01*
X005518Y011335D01*
X005720Y011482D01*
X005958Y011559D01*
X006083Y011569D01*
X008198Y011569D01*
X008126Y011497D02*
X005767Y011497D01*
X005606Y011399D02*
X008083Y011399D01*
X008048Y011300D02*
X005492Y011300D01*
X005421Y011201D02*
X008048Y011201D01*
X008056Y011103D02*
X005361Y011103D01*
X005329Y011004D02*
X008097Y011004D01*
X008161Y010906D02*
X005297Y010906D01*
X005286Y010807D02*
X008260Y010807D01*
X008433Y010709D02*
X005283Y010709D01*
X005283Y010610D02*
X008433Y010610D01*
X008433Y010512D02*
X005284Y010512D01*
X005270Y010413D02*
X008433Y010413D01*
X008433Y010315D02*
X005254Y010315D01*
X005257Y010321D02*
X005257Y010321D01*
X005206Y010216D02*
X008433Y010216D01*
X008433Y010117D02*
X005157Y010117D01*
X005109Y010019D02*
X008433Y010019D01*
X008433Y009920D02*
X005208Y009920D01*
X005307Y009822D02*
X008433Y009822D01*
X008433Y009723D02*
X005405Y009723D01*
X005504Y009625D02*
X008433Y009625D01*
X008433Y009526D02*
X005602Y009526D01*
X005701Y009428D02*
X008433Y009428D01*
X008433Y009329D02*
X005799Y009329D01*
X005898Y009231D02*
X008433Y009231D01*
X008433Y009132D02*
X005997Y009132D01*
X006095Y009034D02*
X008433Y009034D01*
X008433Y008935D02*
X006194Y008935D01*
X006292Y008836D02*
X008433Y008836D01*
X008433Y008738D02*
X006391Y008738D01*
X006489Y008639D02*
X008433Y008639D01*
X008433Y008541D02*
X006588Y008541D01*
X006686Y008442D02*
X008433Y008442D01*
X008433Y008344D02*
X006785Y008344D01*
X006883Y008245D02*
X008433Y008245D01*
X008433Y008147D02*
X006982Y008147D01*
X007081Y008048D02*
X008433Y008048D01*
X008433Y007950D02*
X007179Y007950D01*
X007278Y007851D02*
X008433Y007851D01*
X008433Y007752D02*
X007376Y007752D01*
X007475Y007654D02*
X008433Y007654D01*
X008433Y007555D02*
X007573Y007555D01*
X007672Y007457D02*
X008433Y007457D01*
X008433Y007358D02*
X007770Y007358D01*
X007869Y007260D02*
X008433Y007260D01*
X008433Y007161D02*
X007967Y007161D01*
X008066Y007063D02*
X008433Y007063D01*
X008433Y006964D02*
X008164Y006964D01*
X008263Y006866D02*
X008433Y006866D01*
X008433Y006767D02*
X008362Y006767D01*
X008234Y006668D02*
X001766Y006668D01*
X001782Y006570D02*
X008332Y006570D01*
X008431Y006471D02*
X001184Y006471D01*
X001183Y006570D02*
X001083Y006570D01*
X001083Y006668D02*
X001183Y006668D01*
X001183Y006767D02*
X001083Y006767D01*
X001083Y006866D02*
X001183Y006866D01*
X001183Y006964D02*
X001083Y006964D01*
X001083Y007063D02*
X001183Y007063D01*
X001183Y007161D02*
X001083Y007161D01*
X001032Y007161D02*
X000633Y007161D01*
X000633Y007063D02*
X000775Y007063D01*
X000659Y006964D02*
X000633Y006964D01*
X000633Y007260D02*
X007643Y007260D01*
X007741Y007161D02*
X001235Y007161D01*
X001492Y007063D02*
X007840Y007063D01*
X007938Y006964D02*
X001607Y006964D01*
X001684Y006866D02*
X008037Y006866D01*
X008135Y006767D02*
X001734Y006767D01*
X000633Y007358D02*
X007544Y007358D01*
X007446Y007457D02*
X000633Y007457D01*
X000633Y007555D02*
X007347Y007555D01*
X007248Y007654D02*
X000633Y007654D01*
X000633Y007752D02*
X007150Y007752D01*
X007051Y007851D02*
X000633Y007851D01*
X000633Y007950D02*
X006953Y007950D01*
X006854Y008048D02*
X000633Y008048D01*
X000633Y008147D02*
X006756Y008147D01*
X006657Y008245D02*
X000633Y008245D01*
X000633Y008344D02*
X006559Y008344D01*
X006460Y008442D02*
X000633Y008442D01*
X000633Y008541D02*
X006362Y008541D01*
X006263Y008639D02*
X001190Y008639D01*
X001289Y008738D02*
X004477Y008738D01*
X004280Y008836D02*
X001345Y008836D01*
X001383Y008935D02*
X004181Y008935D01*
X004135Y009034D02*
X001383Y009034D01*
X001374Y009132D02*
X004098Y009132D01*
X004098Y009231D02*
X001333Y009231D01*
X001260Y009329D02*
X004104Y009329D01*
X004145Y009428D02*
X001122Y009428D01*
X001207Y009526D02*
X004205Y009526D01*
X004786Y009723D02*
X005179Y009723D01*
X005278Y009625D02*
X004863Y009625D01*
X004962Y009526D02*
X005376Y009526D01*
X005475Y009428D02*
X005022Y009428D01*
X005063Y009329D02*
X005573Y009329D01*
X005672Y009231D02*
X005068Y009231D01*
X005068Y009132D02*
X005770Y009132D01*
X005869Y009034D02*
X005031Y009034D01*
X004985Y008935D02*
X005967Y008935D01*
X006066Y008836D02*
X004887Y008836D01*
X004689Y008738D02*
X006164Y008738D01*
X004867Y009766D02*
X004867Y009766D01*
X006533Y010043D02*
X006533Y010069D01*
X006533Y010043D02*
X006564Y010043D01*
X009347Y005782D02*
X013625Y005782D01*
X013438Y005683D02*
X009446Y005683D01*
X009544Y005584D02*
X013302Y005584D01*
X013224Y005528D02*
X013224Y005528D01*
X013224Y005528D01*
X013194Y005486D02*
X009643Y005486D01*
X009741Y005387D02*
X013122Y005387D01*
X013051Y005289D02*
X009840Y005289D01*
X009938Y005190D02*
X012991Y005190D01*
X012959Y005092D02*
X010037Y005092D01*
X010135Y004993D02*
X012927Y004993D01*
X012895Y004895D02*
X010143Y004895D01*
X010143Y004796D02*
X012883Y004796D01*
X012883Y004752D02*
X012883Y004752D01*
X012883Y004698D02*
X010143Y004698D01*
X010143Y004599D02*
X012883Y004599D01*
X012883Y004501D02*
X010143Y004501D01*
X010143Y004402D02*
X012883Y004402D01*
X012883Y004303D02*
X010143Y004303D01*
X010143Y004205D02*
X012268Y004205D01*
X012135Y004106D02*
X010143Y004106D01*
X010143Y004008D02*
X012057Y004008D01*
X012017Y003909D02*
X010143Y003909D01*
X010143Y003811D02*
X011998Y003811D01*
X011998Y003712D02*
X010143Y003712D01*
X010143Y003614D02*
X012023Y003614D01*
X012064Y003515D02*
X010143Y003515D01*
X010143Y003417D02*
X012150Y003417D01*
X012101Y003318D02*
X010143Y003318D01*
X010143Y003219D02*
X011994Y003219D01*
X012087Y003312D02*
X012087Y003312D01*
X011895Y003121D02*
X010143Y003121D01*
X010143Y003022D02*
X011851Y003022D01*
X011890Y003115D02*
X011890Y003115D01*
X011890Y003115D01*
X011811Y002924D02*
X010143Y002924D01*
X010143Y002825D02*
X011783Y002825D01*
X011783Y002858D02*
X011783Y002858D01*
X011783Y002727D02*
X010143Y002727D01*
X010143Y002628D02*
X011783Y002628D01*
X011783Y002530D02*
X010143Y002530D01*
X010187Y002431D02*
X010823Y002431D01*
X010835Y002443D02*
X010807Y002415D01*
X010787Y002381D01*
X010777Y002343D01*
X010777Y002019D01*
X011153Y002019D01*
X011153Y002473D01*
X010907Y002473D01*
X010869Y002463D01*
X010835Y002443D01*
X010777Y002333D02*
X010250Y002333D01*
X010250Y002234D02*
X010777Y002234D01*
X010777Y002135D02*
X010250Y002135D01*
X010250Y002037D02*
X010777Y002037D01*
X010777Y001919D02*
X010777Y001595D01*
X010787Y001557D01*
X010807Y001523D01*
X010835Y001495D01*
X010869Y001475D01*
X010907Y001465D01*
X011153Y001465D01*
X011153Y001919D01*
X011253Y001919D01*
X011253Y002019D01*
X011628Y002019D01*
X011628Y002343D01*
X011618Y002381D01*
X011598Y002415D01*
X011570Y002443D01*
X011536Y002463D01*
X011498Y002473D01*
X011253Y002473D01*
X011253Y002019D01*
X011153Y002019D01*
X011153Y001919D01*
X010777Y001919D01*
X010777Y001840D02*
X010250Y001840D01*
X010250Y001938D02*
X011153Y001938D01*
X011153Y001840D02*
X011253Y001840D01*
X011253Y001919D02*
X011253Y001465D01*
X011498Y001465D01*
X011536Y001475D01*
X011570Y001495D01*
X011598Y001523D01*
X011618Y001557D01*
X011628Y001595D01*
X011628Y001919D01*
X011253Y001919D01*
X011253Y001938D02*
X011783Y001938D01*
X011783Y001840D02*
X011628Y001840D01*
X011628Y001741D02*
X011783Y001741D01*
X011783Y001643D02*
X011628Y001643D01*
X011611Y001544D02*
X011783Y001544D01*
X011778Y001446D02*
X010143Y001446D01*
X010155Y001347D02*
X011758Y001347D01*
X011726Y001249D02*
X010155Y001249D01*
X010155Y001150D02*
X011692Y001150D01*
X011620Y001051D02*
X010155Y001051D01*
X010155Y000953D02*
X011549Y000953D01*
X011413Y000854D02*
X010155Y000854D01*
X010143Y000756D02*
X011192Y000756D01*
X011153Y001544D02*
X011253Y001544D01*
X011253Y001643D02*
X011153Y001643D01*
X011153Y001741D02*
X011253Y001741D01*
X011253Y002037D02*
X011153Y002037D01*
X011153Y002135D02*
X011253Y002135D01*
X011253Y002234D02*
X011153Y002234D01*
X011153Y002333D02*
X011253Y002333D01*
X011253Y002431D02*
X011153Y002431D01*
X011583Y002431D02*
X011783Y002431D01*
X011783Y002333D02*
X011628Y002333D01*
X011628Y002234D02*
X011783Y002234D01*
X011783Y002135D02*
X011628Y002135D01*
X011628Y002037D02*
X011783Y002037D01*
X010777Y001741D02*
X010250Y001741D01*
X010250Y001643D02*
X010777Y001643D01*
X010795Y001544D02*
X010225Y001544D01*
X009914Y001544D02*
X009814Y001544D01*
X009814Y001643D02*
X009914Y001643D01*
X009914Y001741D02*
X009814Y001741D01*
X009814Y001840D02*
X009914Y001840D01*
X009914Y001919D02*
X009914Y002019D01*
X009983Y002019D01*
X009983Y001919D01*
X009914Y001919D01*
X009914Y001938D02*
X009983Y001938D01*
X009914Y002037D02*
X009814Y002037D01*
X009814Y002135D02*
X009914Y002135D01*
X009914Y002234D02*
X009814Y002234D01*
X009814Y002333D02*
X009914Y002333D01*
X009914Y002431D02*
X009814Y002431D01*
X009983Y002530D02*
X009431Y002530D01*
X009429Y002628D02*
X009983Y002628D01*
X009983Y002727D02*
X009364Y002727D01*
X009431Y002431D02*
X009484Y002431D01*
X009439Y002333D02*
X009423Y002333D01*
X009439Y002234D02*
X009391Y002234D01*
X009391Y002135D02*
X009439Y002135D01*
X009439Y002037D02*
X009391Y002037D01*
X009365Y001938D02*
X009814Y001938D01*
X009439Y001840D02*
X009391Y001840D01*
X009391Y001741D02*
X009439Y001741D01*
X009439Y001643D02*
X009391Y001643D01*
X009345Y001544D02*
X009456Y001544D01*
X009446Y001347D02*
X009586Y001347D01*
X009580Y001249D02*
X009446Y001249D01*
X009446Y001150D02*
X009580Y001150D01*
X009446Y001051D02*
X009859Y001051D01*
X009859Y001150D02*
X009916Y001150D01*
X009916Y001249D02*
X009859Y001249D01*
X009859Y001347D02*
X009916Y001347D01*
X009916Y001446D02*
X009859Y001446D01*
X009675Y001446D02*
X008843Y001446D01*
X008746Y001544D02*
X008653Y001544D01*
X008533Y001719D02*
X008333Y001519D01*
X008533Y001719D02*
X009019Y001719D01*
X009033Y001733D01*
X008668Y002333D02*
X008658Y002333D01*
X009041Y002530D02*
X009049Y002530D01*
X009041Y002628D02*
X009049Y002628D01*
X009041Y002727D02*
X009049Y002727D01*
X008101Y002825D02*
X007431Y002825D01*
X007480Y002727D02*
X007703Y002727D01*
X007637Y002628D02*
X007480Y002628D01*
X007480Y002530D02*
X007635Y002530D01*
X007635Y002431D02*
X007480Y002431D01*
X007442Y002333D02*
X007644Y002333D01*
X008017Y002333D02*
X008026Y002333D01*
X008017Y002431D02*
X008026Y002431D01*
X008017Y002530D02*
X008026Y002530D01*
X008017Y002628D02*
X008026Y002628D01*
X008017Y002727D02*
X008026Y002727D01*
X008002Y002924D02*
X007378Y002924D01*
X007376Y003022D02*
X007904Y003022D01*
X009446Y000953D02*
X009580Y000953D01*
X009580Y000854D02*
X009446Y000854D01*
X009415Y000756D02*
X009601Y000756D01*
X008943Y000756D02*
X008906Y000756D01*
X008161Y000756D02*
X008124Y000756D01*
X012832Y004106D02*
X012883Y004106D01*
X012883Y004205D02*
X012698Y004205D01*
X012883Y004859D02*
X012883Y004859D01*
X013893Y005869D02*
X013893Y005869D01*
X014001Y005869D02*
X014001Y005869D01*
X012833Y008836D02*
X012787Y008836D01*
X000677Y008639D02*
X000633Y008639D01*
D17*
X006533Y010069D02*
X006533Y011219D01*
X010533Y011219D02*
X010533Y001069D01*
X009888Y001069D02*
X009888Y001943D01*
X009864Y001969D01*
X009883Y002000D01*
X009864Y001969D02*
X009933Y001988D01*
X009045Y002119D02*
X008533Y002119D01*
X007133Y002573D02*
X007133Y002969D01*
X007179Y001069D02*
X006533Y001069D01*
X007888Y001069D02*
X008533Y001069D01*
X009179Y001069D01*
D18*
X009033Y001733D02*
X009045Y001745D01*
X009121Y002469D02*
X009071Y002519D01*
X009045Y002493D01*
D19*
X008533Y001069D03*
X006533Y001069D03*
X004583Y003719D03*
X010533Y001069D03*
X012483Y003769D03*
X012483Y009219D03*
X010533Y011219D03*
X008533Y011219D03*
X006533Y011219D03*
X004583Y009219D03*
D20*
X005683Y009819D03*
X006683Y009819D03*
X007683Y009819D03*
X007683Y008769D03*
X006683Y008769D03*
X007683Y007819D03*
X006333Y003569D03*
X006333Y003169D03*
X005833Y003169D03*
X005833Y003569D03*
X005333Y003569D03*
X005333Y003169D03*
X007133Y002969D03*
X008533Y002119D03*
M02*
