G75*
G70*
%OFA0B0*%
%FSLAX24Y24*%
%IPPOS*%
%LPD*%
%AMOC8*
5,1,8,0,0,1.08239X$1,22.5*
%
%ADD10R,0.0217X0.0472*%
%ADD11C,0.1000*%
%ADD12C,0.0100*%
%ADD13C,0.0270*%
%ADD14C,0.0200*%
%ADD15C,0.0750*%
D10*
X009278Y005995D03*
X010026Y005995D03*
X010026Y007019D03*
X009652Y007019D03*
X009278Y007019D03*
D11*
X002152Y006507D03*
X017152Y006507D03*
D12*
X010026Y006007D02*
X009652Y006007D01*
X010026Y005995D02*
X010026Y006007D01*
X009652Y005557D02*
X009352Y005557D01*
X009278Y005631D01*
X009278Y005995D01*
X009278Y007019D02*
X007914Y007019D01*
X007102Y006207D01*
X007102Y005057D01*
D13*
X007102Y005057D03*
X009652Y005557D03*
X009652Y006007D03*
X010602Y002357D03*
X010602Y001807D03*
D14*
X002173Y003263D02*
X002025Y003311D01*
X001898Y003403D01*
X001806Y003530D01*
X001758Y003679D01*
X001752Y003757D01*
X001752Y005932D01*
X001762Y005924D01*
X001841Y005878D01*
X001926Y005843D01*
X002015Y005819D01*
X002102Y005807D01*
X002102Y006457D01*
X002202Y006457D01*
X002202Y006557D01*
X002851Y006557D01*
X002840Y006644D01*
X002816Y006732D01*
X002781Y006817D01*
X002735Y006897D01*
X002679Y006969D01*
X002614Y007034D01*
X002541Y007090D01*
X002462Y007136D01*
X002377Y007171D01*
X002289Y007195D01*
X002202Y007206D01*
X002202Y006557D01*
X002102Y006557D01*
X002102Y007206D01*
X002015Y007195D01*
X001926Y007171D01*
X001841Y007136D01*
X001762Y007090D01*
X001752Y007082D01*
X001752Y009207D01*
X001752Y009257D01*
X001758Y009335D01*
X001806Y009484D01*
X001898Y009610D01*
X002025Y009702D01*
X002174Y009751D01*
X002252Y009757D01*
X004451Y009757D01*
X004451Y009757D01*
X004560Y009757D01*
X004560Y009757D01*
X004861Y009855D01*
X004861Y009855D01*
X005118Y010041D01*
X005304Y010297D01*
X005304Y010297D01*
X005353Y010449D01*
X005449Y010353D01*
X005645Y010272D01*
X005858Y010272D01*
X006055Y010353D01*
X006205Y010504D01*
X006287Y010700D01*
X006287Y010913D01*
X006206Y011107D01*
X007197Y011107D01*
X007117Y010913D01*
X007117Y010700D01*
X007198Y010504D01*
X007349Y010353D01*
X007545Y010272D01*
X007758Y010272D01*
X007955Y010353D01*
X008105Y010504D01*
X008187Y010700D01*
X008187Y010913D01*
X008106Y011107D01*
X010002Y011107D01*
X010002Y007415D01*
X009883Y007415D01*
X009883Y007415D01*
X009837Y007441D01*
X009786Y007455D01*
X009652Y007455D01*
X009652Y007019D01*
X009651Y007019D01*
X009651Y007455D01*
X009517Y007455D01*
X009466Y007441D01*
X009421Y007415D01*
X009421Y007415D01*
X009103Y007415D01*
X009009Y007321D01*
X009009Y007229D01*
X008001Y007229D01*
X007827Y007229D01*
X007015Y006417D01*
X006892Y006294D01*
X006892Y005264D01*
X006852Y005224D01*
X006807Y005116D01*
X006807Y004998D01*
X006852Y004890D01*
X006935Y004807D01*
X007043Y004762D01*
X007160Y004762D01*
X007269Y004807D01*
X007352Y004890D01*
X007397Y004998D01*
X007397Y005116D01*
X007352Y005224D01*
X007312Y005264D01*
X007312Y006120D01*
X008001Y006809D01*
X009009Y006809D01*
X009009Y006716D01*
X009103Y006623D01*
X009421Y006623D01*
X009421Y006623D01*
X009466Y006596D01*
X009517Y006583D01*
X009651Y006583D01*
X009651Y007018D01*
X009652Y007018D01*
X009652Y006583D01*
X009752Y006583D01*
X009752Y006557D01*
X010002Y006557D01*
X010002Y006391D01*
X009851Y006391D01*
X009757Y006298D01*
X009757Y006282D01*
X009710Y006302D01*
X009593Y006302D01*
X009546Y006282D01*
X009546Y006298D01*
X009452Y006391D01*
X009103Y006391D01*
X009009Y006298D01*
X009009Y005693D01*
X009068Y005634D01*
X009068Y005544D01*
X009142Y005470D01*
X009265Y005347D01*
X009445Y005347D01*
X009485Y005307D01*
X009593Y005262D01*
X009710Y005262D01*
X009819Y005307D01*
X009902Y005390D01*
X009947Y005498D01*
X009947Y005599D01*
X010002Y005599D01*
X010002Y001057D01*
X008106Y001057D01*
X008187Y001250D01*
X008187Y001463D01*
X008105Y001660D01*
X007955Y001810D01*
X007758Y001892D01*
X007545Y001892D01*
X007349Y001810D01*
X007198Y001660D01*
X007117Y001463D01*
X007117Y001250D01*
X007197Y001057D01*
X006206Y001057D01*
X006287Y001250D01*
X006287Y001463D01*
X006205Y001660D01*
X006055Y001810D01*
X005858Y001892D01*
X005645Y001892D01*
X005449Y001810D01*
X005402Y001763D01*
X005402Y002207D01*
X005402Y002214D01*
X005402Y002307D01*
X005402Y002415D01*
X005402Y002415D01*
X005304Y002716D01*
X005304Y002717D01*
X005118Y002973D01*
X005118Y002973D01*
X005118Y002973D01*
X004861Y003159D01*
X004560Y003257D01*
X004451Y003257D01*
X002301Y003257D01*
X002252Y003257D01*
X002173Y003263D01*
X001931Y003379D02*
X010002Y003379D01*
X010002Y003181D02*
X004794Y003181D01*
X004861Y003159D02*
X004861Y003159D01*
X005105Y002982D02*
X010002Y002982D01*
X010262Y002982D02*
X014160Y002982D01*
X014140Y002968D02*
X014140Y002968D01*
X014140Y002968D01*
X013951Y002710D01*
X013852Y002406D01*
X013852Y002250D01*
X013852Y001812D01*
X013658Y001892D01*
X013445Y001892D01*
X013249Y001810D01*
X013098Y001660D01*
X013017Y001463D01*
X013017Y001250D01*
X013097Y001057D01*
X012106Y001057D01*
X012187Y001250D01*
X012187Y001463D01*
X012105Y001660D01*
X011955Y001810D01*
X011758Y001892D01*
X011545Y001892D01*
X011349Y001810D01*
X011198Y001660D01*
X011117Y001463D01*
X011117Y001250D01*
X011197Y001057D01*
X010262Y001057D01*
X010262Y005660D01*
X010294Y005693D01*
X010294Y006298D01*
X010262Y006330D01*
X010262Y006609D01*
X010256Y006622D01*
X010257Y006623D01*
X010294Y006660D01*
X010320Y006705D01*
X010334Y006756D01*
X010334Y007019D01*
X010334Y007281D01*
X010320Y007332D01*
X010294Y007378D01*
X010262Y007410D01*
X010262Y007459D01*
X010262Y011107D01*
X011197Y011107D01*
X011117Y010913D01*
X011117Y010700D01*
X011198Y010504D01*
X011349Y010353D01*
X011545Y010272D01*
X011758Y010272D01*
X011955Y010353D01*
X012105Y010504D01*
X012187Y010700D01*
X012187Y010913D01*
X012106Y011107D01*
X013097Y011107D01*
X013017Y010913D01*
X013017Y010700D01*
X013098Y010504D01*
X013249Y010353D01*
X013445Y010272D01*
X013658Y010272D01*
X013855Y010353D01*
X013910Y010408D01*
X014001Y010185D01*
X014278Y009904D01*
X014278Y009904D01*
X014641Y009750D01*
X014838Y009747D01*
X014881Y009746D01*
X017009Y009718D01*
X017009Y009718D01*
X017058Y009717D01*
X017155Y009706D01*
X017333Y009630D01*
X017469Y009493D01*
X017542Y009314D01*
X017552Y009217D01*
X017552Y007082D01*
X017541Y007090D01*
X017462Y007136D01*
X017377Y007171D01*
X017289Y007195D01*
X017202Y007206D01*
X017202Y006557D01*
X017102Y006557D01*
X017102Y007206D01*
X017015Y007195D01*
X016926Y007171D01*
X016841Y007136D01*
X016762Y007090D01*
X016689Y007034D01*
X016624Y006969D01*
X016568Y006897D01*
X016523Y006817D01*
X016487Y006732D01*
X016464Y006644D01*
X016452Y006557D01*
X017101Y006557D01*
X017101Y006457D01*
X016452Y006457D01*
X016464Y006370D01*
X016487Y006281D01*
X016523Y006197D01*
X016568Y006117D01*
X016624Y006044D01*
X016689Y005979D01*
X016762Y005924D01*
X016841Y005878D01*
X016926Y005843D01*
X017015Y005819D01*
X017102Y005807D01*
X017102Y006457D01*
X017202Y006457D01*
X017202Y005807D01*
X017289Y005819D01*
X017377Y005843D01*
X017462Y005878D01*
X017541Y005924D01*
X017552Y005932D01*
X017552Y004465D01*
X017451Y004507D01*
X017252Y004507D01*
X017069Y004431D01*
X016928Y004290D01*
X016852Y004106D01*
X016852Y003907D01*
X016928Y003724D01*
X017069Y003583D01*
X017252Y003507D01*
X017451Y003507D01*
X017511Y003532D01*
X017496Y003488D01*
X017403Y003361D01*
X017274Y003269D01*
X017124Y003222D01*
X017045Y003217D01*
X014869Y003246D01*
X014866Y003247D01*
X014706Y003249D01*
X014706Y003249D01*
X014400Y003154D01*
X014140Y002968D01*
X014005Y002784D02*
X010262Y002784D01*
X010262Y002585D02*
X013910Y002585D01*
X013951Y002710D02*
X013951Y002710D01*
X013852Y002406D02*
X013852Y002406D01*
X013852Y002387D02*
X010262Y002387D01*
X010262Y002188D02*
X013852Y002188D01*
X013852Y001989D02*
X010262Y001989D01*
X010262Y001791D02*
X011329Y001791D01*
X011170Y001592D02*
X010262Y001592D01*
X010262Y001394D02*
X011117Y001394D01*
X011140Y001195D02*
X010262Y001195D01*
X010002Y001195D02*
X008164Y001195D01*
X008187Y001394D02*
X010002Y001394D01*
X010002Y001592D02*
X008133Y001592D01*
X007974Y001791D02*
X010002Y001791D01*
X010002Y001989D02*
X005402Y001989D01*
X005402Y001791D02*
X005429Y001791D01*
X005402Y002188D02*
X010002Y002188D01*
X010002Y002387D02*
X005402Y002387D01*
X005402Y002307D02*
X005402Y002307D01*
X005346Y002585D02*
X010002Y002585D01*
X010002Y002784D02*
X005255Y002784D01*
X004451Y003257D02*
X004451Y003257D01*
X006074Y001791D02*
X007329Y001791D01*
X007170Y001592D02*
X006233Y001592D01*
X006287Y001394D02*
X007117Y001394D01*
X007140Y001195D02*
X006264Y001195D01*
X010002Y003578D02*
X001791Y003578D01*
X001752Y003776D02*
X010002Y003776D01*
X010262Y003776D02*
X016906Y003776D01*
X017081Y003578D02*
X010262Y003578D01*
X010262Y003379D02*
X017416Y003379D01*
X016852Y003975D02*
X010262Y003975D01*
X010262Y004173D02*
X016880Y004173D01*
X017010Y004372D02*
X010262Y004372D01*
X010002Y004372D02*
X001752Y004372D01*
X001752Y004571D02*
X010002Y004571D01*
X010002Y004769D02*
X007178Y004769D01*
X007026Y004769D02*
X001752Y004769D01*
X001752Y004968D02*
X006819Y004968D01*
X006828Y005166D02*
X001752Y005166D01*
X001752Y005365D02*
X006892Y005365D01*
X006892Y005563D02*
X001752Y005563D01*
X001752Y005762D02*
X006892Y005762D01*
X006892Y005960D02*
X002589Y005960D01*
X002614Y005979D02*
X002679Y006044D01*
X002735Y006117D01*
X002781Y006197D01*
X002816Y006281D01*
X002840Y006370D01*
X002851Y006457D01*
X002202Y006457D01*
X002202Y005807D01*
X002289Y005819D01*
X002377Y005843D01*
X002462Y005878D01*
X002541Y005924D01*
X002614Y005979D01*
X002759Y006159D02*
X006892Y006159D01*
X006955Y006357D02*
X002836Y006357D01*
X002807Y006754D02*
X007352Y006754D01*
X007154Y006556D02*
X002202Y006556D01*
X002202Y006357D02*
X002102Y006357D01*
X002102Y006159D02*
X002202Y006159D01*
X002202Y005960D02*
X002102Y005960D01*
X002102Y006754D02*
X002202Y006754D01*
X002202Y006953D02*
X002102Y006953D01*
X002102Y007152D02*
X002202Y007152D01*
X001879Y007152D02*
X001752Y007152D01*
X001752Y007350D02*
X009038Y007350D01*
X009651Y007350D02*
X009652Y007350D01*
X009651Y007152D02*
X009652Y007152D01*
X009651Y006953D02*
X009652Y006953D01*
X009651Y006754D02*
X009652Y006754D01*
X010002Y006556D02*
X007748Y006556D01*
X007549Y006357D02*
X009069Y006357D01*
X009009Y006159D02*
X007351Y006159D01*
X007312Y005960D02*
X009009Y005960D01*
X009009Y005762D02*
X007312Y005762D01*
X007312Y005563D02*
X009068Y005563D01*
X009247Y005365D02*
X007312Y005365D01*
X007376Y005166D02*
X010002Y005166D01*
X010002Y004968D02*
X007384Y004968D01*
X009486Y006357D02*
X009817Y006357D01*
X010262Y006357D02*
X016467Y006357D01*
X016544Y006159D02*
X010294Y006159D01*
X010294Y005960D02*
X016714Y005960D01*
X017102Y005960D02*
X017202Y005960D01*
X017202Y006159D02*
X017102Y006159D01*
X017102Y006357D02*
X017202Y006357D01*
X017101Y006556D02*
X010262Y006556D01*
X010334Y006754D02*
X016497Y006754D01*
X016612Y006953D02*
X010334Y006953D01*
X010334Y007019D02*
X010026Y007019D01*
X010334Y007019D01*
X010334Y007152D02*
X016879Y007152D01*
X017102Y007152D02*
X017202Y007152D01*
X017425Y007152D02*
X017552Y007152D01*
X017552Y007350D02*
X010310Y007350D01*
X010262Y007549D02*
X017552Y007549D01*
X017552Y007747D02*
X010262Y007747D01*
X010262Y007946D02*
X017552Y007946D01*
X017552Y008144D02*
X010262Y008144D01*
X010262Y008343D02*
X017552Y008343D01*
X017552Y008541D02*
X010262Y008541D01*
X010002Y008541D02*
X001752Y008541D01*
X001752Y008343D02*
X010002Y008343D01*
X010002Y008144D02*
X001752Y008144D01*
X001752Y007946D02*
X010002Y007946D01*
X010002Y007747D02*
X001752Y007747D01*
X001752Y007549D02*
X010002Y007549D01*
X010026Y007019D02*
X010026Y007019D01*
X009009Y006754D02*
X007946Y006754D01*
X007551Y006953D02*
X002692Y006953D01*
X002425Y007152D02*
X007749Y007152D01*
X009947Y005563D02*
X010002Y005563D01*
X010002Y005365D02*
X009877Y005365D01*
X010262Y005365D02*
X017552Y005365D01*
X017552Y005563D02*
X010262Y005563D01*
X010294Y005762D02*
X017552Y005762D01*
X017552Y005166D02*
X010262Y005166D01*
X010262Y004968D02*
X017552Y004968D01*
X017552Y004769D02*
X010262Y004769D01*
X010262Y004571D02*
X017552Y004571D01*
X017202Y006754D02*
X017102Y006754D01*
X017102Y006953D02*
X017202Y006953D01*
X017552Y008740D02*
X010262Y008740D01*
X010262Y008938D02*
X017552Y008938D01*
X017552Y009137D02*
X010262Y009137D01*
X010262Y009336D02*
X017533Y009336D01*
X017428Y009534D02*
X010262Y009534D01*
X010262Y009733D02*
X015901Y009733D01*
X014252Y009931D02*
X010262Y009931D01*
X010002Y009931D02*
X004966Y009931D01*
X005118Y010041D02*
X005118Y010041D01*
X005118Y010041D01*
X005182Y010130D02*
X010002Y010130D01*
X010002Y010328D02*
X007894Y010328D01*
X008115Y010527D02*
X010002Y010527D01*
X010002Y010725D02*
X008187Y010725D01*
X008182Y010924D02*
X010002Y010924D01*
X010262Y010924D02*
X011121Y010924D01*
X011117Y010725D02*
X010262Y010725D01*
X010262Y010527D02*
X011189Y010527D01*
X011409Y010328D02*
X010262Y010328D01*
X010262Y010130D02*
X014056Y010130D01*
X014001Y010185D02*
X014001Y010185D01*
X013943Y010328D02*
X013794Y010328D01*
X013309Y010328D02*
X011894Y010328D01*
X012115Y010527D02*
X013089Y010527D01*
X013017Y010725D02*
X012187Y010725D01*
X012182Y010924D02*
X013021Y010924D01*
X010002Y009733D02*
X002118Y009733D01*
X001843Y009534D02*
X010002Y009534D01*
X010002Y009336D02*
X001758Y009336D01*
X001752Y009137D02*
X010002Y009137D01*
X010002Y008938D02*
X001752Y008938D01*
X001752Y008740D02*
X010002Y008740D01*
X007409Y010328D02*
X005994Y010328D01*
X006215Y010527D02*
X007189Y010527D01*
X007117Y010725D02*
X006287Y010725D01*
X006282Y010924D02*
X007121Y010924D01*
X005509Y010328D02*
X005314Y010328D01*
X001752Y004173D02*
X010002Y004173D01*
X010002Y003975D02*
X001752Y003975D01*
X010262Y003181D02*
X014487Y003181D01*
X014400Y003154D02*
X014400Y003154D01*
X013229Y001791D02*
X011974Y001791D01*
X012133Y001592D02*
X013070Y001592D01*
X013017Y001394D02*
X012187Y001394D01*
X012164Y001195D02*
X013040Y001195D01*
D15*
X013552Y001357D03*
X011652Y001357D03*
X009652Y001357D03*
X007652Y001357D03*
X005752Y001357D03*
X005752Y010807D03*
X007652Y010807D03*
X009652Y010807D03*
X011652Y010807D03*
X013552Y010807D03*
M02*
