G75*
G70*
%OFA0B0*%
%FSLAX24Y24*%
%IPPOS*%
%LPD*%
%AMOC8*
5,1,8,0,0,1.08239X$1,22.5*
%
%ADD10C,0.1000*%
%ADD11C,0.0750*%
%ADD12C,0.0100*%
%ADD13C,0.0270*%
%ADD14C,0.0200*%
D10*
X001133Y006519D03*
X016133Y006519D03*
D11*
X012483Y003769D03*
X010533Y001069D03*
X008533Y001069D03*
X006533Y001069D03*
X004583Y003719D03*
X004583Y009219D03*
X006533Y011219D03*
X008533Y011219D03*
X010533Y011219D03*
X012483Y009219D03*
D12*
X004858Y003308D02*
X004804Y003285D01*
X004980Y003212D01*
X004980Y003212D01*
X005177Y003015D01*
X005177Y003015D01*
X005283Y002758D01*
X005283Y002758D01*
X005283Y002702D01*
X005283Y002562D01*
X005283Y002536D01*
X005283Y001602D01*
X005283Y001519D01*
X005293Y001394D01*
X005371Y001156D01*
X005518Y000953D01*
X007673Y000953D01*
X007673Y001051D02*
X005446Y001051D01*
X005518Y000953D02*
X005720Y000806D01*
X005958Y000729D01*
X006083Y000719D01*
X006166Y000719D01*
X007673Y000719D01*
X007673Y002509D01*
X006846Y002509D01*
X006723Y002632D01*
X006723Y002806D01*
X006723Y003956D01*
X006846Y004079D01*
X007923Y005156D01*
X007923Y011569D01*
X006083Y011569D01*
X005958Y011559D01*
X005720Y011482D01*
X005518Y011335D01*
X005371Y011132D01*
X005293Y010894D01*
X005283Y010769D01*
X005283Y010586D01*
X005293Y010573D01*
X005283Y010505D01*
X005283Y010436D01*
X005272Y010425D01*
X005257Y010321D01*
X005257Y010321D01*
X005106Y010013D01*
X005106Y010012D01*
X004867Y009766D01*
X004867Y009766D01*
X004719Y009688D01*
X004858Y009630D01*
X004995Y009494D01*
X005068Y009315D01*
X005068Y009122D01*
X004995Y008944D01*
X004858Y008808D01*
X004680Y008734D01*
X004487Y008734D01*
X004309Y008808D01*
X004172Y008944D01*
X004098Y009122D01*
X004098Y009315D01*
X004172Y009494D01*
X004225Y009547D01*
X004225Y009547D01*
X004225Y009547D01*
X004069Y009569D01*
X001516Y009569D01*
X001433Y009569D01*
X001308Y009559D01*
X001070Y009482D01*
X001042Y009461D01*
X001188Y009400D01*
X001315Y009274D01*
X001383Y009108D01*
X001383Y008929D01*
X001315Y008764D01*
X001188Y008637D01*
X001023Y008569D01*
X000844Y008569D01*
X000678Y008637D01*
X000633Y008683D01*
X000633Y006882D01*
X000788Y007036D01*
X001012Y007129D01*
X001255Y007129D01*
X001479Y007036D01*
X001650Y006864D01*
X001743Y006640D01*
X001743Y006398D01*
X001650Y006173D01*
X001479Y006002D01*
X001399Y005969D01*
X003616Y005969D01*
X003673Y005969D01*
X003930Y005862D01*
X004127Y005665D01*
X004127Y005665D01*
X004233Y005408D01*
X004233Y005408D01*
X004233Y005352D01*
X004233Y005200D01*
X004233Y005186D01*
X004233Y004055D01*
X004309Y004130D01*
X004487Y004204D01*
X004680Y004204D01*
X004858Y004130D01*
X004995Y003994D01*
X005068Y003815D01*
X005068Y003622D01*
X004995Y003444D01*
X004858Y003308D01*
X004868Y003318D02*
X006723Y003318D01*
X006723Y003219D02*
X004963Y003219D01*
X005071Y003121D02*
X006723Y003121D01*
X006723Y003022D02*
X005170Y003022D01*
X005215Y002924D02*
X006723Y002924D01*
X006723Y002825D02*
X005256Y002825D01*
X005283Y002727D02*
X006723Y002727D01*
X006727Y002628D02*
X005283Y002628D01*
X005283Y002530D02*
X006826Y002530D01*
X007673Y002431D02*
X005283Y002431D01*
X005283Y002333D02*
X007673Y002333D01*
X007673Y002234D02*
X005283Y002234D01*
X005283Y002135D02*
X007673Y002135D01*
X007673Y002037D02*
X005283Y002037D01*
X005283Y001938D02*
X007673Y001938D01*
X007673Y001840D02*
X005283Y001840D01*
X005283Y001741D02*
X007673Y001741D01*
X007673Y001643D02*
X005283Y001643D01*
X005283Y001544D02*
X007673Y001544D01*
X007673Y001446D02*
X005289Y001446D01*
X005308Y001347D02*
X007673Y001347D01*
X007673Y001249D02*
X005340Y001249D01*
X005375Y001150D02*
X007673Y001150D01*
X007673Y000854D02*
X005654Y000854D01*
X005875Y000756D02*
X007673Y000756D01*
X006723Y003417D02*
X004967Y003417D01*
X005024Y003515D02*
X006723Y003515D01*
X006723Y003614D02*
X005065Y003614D01*
X005068Y003712D02*
X006723Y003712D01*
X006723Y003811D02*
X005068Y003811D01*
X005030Y003909D02*
X006723Y003909D01*
X006775Y004008D02*
X004980Y004008D01*
X004882Y004106D02*
X006874Y004106D01*
X006972Y004205D02*
X004233Y004205D01*
X004233Y004303D02*
X007071Y004303D01*
X007169Y004402D02*
X004233Y004402D01*
X004233Y004501D02*
X007268Y004501D01*
X007366Y004599D02*
X004233Y004599D01*
X004233Y004698D02*
X007465Y004698D01*
X007564Y004796D02*
X004233Y004796D01*
X004233Y004895D02*
X007662Y004895D01*
X007761Y004993D02*
X004233Y004993D01*
X004233Y005092D02*
X007859Y005092D01*
X007923Y005190D02*
X004233Y005190D01*
X004233Y005289D02*
X007923Y005289D01*
X007923Y005387D02*
X004233Y005387D01*
X004201Y005486D02*
X007923Y005486D01*
X007923Y005584D02*
X004160Y005584D01*
X004109Y005683D02*
X007923Y005683D01*
X007923Y005782D02*
X004011Y005782D01*
X003887Y005880D02*
X007923Y005880D01*
X007923Y005979D02*
X001423Y005979D01*
X001554Y006077D02*
X007923Y006077D01*
X007923Y006176D02*
X001651Y006176D01*
X001692Y006274D02*
X007923Y006274D01*
X007923Y006373D02*
X001733Y006373D01*
X001743Y006471D02*
X007923Y006471D01*
X007923Y006570D02*
X001743Y006570D01*
X001732Y006668D02*
X007923Y006668D01*
X007923Y006767D02*
X001691Y006767D01*
X001649Y006866D02*
X007923Y006866D01*
X007923Y006964D02*
X001551Y006964D01*
X001415Y007063D02*
X007923Y007063D01*
X007923Y007161D02*
X000633Y007161D01*
X000633Y007063D02*
X000852Y007063D01*
X000716Y006964D02*
X000633Y006964D01*
X000633Y007260D02*
X007923Y007260D01*
X007923Y007358D02*
X000633Y007358D01*
X000633Y007457D02*
X007923Y007457D01*
X007923Y007555D02*
X000633Y007555D01*
X000633Y007654D02*
X007923Y007654D01*
X007923Y007752D02*
X000633Y007752D01*
X000633Y007851D02*
X007923Y007851D01*
X007923Y007950D02*
X000633Y007950D01*
X000633Y008048D02*
X007923Y008048D01*
X007923Y008147D02*
X000633Y008147D01*
X000633Y008245D02*
X007923Y008245D01*
X007923Y008344D02*
X000633Y008344D01*
X000633Y008442D02*
X007923Y008442D01*
X007923Y008541D02*
X000633Y008541D01*
X000633Y008639D02*
X000677Y008639D01*
X001190Y008639D02*
X007923Y008639D01*
X007923Y008738D02*
X004689Y008738D01*
X004887Y008836D02*
X007923Y008836D01*
X007923Y008935D02*
X004985Y008935D01*
X005031Y009034D02*
X007923Y009034D01*
X007923Y009132D02*
X005068Y009132D01*
X005068Y009231D02*
X007923Y009231D01*
X007923Y009329D02*
X005063Y009329D01*
X005022Y009428D02*
X007923Y009428D01*
X007923Y009526D02*
X004962Y009526D01*
X004863Y009625D02*
X007923Y009625D01*
X007923Y009723D02*
X004786Y009723D01*
X004921Y009822D02*
X007923Y009822D01*
X007923Y009920D02*
X005016Y009920D01*
X005109Y010019D02*
X007923Y010019D01*
X007923Y010117D02*
X005157Y010117D01*
X005206Y010216D02*
X007923Y010216D01*
X007923Y010315D02*
X005254Y010315D01*
X005270Y010413D02*
X007923Y010413D01*
X007923Y010512D02*
X005284Y010512D01*
X005283Y010610D02*
X007923Y010610D01*
X007923Y010709D02*
X005283Y010709D01*
X005286Y010807D02*
X007923Y010807D01*
X007923Y010906D02*
X005297Y010906D01*
X005329Y011004D02*
X007923Y011004D01*
X007923Y011103D02*
X005361Y011103D01*
X005421Y011201D02*
X007923Y011201D01*
X007923Y011300D02*
X005492Y011300D01*
X005606Y011399D02*
X007923Y011399D01*
X007923Y011497D02*
X005767Y011497D01*
X004205Y009526D02*
X001207Y009526D01*
X001122Y009428D02*
X004145Y009428D01*
X004104Y009329D02*
X001260Y009329D01*
X001333Y009231D02*
X004098Y009231D01*
X004098Y009132D02*
X001374Y009132D01*
X001383Y009034D02*
X004135Y009034D01*
X004181Y008935D02*
X001383Y008935D01*
X001345Y008836D02*
X004280Y008836D01*
X004477Y008738D02*
X001289Y008738D01*
X004233Y004106D02*
X004285Y004106D01*
D13*
X005333Y003569D03*
X005333Y003169D03*
X005833Y003169D03*
X005833Y003569D03*
X006333Y003569D03*
X006333Y003169D03*
X007133Y002969D03*
X008533Y002119D03*
X007683Y007819D03*
X007683Y008769D03*
X006683Y008769D03*
X006683Y009819D03*
X005683Y009819D03*
X007683Y009819D03*
D14*
X008133Y009796D02*
X011896Y009796D01*
X011848Y009844D02*
X012059Y009633D01*
X012117Y009609D01*
X012030Y009522D01*
X011948Y009325D01*
X011948Y009113D01*
X012030Y008916D01*
X012180Y008765D01*
X012377Y008684D01*
X012590Y008684D01*
X012783Y008764D01*
X012783Y008365D01*
X012782Y008362D01*
X012783Y008316D01*
X012783Y008269D01*
X012785Y008266D01*
X012788Y008119D01*
X012918Y007753D01*
X012918Y007753D01*
X013154Y007445D01*
X013154Y007445D01*
X013474Y007225D01*
X013846Y007114D01*
X014037Y007119D01*
X015773Y007119D01*
X015744Y007102D01*
X015671Y007046D01*
X015606Y006981D01*
X015550Y006909D01*
X015504Y006829D01*
X015469Y006744D01*
X015445Y006656D01*
X015434Y006569D01*
X016083Y006569D01*
X016083Y006469D01*
X015434Y006469D01*
X015445Y006382D01*
X015469Y006293D01*
X015504Y006209D01*
X015550Y006129D01*
X015606Y006056D01*
X015671Y005992D01*
X015744Y005936D01*
X015773Y005919D01*
X014133Y005919D01*
X014122Y005919D01*
X014034Y005919D01*
X013885Y005919D01*
X013509Y005797D01*
X013509Y005797D01*
X013189Y005564D01*
X013189Y005564D01*
X013189Y005564D01*
X012956Y005244D01*
X012956Y005243D01*
X012833Y004867D01*
X012833Y004719D01*
X012833Y004175D01*
X012786Y004222D01*
X012590Y004304D01*
X012377Y004304D01*
X012180Y004222D01*
X012030Y004072D01*
X011948Y003875D01*
X011948Y003663D01*
X012030Y003466D01*
X012117Y003379D01*
X012059Y003355D01*
X012059Y003355D01*
X011848Y003144D01*
X011848Y003144D01*
X011848Y003144D01*
X011733Y002868D01*
X011733Y002769D01*
X011733Y001569D01*
X011733Y001519D01*
X011724Y001402D01*
X011652Y001178D01*
X011514Y000989D01*
X011324Y000851D01*
X011101Y000778D01*
X010988Y000769D01*
X011068Y000963D01*
X011068Y001175D01*
X010987Y001372D01*
X010836Y001522D01*
X010640Y001604D01*
X010427Y001604D01*
X010230Y001522D01*
X010080Y001372D01*
X009998Y001175D01*
X009998Y000963D01*
X010079Y000769D01*
X008133Y000769D01*
X008133Y011519D01*
X010079Y011519D01*
X009998Y011325D01*
X009998Y011113D01*
X010080Y010916D01*
X010230Y010765D01*
X010427Y010684D01*
X010640Y010684D01*
X010836Y010765D01*
X010987Y010916D01*
X011068Y011113D01*
X011068Y011325D01*
X010988Y011519D01*
X011101Y011510D01*
X011324Y011437D01*
X011514Y011299D01*
X011652Y011109D01*
X011724Y010886D01*
X011733Y010769D01*
X011733Y010319D01*
X011733Y010304D01*
X011733Y010219D01*
X011733Y010120D01*
X011848Y009844D01*
X011848Y009844D01*
X011785Y009995D02*
X008133Y009995D01*
X008133Y010193D02*
X011733Y010193D01*
X011733Y010120D02*
X011733Y010120D01*
X011733Y010392D02*
X008133Y010392D01*
X008133Y010590D02*
X011733Y010590D01*
X011732Y010789D02*
X010860Y010789D01*
X011016Y010987D02*
X011691Y010987D01*
X011596Y011186D02*
X011068Y011186D01*
X011044Y011384D02*
X011396Y011384D01*
X010207Y010789D02*
X008133Y010789D01*
X008133Y010987D02*
X010050Y010987D01*
X009998Y011186D02*
X008133Y011186D01*
X008133Y011384D02*
X010023Y011384D01*
X008133Y009598D02*
X012105Y009598D01*
X012059Y009633D02*
X012059Y009633D01*
X011979Y009399D02*
X008133Y009399D01*
X008133Y009201D02*
X011948Y009201D01*
X011994Y009002D02*
X008133Y009002D01*
X008133Y008803D02*
X012142Y008803D01*
X012783Y008605D02*
X008133Y008605D01*
X008133Y008406D02*
X012783Y008406D01*
X012786Y008208D02*
X008133Y008208D01*
X008133Y008009D02*
X012827Y008009D01*
X012788Y008119D02*
X012788Y008119D01*
X012897Y007811D02*
X008133Y007811D01*
X008333Y007719D02*
X010233Y005819D01*
X010233Y005219D01*
X009133Y004119D01*
X009133Y000769D01*
X007883Y000769D01*
X007883Y002719D01*
X006933Y002719D01*
X006933Y003869D01*
X008333Y005269D01*
X008333Y007719D01*
X008333Y007612D02*
X008440Y007612D01*
X008333Y007414D02*
X008639Y007414D01*
X008837Y007215D02*
X008333Y007215D01*
X008133Y007215D02*
X013506Y007215D01*
X013474Y007225D02*
X013474Y007225D01*
X013199Y007414D02*
X008133Y007414D01*
X008133Y007612D02*
X013025Y007612D01*
X013154Y007445D02*
X013154Y007445D01*
X013846Y007114D02*
X013846Y007114D01*
X015441Y006619D02*
X008133Y006619D01*
X008333Y006619D02*
X009433Y006619D01*
X009631Y006421D02*
X008333Y006421D01*
X008333Y006222D02*
X009830Y006222D01*
X010029Y006024D02*
X008333Y006024D01*
X008333Y005825D02*
X010227Y005825D01*
X010233Y005627D02*
X008333Y005627D01*
X008133Y005627D02*
X013275Y005627D01*
X013090Y005428D02*
X008133Y005428D01*
X008133Y005230D02*
X012951Y005230D01*
X012887Y005031D02*
X008133Y005031D01*
X008096Y005031D02*
X010046Y005031D01*
X010233Y005230D02*
X008294Y005230D01*
X008333Y005428D02*
X010233Y005428D01*
X009847Y004833D02*
X007897Y004833D01*
X007698Y004634D02*
X009648Y004634D01*
X009450Y004435D02*
X007500Y004435D01*
X007301Y004237D02*
X009251Y004237D01*
X009133Y004038D02*
X007103Y004038D01*
X006933Y003840D02*
X009133Y003840D01*
X009133Y003641D02*
X006933Y003641D01*
X006933Y003443D02*
X009133Y003443D01*
X009133Y003244D02*
X006933Y003244D01*
X006933Y003046D02*
X009133Y003046D01*
X009133Y002847D02*
X006933Y002847D01*
X007133Y002969D02*
X007133Y003119D01*
X007883Y002649D02*
X009133Y002649D01*
X009133Y002450D02*
X007883Y002450D01*
X007883Y002251D02*
X009133Y002251D01*
X009133Y002053D02*
X007883Y002053D01*
X007883Y001854D02*
X009133Y001854D01*
X009133Y001656D02*
X007883Y001656D01*
X007883Y001457D02*
X009133Y001457D01*
X009133Y001259D02*
X007883Y001259D01*
X007883Y001060D02*
X009133Y001060D01*
X009133Y000862D02*
X007883Y000862D01*
X008133Y000862D02*
X010040Y000862D01*
X009998Y001060D02*
X008133Y001060D01*
X008133Y001259D02*
X010033Y001259D01*
X010165Y001457D02*
X008133Y001457D01*
X008133Y001656D02*
X011733Y001656D01*
X011729Y001457D02*
X010902Y001457D01*
X011034Y001259D02*
X011678Y001259D01*
X011566Y001060D02*
X011068Y001060D01*
X011027Y000862D02*
X011339Y000862D01*
X011733Y001854D02*
X008133Y001854D01*
X008133Y002053D02*
X011733Y002053D01*
X011733Y002251D02*
X008133Y002251D01*
X008133Y002450D02*
X011733Y002450D01*
X011733Y002649D02*
X008133Y002649D01*
X008133Y002847D02*
X011733Y002847D01*
X011733Y002868D02*
X011733Y002868D01*
X011807Y003046D02*
X008133Y003046D01*
X008133Y003244D02*
X011948Y003244D01*
X012053Y003443D02*
X008133Y003443D01*
X008133Y003641D02*
X011957Y003641D01*
X011948Y003840D02*
X008133Y003840D01*
X008133Y004038D02*
X012016Y004038D01*
X012215Y004237D02*
X008133Y004237D01*
X008133Y004435D02*
X012833Y004435D01*
X012833Y004237D02*
X012752Y004237D01*
X012833Y004634D02*
X008133Y004634D01*
X008133Y004833D02*
X012833Y004833D01*
X012833Y004867D02*
X012833Y004867D01*
X012833Y004719D02*
X012833Y004719D01*
X013597Y005825D02*
X008133Y005825D01*
X008133Y006024D02*
X015639Y006024D01*
X015499Y006222D02*
X008133Y006222D01*
X008133Y006421D02*
X015440Y006421D01*
X015500Y006818D02*
X008133Y006818D01*
X008133Y007017D02*
X015641Y007017D01*
X014034Y005919D02*
X014034Y005919D01*
X013885Y005919D02*
X013885Y005919D01*
X009234Y006818D02*
X008333Y006818D01*
X008333Y007017D02*
X009036Y007017D01*
M02*
