%
M48
M72
T01C0.0130
T02C0.0400
%
T01
X2401Y3901
X3951Y5151
X4451Y4651
X4351Y4301
X4251Y3701
X5451Y3551
X5801Y4451
X5801Y5901
X6451Y6801
X7251Y7901
X7001Y9001
X6401Y10051
X5451Y8501
X5451Y8001
X4351Y6351
X4051Y5901
X3201Y6751
X2701Y7851
X2751Y8901
X3351Y9951
X3301Y12351
X4251Y12351
X4551Y12801
X5001Y13351
X5051Y12801
X5601Y13351
X6401Y12801
X7101Y12301
X8351Y9551
X8201Y5701
X6901Y2351
X1501Y9601
X601Y8901
X1051Y7801
T02
X2401Y1851
X2401Y2851
X3401Y2851
X3401Y1851
X3901Y851
X4401Y1851
X4401Y2851
X5401Y2851
X5401Y1851
X5901Y851
X6401Y1851
X6401Y2851
X7401Y2851
X7401Y1851
X4901Y851
X4401Y13951
X4401Y14951
X5401Y14951
X5401Y13951
X6401Y13951
X6401Y14951
X7401Y14951
X7401Y13951
X3401Y13951
X3401Y14951
X2401Y14951
X2401Y13951
M30
