G75*
G70*
%OFA0B0*%
%FSLAX24Y24*%
%IPPOS*%
%LPD*%
%AMOC8*
5,1,8,0,0,1.08239X$1,22.5*
%
%ADD10C,0.0110*%
%ADD11C,0.0030*%
%ADD12C,0.0080*%
%ADD13C,0.0000*%
%ADD14R,0.0079X0.0079*%
%ADD15R,0.0079X0.0079*%
%ADD16C,0.0060*%
D10*
X002865Y012406D02*
X002940Y012406D01*
X003015Y012481D01*
X003015Y012856D01*
X002790Y012856D01*
X002715Y012781D01*
X002715Y012631D01*
X002790Y012556D01*
X003015Y012556D01*
X003231Y012556D02*
X003381Y012556D01*
X003306Y012556D02*
X003306Y012856D01*
X003231Y012856D01*
X003306Y013006D02*
X003306Y013081D01*
X003575Y012856D02*
X003725Y012856D01*
X003650Y012931D02*
X003650Y012631D01*
X003725Y012556D01*
X003918Y012631D02*
X003993Y012706D01*
X004219Y012706D01*
X004219Y012781D02*
X004219Y012556D01*
X003993Y012556D01*
X003918Y012631D01*
X003993Y012856D02*
X004143Y012856D01*
X004219Y012781D01*
X004434Y013006D02*
X004509Y013006D01*
X004509Y012556D01*
X004434Y012556D02*
X004584Y012556D01*
X005156Y012556D02*
X005156Y012856D01*
X005306Y013006D01*
X005456Y012856D01*
X005456Y012556D01*
X005456Y012781D02*
X005156Y012781D01*
X005671Y012856D02*
X005671Y012556D01*
X005671Y012856D02*
X005897Y012856D01*
X005972Y012781D01*
X005972Y012556D01*
X006187Y012631D02*
X006262Y012706D01*
X006487Y012706D01*
X006487Y012781D02*
X006487Y012556D01*
X006262Y012556D01*
X006187Y012631D01*
X006262Y012856D02*
X006412Y012856D01*
X006487Y012781D01*
X006703Y013006D02*
X006778Y013006D01*
X006778Y012556D01*
X006703Y012556D02*
X006853Y012556D01*
X007046Y012631D02*
X007121Y012556D01*
X007272Y012556D01*
X007347Y012631D01*
X007347Y012781D01*
X007272Y012856D01*
X007121Y012856D01*
X007046Y012781D01*
X007046Y012631D01*
X007562Y012631D02*
X007637Y012556D01*
X007862Y012556D01*
X007862Y012481D02*
X007862Y012856D01*
X007637Y012856D01*
X007562Y012781D01*
X007562Y012631D01*
X007712Y012406D02*
X007787Y012406D01*
X007862Y012481D01*
X002522Y012556D02*
X002371Y012556D01*
X002446Y012556D02*
X002446Y012856D01*
X002371Y012856D01*
X002446Y013006D02*
X002446Y013081D01*
X002156Y012931D02*
X002156Y012631D01*
X002081Y012556D01*
X001856Y012556D01*
X001856Y013006D01*
X002081Y013006D01*
X002156Y012931D01*
D11*
X004613Y007906D02*
X004516Y007809D01*
X004613Y007906D02*
X004613Y007616D01*
X004709Y007616D02*
X004516Y007616D01*
X004810Y007616D02*
X004810Y007906D01*
X004810Y007761D02*
X005004Y007761D01*
X005105Y007809D02*
X005299Y007809D01*
X005105Y007616D01*
X005299Y007616D01*
X005004Y007616D02*
X005004Y007906D01*
D12*
X005287Y004161D02*
X005287Y003841D01*
X005287Y003948D02*
X005501Y004161D01*
X005341Y004001D02*
X005501Y003841D01*
X005656Y003841D02*
X005656Y004054D01*
X005656Y003948D02*
X005762Y004054D01*
X005816Y004054D01*
X005962Y003894D02*
X006016Y003948D01*
X006176Y003948D01*
X006176Y004001D02*
X006176Y003841D01*
X006016Y003841D01*
X005962Y003894D01*
X006016Y004054D02*
X006123Y004054D01*
X006176Y004001D01*
X006331Y004054D02*
X006491Y004054D01*
X006544Y004001D01*
X006544Y003894D01*
X006491Y003841D01*
X006331Y003841D01*
X006331Y004161D01*
X006699Y003894D02*
X006752Y003948D01*
X006913Y003948D01*
X006913Y004001D02*
X006913Y003841D01*
X006752Y003841D01*
X006699Y003894D01*
X006752Y004054D02*
X006859Y004054D01*
X006913Y004001D01*
X007067Y004054D02*
X007174Y004054D01*
X007121Y004108D02*
X007121Y003894D01*
X007174Y003841D01*
X007313Y003841D02*
X007313Y004161D01*
X007366Y004054D02*
X007473Y004054D01*
X007526Y004001D01*
X007526Y003841D01*
X007313Y004001D02*
X007366Y004054D01*
X004764Y004001D02*
X004764Y003841D01*
X004764Y004001D02*
X004711Y004054D01*
X004551Y004054D01*
X004551Y003841D01*
X004396Y003841D02*
X004236Y003841D01*
X004182Y003894D01*
X004236Y003948D01*
X004396Y003948D01*
X004396Y004001D02*
X004396Y003841D01*
X004396Y004001D02*
X004342Y004054D01*
X004236Y004054D01*
X004028Y004054D02*
X004028Y003787D01*
X003974Y003734D01*
X003921Y003734D01*
X003867Y003841D02*
X003814Y003894D01*
X003814Y004054D01*
X003659Y004001D02*
X003606Y003948D01*
X003446Y003948D01*
X003446Y003841D02*
X003446Y004161D01*
X003606Y004161D01*
X003659Y004108D01*
X003659Y004001D01*
X003552Y003948D02*
X003659Y003841D01*
X003867Y003841D02*
X004028Y003841D01*
X002923Y003841D02*
X002762Y003841D01*
X002709Y003894D01*
X002709Y004054D01*
X002554Y004054D02*
X002501Y004001D01*
X002341Y004001D01*
X002341Y003841D02*
X002341Y004161D01*
X002501Y004161D01*
X002554Y004108D01*
X002554Y004054D01*
X002501Y004001D02*
X002554Y003948D01*
X002554Y003894D01*
X002501Y003841D01*
X002341Y003841D01*
X002816Y003734D02*
X002869Y003734D01*
X002923Y003787D01*
X002923Y004054D01*
D13*
X001551Y004587D02*
X001551Y002101D01*
X001550Y002037D01*
X001553Y001973D01*
X001559Y001909D01*
X001569Y001846D01*
X001583Y001783D01*
X001600Y001722D01*
X001621Y001661D01*
X001646Y001602D01*
X001673Y001544D01*
X001705Y001488D01*
X001739Y001434D01*
X001776Y001382D01*
X001817Y001333D01*
X001860Y001285D01*
X001906Y001241D01*
X001954Y001199D01*
X002005Y001160D01*
X002058Y001123D01*
X002113Y001091D01*
X002169Y001061D01*
X002228Y001035D01*
X002288Y001012D01*
X002349Y000992D01*
X002411Y000977D01*
X002474Y000964D01*
X002537Y000956D01*
X002601Y000951D01*
X002645Y000953D01*
X002689Y000952D01*
X002732Y000946D01*
X002775Y000937D01*
X002817Y000925D01*
X002857Y000909D01*
X002897Y000889D01*
X002934Y000866D01*
X002969Y000840D01*
X003002Y000810D01*
X003032Y000778D01*
X003059Y000744D01*
X003083Y000707D01*
X003103Y000669D01*
X003121Y000629D01*
X003134Y000587D01*
X003144Y000544D01*
X003151Y000501D01*
X003153Y000462D01*
X003159Y000423D01*
X003168Y000385D01*
X003181Y000348D01*
X003198Y000312D01*
X003218Y000279D01*
X003242Y000247D01*
X003268Y000218D01*
X003297Y000192D01*
X003329Y000168D01*
X003362Y000148D01*
X003398Y000131D01*
X003435Y000118D01*
X003473Y000109D01*
X003512Y000103D01*
X003551Y000101D01*
X006151Y000101D01*
X006192Y000105D01*
X006233Y000112D01*
X006273Y000123D01*
X006312Y000138D01*
X006350Y000156D01*
X006385Y000177D01*
X006419Y000201D01*
X006451Y000228D01*
X006480Y000258D01*
X006506Y000290D01*
X006530Y000324D01*
X006550Y000360D01*
X006567Y000398D01*
X006581Y000437D01*
X006592Y000477D01*
X006598Y000518D01*
X006602Y000559D01*
X006601Y000601D01*
X006611Y000640D01*
X006625Y000678D01*
X006642Y000714D01*
X006662Y000749D01*
X006685Y000782D01*
X006711Y000813D01*
X006740Y000841D01*
X006771Y000867D01*
X006804Y000890D01*
X006838Y000910D01*
X006875Y000927D01*
X006913Y000941D01*
X006951Y000951D01*
X006991Y000958D01*
X007031Y000962D01*
X007071Y000962D01*
X007111Y000958D01*
X007151Y000951D01*
X007213Y000957D01*
X007275Y000967D01*
X007337Y000980D01*
X007397Y000997D01*
X007456Y001017D01*
X007514Y001041D01*
X007571Y001068D01*
X007626Y001099D01*
X007679Y001132D01*
X007730Y001169D01*
X007778Y001208D01*
X007825Y001250D01*
X007869Y001295D01*
X007910Y001343D01*
X007948Y001392D01*
X007983Y001444D01*
X008016Y001498D01*
X008045Y001553D01*
X008071Y001610D01*
X008093Y001669D01*
X008112Y001729D01*
X008128Y001789D01*
X008140Y001851D01*
X008148Y001913D01*
X008153Y001976D01*
X008154Y002038D01*
X008151Y002101D01*
X008151Y004487D01*
X008153Y004547D01*
X008158Y004608D01*
X008167Y004667D01*
X008180Y004726D01*
X008196Y004784D01*
X008216Y004842D01*
X008239Y004897D01*
X008266Y004952D01*
X008295Y005004D01*
X008328Y005055D01*
X008364Y005104D01*
X008402Y005150D01*
X008444Y005194D01*
X009751Y008058D02*
X009751Y008944D01*
X008444Y011808D02*
X008400Y011863D01*
X008359Y011919D01*
X008322Y011978D01*
X008288Y012039D01*
X008258Y012102D01*
X008231Y012167D01*
X008207Y012232D01*
X008188Y012299D01*
X008172Y012368D01*
X008160Y012436D01*
X008152Y012506D01*
X008148Y012575D01*
X008147Y012645D01*
X008151Y012715D01*
X008151Y014751D01*
X008149Y014811D01*
X008144Y014872D01*
X008135Y014931D01*
X008122Y014990D01*
X008106Y015049D01*
X008086Y015106D01*
X008063Y015161D01*
X008036Y015216D01*
X008007Y015268D01*
X007974Y015319D01*
X007938Y015368D01*
X007900Y015414D01*
X007858Y015458D01*
X007814Y015500D01*
X007768Y015538D01*
X007719Y015574D01*
X007668Y015607D01*
X007616Y015636D01*
X007561Y015663D01*
X007506Y015686D01*
X007449Y015706D01*
X007390Y015722D01*
X007331Y015735D01*
X007272Y015744D01*
X007211Y015749D01*
X007151Y015751D01*
X002651Y015751D01*
X002591Y015749D01*
X002530Y015744D01*
X002471Y015735D01*
X002412Y015722D01*
X002353Y015706D01*
X002296Y015686D01*
X002241Y015663D01*
X002186Y015636D01*
X002134Y015607D01*
X002083Y015574D01*
X002034Y015538D01*
X001988Y015500D01*
X001944Y015458D01*
X001902Y015414D01*
X001864Y015368D01*
X001828Y015319D01*
X001795Y015268D01*
X001766Y015216D01*
X001739Y015161D01*
X001716Y015106D01*
X001696Y015049D01*
X001680Y014990D01*
X001667Y014931D01*
X001658Y014872D01*
X001653Y014811D01*
X001651Y014751D01*
X001651Y012465D01*
X001649Y012405D01*
X001644Y012344D01*
X001635Y012285D01*
X001622Y012226D01*
X001606Y012168D01*
X001586Y012110D01*
X001563Y012055D01*
X001536Y012000D01*
X001507Y011948D01*
X001474Y011897D01*
X001438Y011848D01*
X001400Y011802D01*
X001358Y011758D01*
X000101Y008723D02*
X000101Y008087D01*
X001258Y005294D02*
X001300Y005250D01*
X001338Y005204D01*
X001374Y005155D01*
X001407Y005104D01*
X001436Y005052D01*
X001463Y004997D01*
X001486Y004942D01*
X001506Y004884D01*
X001522Y004826D01*
X001535Y004767D01*
X001544Y004708D01*
X001549Y004647D01*
X001551Y004587D01*
X001257Y005293D02*
X001131Y005425D01*
X001011Y005563D01*
X000898Y005706D01*
X000791Y005854D01*
X000692Y006007D01*
X000599Y006164D01*
X000514Y006326D01*
X000437Y006491D01*
X000367Y006660D01*
X000305Y006831D01*
X000251Y007006D01*
X000205Y007182D01*
X000167Y007361D01*
X000138Y007541D01*
X000117Y007722D01*
X000104Y007905D01*
X000100Y008087D01*
X000101Y008723D02*
X000106Y008921D01*
X000119Y009119D01*
X000142Y009316D01*
X000174Y009512D01*
X000215Y009706D01*
X000265Y009898D01*
X000323Y010087D01*
X000391Y010273D01*
X000467Y010457D01*
X000551Y010636D01*
X000643Y010812D01*
X000744Y010982D01*
X000852Y011149D01*
X000968Y011310D01*
X001091Y011465D01*
X001221Y011615D01*
X001358Y011758D01*
X008444Y011808D02*
X008580Y011676D01*
X008710Y011537D01*
X008833Y011392D01*
X008950Y011242D01*
X009059Y011086D01*
X009161Y010926D01*
X009255Y010761D01*
X009342Y010592D01*
X009421Y010419D01*
X009492Y010243D01*
X009555Y010063D01*
X009609Y009881D01*
X009655Y009697D01*
X009692Y009510D01*
X009720Y009322D01*
X009740Y009133D01*
X009751Y008944D01*
X009751Y008058D02*
X009740Y007869D01*
X009720Y007680D01*
X009692Y007492D01*
X009655Y007305D01*
X009609Y007121D01*
X009555Y006939D01*
X009492Y006759D01*
X009421Y006583D01*
X009342Y006410D01*
X009255Y006241D01*
X009161Y006076D01*
X009059Y005916D01*
X008950Y005760D01*
X008833Y005610D01*
X008710Y005465D01*
X008580Y005326D01*
X008444Y005194D01*
D14*
X008390Y008401D03*
X006640Y008451D03*
X004901Y010190D03*
X004901Y011890D03*
X003161Y008451D03*
X004901Y006711D03*
X004901Y004911D03*
X001411Y008401D03*
D15*
G36*
X001831Y006784D02*
X001870Y006717D01*
X001803Y006678D01*
X001764Y006745D01*
X001831Y006784D01*
G37*
G36*
X003117Y005420D02*
X003184Y005381D01*
X003145Y005314D01*
X003078Y005353D01*
X003117Y005420D01*
G37*
G36*
X004017Y006970D02*
X004084Y006931D01*
X004045Y006864D01*
X003978Y006903D01*
X004017Y006970D01*
G37*
G36*
X003381Y007634D02*
X003420Y007567D01*
X003353Y007528D01*
X003314Y007595D01*
X003381Y007634D01*
G37*
G36*
X003420Y009334D02*
X003381Y009267D01*
X003314Y009306D01*
X003353Y009373D01*
X003420Y009334D01*
G37*
G36*
X004084Y009971D02*
X004017Y009932D01*
X003978Y009999D01*
X004045Y010038D01*
X004084Y009971D01*
G37*
G36*
X004729Y008624D02*
X004674Y008679D01*
X004729Y008734D01*
X004784Y008679D01*
X004729Y008624D01*
G37*
G36*
X005784Y009932D02*
X005717Y009971D01*
X005756Y010038D01*
X005823Y009999D01*
X005784Y009932D01*
G37*
G36*
X006421Y009267D02*
X006382Y009334D01*
X006449Y009373D01*
X006488Y009306D01*
X006421Y009267D01*
G37*
G36*
X006382Y007567D02*
X006421Y007634D01*
X006488Y007595D01*
X006449Y007528D01*
X006382Y007567D01*
G37*
G36*
X005717Y006931D02*
X005784Y006970D01*
X005823Y006903D01*
X005756Y006864D01*
X005717Y006931D01*
G37*
G36*
X006617Y005381D02*
X006684Y005420D01*
X006723Y005353D01*
X006656Y005314D01*
X006617Y005381D01*
G37*
G36*
X007882Y006667D02*
X007921Y006734D01*
X007988Y006695D01*
X007949Y006628D01*
X007882Y006667D01*
G37*
G36*
X007921Y010117D02*
X007882Y010184D01*
X007949Y010223D01*
X007988Y010156D01*
X007921Y010117D01*
G37*
G36*
X006634Y011382D02*
X006567Y011421D01*
X006606Y011488D01*
X006673Y011449D01*
X006634Y011382D01*
G37*
G36*
X003234Y011421D02*
X003167Y011382D01*
X003128Y011449D01*
X003195Y011488D01*
X003234Y011421D01*
G37*
G36*
X001920Y010184D02*
X001881Y010117D01*
X001814Y010156D01*
X001853Y010223D01*
X001920Y010184D01*
G37*
D16*
X002151Y013451D02*
X002651Y013451D01*
X002901Y013701D01*
X002901Y015201D01*
X003151Y015451D01*
X003651Y015451D01*
X003901Y015201D01*
X003901Y013701D01*
X004151Y013451D01*
X004651Y013451D01*
X004901Y013701D01*
X004901Y015201D01*
X005151Y015451D01*
X005651Y015451D01*
X005901Y015201D01*
X005901Y013701D01*
X006151Y013451D01*
X006651Y013451D01*
X006901Y013701D01*
X007151Y013451D01*
X007651Y013451D01*
X007901Y013701D01*
X007901Y015201D01*
X007651Y015451D01*
X007151Y015451D01*
X006901Y015201D01*
X006901Y013701D01*
X006901Y015201D02*
X006651Y015451D01*
X006151Y015451D01*
X005901Y015201D01*
X005901Y013701D02*
X005651Y013451D01*
X005151Y013451D01*
X004901Y013701D01*
X004901Y015201D02*
X004651Y015451D01*
X004151Y015451D01*
X003901Y015201D01*
X003901Y013701D02*
X003651Y013451D01*
X003151Y013451D01*
X002901Y013701D01*
X002151Y013451D02*
X001901Y013701D01*
X001901Y015201D01*
X002151Y015451D01*
X002651Y015451D01*
X002901Y015201D01*
X003151Y003351D02*
X003651Y003351D01*
X003901Y003101D01*
X003901Y001601D01*
X004151Y001351D01*
X004651Y001351D01*
X004901Y001601D01*
X004901Y003101D01*
X005151Y003351D01*
X005651Y003351D01*
X005901Y003101D01*
X005901Y001601D01*
X006151Y001351D01*
X006651Y001351D01*
X006901Y001601D01*
X007151Y001351D01*
X007651Y001351D01*
X007901Y001601D01*
X007901Y003101D01*
X007651Y003351D01*
X007151Y003351D01*
X006901Y003101D01*
X006901Y001601D01*
X006901Y003101D02*
X006651Y003351D01*
X006151Y003351D01*
X005901Y003101D01*
X005901Y001601D02*
X005651Y001351D01*
X005151Y001351D01*
X004901Y001601D01*
X004901Y003101D02*
X004651Y003351D01*
X004151Y003351D01*
X003901Y003101D01*
X003151Y003351D02*
X002901Y003101D01*
X002901Y001601D01*
X003151Y001351D01*
X003651Y001351D01*
X003901Y001601D01*
X002901Y001601D02*
X002651Y001351D01*
X002151Y001351D01*
X001901Y001601D01*
X001901Y003101D01*
X002151Y003351D01*
X002651Y003351D01*
X002901Y003101D01*
M02*
