G75*
G70*
%OFA0B0*%
%FSLAX24Y24*%
%IPPOS*%
%LPD*%
%AMOC8*
5,1,8,0,0,1.08239X$1,22.5*
%
%ADD10C,0.0000*%
D10*
X001551Y002101D02*
X001551Y004587D01*
X001549Y004647D01*
X001544Y004708D01*
X001535Y004767D01*
X001522Y004826D01*
X001506Y004884D01*
X001486Y004942D01*
X001463Y004997D01*
X001436Y005052D01*
X001407Y005104D01*
X001374Y005155D01*
X001338Y005204D01*
X001300Y005250D01*
X001258Y005294D01*
X000101Y008087D02*
X000101Y008723D01*
X001358Y011758D02*
X001400Y011802D01*
X001438Y011848D01*
X001474Y011897D01*
X001507Y011948D01*
X001536Y012000D01*
X001563Y012055D01*
X001586Y012110D01*
X001606Y012168D01*
X001622Y012226D01*
X001635Y012285D01*
X001644Y012344D01*
X001649Y012405D01*
X001651Y012465D01*
X001651Y014751D01*
X001653Y014811D01*
X001658Y014872D01*
X001667Y014931D01*
X001680Y014990D01*
X001696Y015049D01*
X001716Y015106D01*
X001739Y015161D01*
X001766Y015216D01*
X001795Y015268D01*
X001828Y015319D01*
X001864Y015368D01*
X001902Y015414D01*
X001944Y015458D01*
X001988Y015500D01*
X002034Y015538D01*
X002083Y015574D01*
X002134Y015607D01*
X002186Y015636D01*
X002241Y015663D01*
X002296Y015686D01*
X002353Y015706D01*
X002412Y015722D01*
X002471Y015735D01*
X002530Y015744D01*
X002591Y015749D01*
X002651Y015751D01*
X007151Y015751D01*
X007211Y015749D01*
X007272Y015744D01*
X007331Y015735D01*
X007390Y015722D01*
X007449Y015706D01*
X007506Y015686D01*
X007561Y015663D01*
X007616Y015636D01*
X007668Y015607D01*
X007719Y015574D01*
X007768Y015538D01*
X007814Y015500D01*
X007858Y015458D01*
X007900Y015414D01*
X007938Y015368D01*
X007974Y015319D01*
X008007Y015268D01*
X008036Y015216D01*
X008063Y015161D01*
X008086Y015106D01*
X008106Y015049D01*
X008122Y014990D01*
X008135Y014931D01*
X008144Y014872D01*
X008149Y014811D01*
X008151Y014751D01*
X008151Y012715D01*
X008147Y012645D01*
X008148Y012575D01*
X008152Y012506D01*
X008160Y012436D01*
X008172Y012368D01*
X008188Y012299D01*
X008207Y012232D01*
X008231Y012167D01*
X008258Y012102D01*
X008288Y012039D01*
X008322Y011978D01*
X008359Y011919D01*
X008400Y011863D01*
X008444Y011808D01*
X009751Y008944D02*
X009751Y008058D01*
X008444Y005194D02*
X008402Y005150D01*
X008364Y005104D01*
X008328Y005055D01*
X008295Y005004D01*
X008266Y004952D01*
X008239Y004897D01*
X008216Y004842D01*
X008196Y004784D01*
X008180Y004726D01*
X008167Y004667D01*
X008158Y004608D01*
X008153Y004547D01*
X008151Y004487D01*
X008151Y002101D01*
X008154Y002038D01*
X008153Y001976D01*
X008148Y001913D01*
X008140Y001851D01*
X008128Y001789D01*
X008112Y001729D01*
X008093Y001669D01*
X008071Y001610D01*
X008045Y001553D01*
X008016Y001498D01*
X007983Y001444D01*
X007948Y001392D01*
X007910Y001343D01*
X007869Y001295D01*
X007825Y001250D01*
X007778Y001208D01*
X007730Y001169D01*
X007679Y001132D01*
X007626Y001099D01*
X007571Y001068D01*
X007514Y001041D01*
X007456Y001017D01*
X007397Y000997D01*
X007337Y000980D01*
X007275Y000967D01*
X007213Y000957D01*
X007151Y000951D01*
X007111Y000958D01*
X007071Y000962D01*
X007031Y000962D01*
X006991Y000958D01*
X006951Y000951D01*
X006913Y000941D01*
X006875Y000927D01*
X006838Y000910D01*
X006804Y000890D01*
X006771Y000867D01*
X006740Y000841D01*
X006711Y000813D01*
X006685Y000782D01*
X006662Y000749D01*
X006642Y000714D01*
X006625Y000678D01*
X006611Y000640D01*
X006601Y000601D01*
X006602Y000559D01*
X006598Y000518D01*
X006592Y000477D01*
X006581Y000437D01*
X006567Y000398D01*
X006550Y000360D01*
X006530Y000324D01*
X006506Y000290D01*
X006480Y000258D01*
X006451Y000228D01*
X006419Y000201D01*
X006385Y000177D01*
X006350Y000156D01*
X006312Y000138D01*
X006273Y000123D01*
X006233Y000112D01*
X006192Y000105D01*
X006151Y000101D01*
X003551Y000101D01*
X003512Y000103D01*
X003473Y000109D01*
X003435Y000118D01*
X003398Y000131D01*
X003362Y000148D01*
X003329Y000168D01*
X003297Y000192D01*
X003268Y000218D01*
X003242Y000247D01*
X003218Y000279D01*
X003198Y000312D01*
X003181Y000348D01*
X003168Y000385D01*
X003159Y000423D01*
X003153Y000462D01*
X003151Y000501D01*
X003144Y000544D01*
X003134Y000587D01*
X003121Y000629D01*
X003103Y000669D01*
X003083Y000707D01*
X003059Y000744D01*
X003032Y000778D01*
X003002Y000810D01*
X002969Y000840D01*
X002934Y000866D01*
X002897Y000889D01*
X002857Y000909D01*
X002817Y000925D01*
X002775Y000937D01*
X002732Y000946D01*
X002689Y000952D01*
X002645Y000953D01*
X002601Y000951D01*
X002537Y000956D01*
X002474Y000964D01*
X002411Y000977D01*
X002349Y000992D01*
X002288Y001012D01*
X002228Y001035D01*
X002169Y001061D01*
X002113Y001091D01*
X002058Y001123D01*
X002005Y001160D01*
X001954Y001199D01*
X001906Y001241D01*
X001860Y001285D01*
X001817Y001333D01*
X001776Y001382D01*
X001739Y001434D01*
X001705Y001488D01*
X001673Y001544D01*
X001646Y001602D01*
X001621Y001661D01*
X001600Y001722D01*
X001583Y001783D01*
X001569Y001846D01*
X001559Y001909D01*
X001553Y001973D01*
X001550Y002037D01*
X001551Y002101D01*
X001257Y005293D02*
X001131Y005425D01*
X001011Y005563D01*
X000898Y005706D01*
X000791Y005854D01*
X000692Y006007D01*
X000599Y006164D01*
X000514Y006326D01*
X000437Y006491D01*
X000367Y006660D01*
X000305Y006831D01*
X000251Y007006D01*
X000205Y007182D01*
X000167Y007361D01*
X000138Y007541D01*
X000117Y007722D01*
X000104Y007905D01*
X000100Y008087D01*
X000101Y008723D02*
X000106Y008921D01*
X000119Y009119D01*
X000142Y009316D01*
X000174Y009512D01*
X000215Y009706D01*
X000265Y009898D01*
X000323Y010087D01*
X000391Y010273D01*
X000467Y010457D01*
X000551Y010636D01*
X000643Y010812D01*
X000744Y010982D01*
X000852Y011149D01*
X000968Y011310D01*
X001091Y011465D01*
X001221Y011615D01*
X001358Y011758D01*
X008444Y011808D02*
X008580Y011676D01*
X008710Y011537D01*
X008833Y011392D01*
X008950Y011242D01*
X009059Y011086D01*
X009161Y010926D01*
X009255Y010761D01*
X009342Y010592D01*
X009421Y010419D01*
X009492Y010243D01*
X009555Y010063D01*
X009609Y009881D01*
X009655Y009697D01*
X009692Y009510D01*
X009720Y009322D01*
X009740Y009133D01*
X009751Y008944D01*
X009751Y008058D02*
X009740Y007869D01*
X009720Y007680D01*
X009692Y007492D01*
X009655Y007305D01*
X009609Y007121D01*
X009555Y006939D01*
X009492Y006759D01*
X009421Y006583D01*
X009342Y006410D01*
X009255Y006241D01*
X009161Y006076D01*
X009059Y005916D01*
X008950Y005760D01*
X008833Y005610D01*
X008710Y005465D01*
X008580Y005326D01*
X008444Y005194D01*
M02*
