G75*
G70*
%OFA0B0*%
%FSLAX24Y24*%
%IPPOS*%
%LPD*%
%AMOC8*
5,1,8,0,0,1.08239X$1,22.5*
%
%ADD10R,0.0315X0.0472*%
%ADD11R,0.0870X0.0240*%
%ADD12R,0.0472X0.0315*%
%ADD13R,0.0984X0.0669*%
%ADD14R,0.0591X0.0945*%
%ADD15R,0.0551X0.0709*%
%ADD16R,0.0630X0.0906*%
%ADD17R,0.1560X0.1560*%
%ADD18R,0.1250X0.1250*%
%ADD19R,0.0472X0.0472*%
%ADD20R,0.1181X0.0394*%
%ADD21R,0.0217X0.0551*%
%ADD22R,0.0325X0.0315*%
%ADD23C,0.0740*%
%ADD24C,0.0100*%
%ADD25C,0.0270*%
%ADD26C,0.0200*%
%ADD27C,0.0750*%
%ADD28C,0.0160*%
D10*
X003830Y001861D03*
X004539Y001861D03*
X008230Y001961D03*
X008939Y001961D03*
X011180Y005661D03*
X011180Y006311D03*
X011889Y006311D03*
X011889Y005661D03*
X008089Y013511D03*
X007380Y013511D03*
X010080Y014011D03*
X010789Y014011D03*
G36*
X005458Y009166D02*
X005680Y009388D01*
X006012Y009056D01*
X005790Y008834D01*
X005458Y009166D01*
G37*
G36*
X004957Y008665D02*
X005179Y008887D01*
X005511Y008555D01*
X005289Y008333D01*
X004957Y008665D01*
G37*
D11*
X006660Y009811D03*
X006660Y010311D03*
X006660Y010811D03*
X006660Y011311D03*
X006660Y011811D03*
X006660Y012311D03*
X006660Y012811D03*
X008710Y012811D03*
X008710Y012311D03*
X008710Y011811D03*
X008710Y011311D03*
X008710Y010811D03*
X008710Y010311D03*
X008710Y009811D03*
D12*
X010185Y010307D03*
X010185Y011015D03*
X010185Y011607D03*
X010185Y012315D03*
X010835Y008865D03*
X010835Y008157D03*
D13*
X005235Y007759D03*
X005235Y006263D03*
D14*
X006652Y007111D03*
X008817Y007111D03*
D15*
X007754Y005161D03*
X006415Y005161D03*
D16*
X001985Y002071D03*
X001985Y004551D03*
X010485Y004751D03*
X010485Y002271D03*
D17*
X002835Y010561D03*
D18*
X002835Y013661D03*
X002835Y007461D03*
D19*
X011321Y014011D03*
X012148Y014011D03*
D20*
X011966Y012411D03*
X011966Y011411D03*
X011966Y010411D03*
X011966Y009411D03*
X011966Y008411D03*
X011966Y007411D03*
D21*
X012031Y015029D03*
X011539Y015029D03*
X010681Y015029D03*
X010189Y015029D03*
D22*
X010435Y016092D03*
X011785Y016092D03*
D23*
X008735Y015961D03*
X008735Y014961D03*
X007735Y014961D03*
X007735Y015961D03*
X006735Y015961D03*
X006735Y014961D03*
X005735Y014961D03*
X005735Y015961D03*
X004735Y015961D03*
X004735Y014961D03*
X003735Y014961D03*
X003735Y015961D03*
X003735Y003911D03*
X003735Y002911D03*
X004735Y002911D03*
X004735Y003911D03*
X005735Y003911D03*
X005735Y002911D03*
X006235Y001911D03*
X006735Y002911D03*
X006735Y003911D03*
X007735Y003911D03*
X007735Y002911D03*
X007235Y001911D03*
X008735Y002911D03*
X008735Y003911D03*
X005235Y001911D03*
D24*
X005185Y001861D01*
X004539Y001861D01*
X003830Y001861D02*
X003285Y001861D01*
X003075Y002071D01*
X001985Y002071D01*
X001985Y003261D01*
X001685Y005811D02*
X001685Y008911D01*
X001785Y009011D01*
X002835Y009361D02*
X003135Y009061D01*
X003580Y008611D01*
X003830Y008361D01*
X004985Y008361D01*
X004985Y007961D01*
X004985Y008361D02*
X005234Y008610D01*
X005685Y009111D02*
X005735Y009111D01*
X005735Y009111D01*
X006660Y009811D02*
X007185Y009811D01*
X007435Y009561D01*
X007435Y007761D01*
X007067Y008194D02*
X006652Y008194D01*
X007067Y008194D02*
X007135Y008261D01*
X007685Y008361D02*
X007685Y006911D01*
X007485Y006711D01*
X007485Y006211D01*
X007135Y005911D02*
X007235Y005811D01*
X007235Y005311D01*
X007335Y005211D01*
X007704Y005211D01*
X007754Y005161D01*
X007135Y005911D02*
X006685Y005911D01*
X005985Y006611D01*
X005985Y006711D01*
X005885Y006811D01*
X004135Y006811D01*
X004035Y006711D01*
X003685Y006711D01*
X004185Y007461D02*
X004585Y007061D01*
X006035Y007061D01*
X006135Y007161D01*
X006652Y007111D02*
X006652Y006344D01*
X006685Y006311D01*
X006985Y005661D02*
X006985Y004411D01*
X007235Y004161D01*
X007235Y003661D01*
X007485Y003411D01*
X008235Y003411D01*
X008735Y002911D01*
X009435Y003011D02*
X009435Y002161D01*
X009235Y001961D01*
X008939Y001961D01*
X009235Y001361D02*
X006585Y001361D01*
X005735Y002911D02*
X005735Y002961D01*
X005235Y003461D01*
X005235Y005411D01*
X005485Y005661D01*
X004185Y007461D02*
X002835Y007461D01*
X005235Y011261D02*
X005785Y011811D01*
X006660Y011811D01*
X006660Y012311D02*
X005885Y012311D01*
X005235Y011661D01*
X004235Y011661D01*
X003735Y012411D02*
X003735Y014361D01*
X003635Y014461D01*
X003485Y014461D01*
X003235Y014711D01*
X003235Y015511D01*
X003735Y015961D01*
X003735Y014961D02*
X004185Y014561D01*
X004185Y012511D01*
X004435Y012761D02*
X004685Y012511D01*
X004985Y012611D02*
X004685Y012911D01*
X004685Y013261D01*
X005085Y012961D02*
X005085Y014411D01*
X005085Y014461D01*
X005085Y014561D01*
X005235Y014711D01*
X005235Y015511D01*
X004735Y015961D01*
X004735Y014961D02*
X004685Y014961D01*
X004435Y014711D01*
X004435Y012761D01*
X004985Y012611D02*
X005135Y012611D01*
X007235Y014711D01*
X007235Y015461D01*
X007735Y015961D01*
X006735Y015961D02*
X006235Y015461D01*
X006235Y014061D01*
X005385Y013211D01*
X005985Y013111D02*
X007035Y014161D01*
X008835Y014161D01*
X009385Y013611D01*
X012085Y013611D01*
X012135Y013661D01*
X012135Y013947D01*
X012148Y014011D01*
X011735Y014411D02*
X010635Y014411D01*
X010385Y014161D01*
X010385Y014061D01*
X010335Y014011D01*
X010080Y014011D01*
X009885Y013061D02*
X009685Y013061D01*
X009435Y012811D01*
X009735Y012511D01*
X009435Y012811D02*
X008710Y012811D01*
X008235Y012811D01*
X008135Y012911D01*
X008135Y013465D01*
X008089Y013511D01*
X007835Y012561D02*
X009285Y012561D01*
X009885Y011961D01*
X010685Y011961D01*
X011235Y011411D01*
X011966Y011411D01*
X011966Y012411D02*
X012035Y012429D01*
X012016Y012411D01*
X011135Y012411D01*
X010835Y012411D01*
X010735Y012311D01*
X010189Y012311D01*
X010185Y012315D01*
X010185Y011607D02*
X010185Y011311D01*
X010635Y011311D01*
X010185Y011311D02*
X010185Y011015D01*
X010289Y010411D02*
X010185Y010307D01*
X010189Y010311D01*
X010685Y010311D01*
X010785Y010411D01*
X011966Y010411D01*
X011735Y009911D02*
X011735Y009411D01*
X011966Y009411D01*
X012385Y009411D01*
X011966Y009411D02*
X010835Y009411D01*
X010435Y009811D01*
X010435Y009411D02*
X010435Y008311D01*
X010589Y008157D01*
X010835Y008157D01*
X010835Y007461D01*
X010785Y007461D01*
X010735Y007411D01*
X010185Y007411D01*
X010085Y007311D01*
X010085Y006161D01*
X009935Y006011D01*
X009785Y006261D02*
X009635Y006111D01*
X009635Y006011D01*
X009335Y005711D01*
X009335Y005411D01*
X009985Y004761D01*
X010475Y004761D01*
X010485Y004751D01*
X010485Y003761D01*
X010885Y003911D02*
X010885Y003461D01*
X010485Y003061D01*
X010485Y002271D01*
X010425Y002011D01*
X009885Y002011D01*
X009235Y001361D01*
X009435Y003011D02*
X009685Y003261D01*
X010485Y003061D02*
X009485Y004061D01*
X009485Y004511D01*
X009235Y005961D02*
X009485Y006211D01*
X009485Y006511D01*
X009785Y006261D02*
X009785Y007111D01*
X009185Y007711D01*
X008335Y007711D01*
X008135Y007511D01*
X008135Y007411D01*
X007985Y007761D02*
X008135Y007911D01*
X009335Y007911D01*
X009485Y008161D02*
X007985Y008161D01*
X007685Y008361D02*
X007785Y008461D01*
X007785Y011061D01*
X008035Y011311D01*
X008035Y012211D01*
X008135Y012311D01*
X008710Y012311D01*
X008710Y011811D02*
X009385Y011811D01*
X009485Y011711D01*
X009385Y010811D02*
X008710Y010811D01*
X008710Y010311D02*
X008714Y010307D01*
X010185Y010307D01*
X010185Y008211D01*
X009785Y008461D02*
X009485Y008161D01*
X009485Y009411D02*
X009935Y009411D01*
X009935Y009811D02*
X008710Y009811D01*
X009335Y009561D02*
X009485Y009411D01*
X008710Y011311D02*
X008285Y011311D01*
X008035Y011061D01*
X008035Y010861D01*
X007735Y011311D02*
X007735Y011961D01*
X007335Y012061D02*
X007335Y011361D01*
X007285Y011311D01*
X006660Y011311D01*
X006660Y010811D02*
X007235Y010811D01*
X007735Y011311D01*
X007335Y012061D02*
X007835Y012561D01*
X007385Y013311D02*
X007380Y013357D01*
X007380Y013511D01*
X007335Y013465D01*
X007385Y013311D01*
X005735Y011211D02*
X005735Y010461D01*
X005885Y010311D01*
X006660Y010311D01*
X007935Y006661D02*
X008485Y006311D01*
X010685Y006061D02*
X010935Y006311D01*
X011180Y006311D01*
X011180Y005661D02*
X011185Y005657D01*
X011185Y005337D01*
X011511Y005011D01*
X011585Y005011D01*
X011889Y004915D02*
X010885Y003911D01*
X011889Y004915D02*
X011889Y005661D01*
X011889Y006311D01*
X011889Y007334D01*
X011966Y007411D01*
X010885Y007411D01*
X010835Y007461D01*
X010935Y008511D02*
X010835Y008611D01*
X010835Y008865D01*
X010935Y008511D02*
X011135Y008511D01*
X011185Y008515D01*
X011966Y008411D02*
X012235Y008411D01*
X011321Y014011D02*
X010789Y014011D01*
X011135Y014661D02*
X011135Y014911D01*
X011235Y015011D01*
X011520Y015011D01*
X011539Y015029D01*
X011785Y016092D02*
X010435Y016092D01*
X010416Y016111D01*
X009985Y016111D01*
X009635Y016461D01*
X009503Y015029D02*
X009485Y015011D01*
X009503Y015029D02*
X010189Y015029D01*
D25*
X009485Y015011D03*
X009635Y016461D03*
X011135Y014661D03*
X011735Y014411D03*
X010635Y012961D03*
X011135Y012411D03*
X010635Y011311D03*
X011185Y011011D03*
X011735Y009911D03*
X011135Y008511D03*
X010435Y009411D03*
X010435Y009811D03*
X009935Y009811D03*
X009935Y009411D03*
X009335Y009561D03*
X009385Y010811D03*
X009485Y011711D03*
X009735Y012511D03*
X009885Y013061D03*
X008985Y013261D03*
X007735Y011961D03*
X008035Y010861D03*
X009785Y008461D03*
X010185Y008211D03*
X009335Y007911D03*
X009485Y006511D03*
X009235Y005961D03*
X008485Y006311D03*
X007935Y006661D03*
X007485Y006211D03*
X006985Y005661D03*
X006685Y006311D03*
X006135Y007161D03*
X007135Y008261D03*
X007435Y007761D03*
X007985Y007761D03*
X008135Y007411D03*
X007985Y008161D03*
X009935Y006011D03*
X010685Y006061D03*
X011585Y005011D03*
X011235Y003611D03*
X010485Y003761D03*
X009685Y003261D03*
X009485Y004511D03*
X007835Y001961D03*
X005485Y005661D03*
X004185Y006111D03*
X003685Y006711D03*
X002835Y004711D03*
X002835Y004261D03*
X001985Y003261D03*
X001535Y003211D03*
X001335Y004811D03*
X001685Y005811D03*
X001985Y007361D03*
X001335Y008211D03*
X001785Y009011D03*
X001985Y009311D03*
X002835Y011761D03*
X001985Y012461D03*
X001235Y013461D03*
X003735Y012411D03*
X004185Y012511D03*
X004685Y012511D03*
X005085Y012961D03*
X005385Y013211D03*
X005985Y013111D03*
X004685Y013261D03*
X004235Y011661D03*
X005235Y011261D03*
X005735Y011211D03*
X012235Y007961D03*
X012235Y006811D03*
X004335Y001361D03*
X003935Y000811D03*
X004185Y002061D03*
D26*
X004185Y002261D01*
X004085Y002361D01*
X003435Y002361D01*
X003185Y002611D01*
X003185Y004361D01*
X002835Y004711D01*
X002544Y004551D02*
X002835Y004261D01*
X002544Y004551D02*
X001985Y004551D01*
X001985Y007361D01*
X001985Y008511D01*
X002835Y009361D01*
X002835Y010561D01*
X002835Y011761D01*
X002635Y012261D02*
X003135Y012261D01*
X003735Y011661D01*
X004085Y012011D01*
X005035Y012011D01*
X005835Y012811D01*
X006660Y012811D01*
X007185Y012811D01*
X007385Y013011D01*
X007385Y013311D01*
X007380Y013511D02*
X007380Y013757D01*
X007535Y013911D01*
X008635Y013911D01*
X008985Y013561D01*
X008985Y013261D01*
X009585Y013261D01*
X009685Y013361D01*
X010235Y013361D01*
X010635Y012961D01*
X010635Y011311D02*
X010885Y011311D01*
X011185Y011011D01*
X010189Y011011D02*
X010185Y011015D01*
X011135Y008511D02*
X011285Y008411D01*
X011966Y008411D01*
X012235Y008411D02*
X012235Y007961D01*
X012235Y006811D02*
X012235Y004611D01*
X011235Y003611D01*
X008835Y005561D02*
X008835Y007094D01*
X008817Y007111D01*
X008835Y005561D02*
X008435Y005161D01*
X007754Y005161D01*
X006415Y005161D02*
X006385Y005192D01*
X006385Y005811D01*
X005933Y006263D01*
X005235Y006263D01*
X004337Y006263D01*
X004185Y006111D01*
X005235Y007759D02*
X005285Y007909D01*
X005233Y007961D01*
X004985Y007961D01*
X005280Y008557D02*
X005234Y008610D01*
X005685Y009111D02*
X004085Y010711D01*
X004085Y011311D01*
X003735Y011661D01*
X002635Y012261D02*
X001885Y011511D01*
X001885Y009611D01*
X001985Y009461D01*
X001985Y009311D01*
X001335Y008211D02*
X001335Y004811D01*
X000985Y004311D02*
X000985Y006561D01*
X000835Y006711D01*
X000835Y012211D01*
X001235Y012611D01*
X001235Y013461D01*
X001235Y014811D01*
X002735Y016311D01*
X002885Y016311D01*
X003235Y016661D01*
X003235Y016811D01*
X003785Y017361D01*
X004585Y017361D01*
X003685Y016761D02*
X003585Y016661D01*
X003685Y016761D02*
X007985Y016761D01*
X008585Y017361D01*
X002885Y015961D02*
X001985Y015061D01*
X001985Y012461D01*
X005735Y009111D02*
X006085Y008761D01*
X006652Y008194D01*
X006652Y007111D01*
X006435Y002461D02*
X006035Y002461D01*
X005935Y002361D01*
X005685Y002361D01*
X005235Y001911D01*
X004585Y000811D02*
X003935Y000811D01*
X004335Y001361D02*
X006585Y001361D01*
X006585Y000811D01*
X006535Y002361D02*
X006935Y002361D01*
X007035Y002461D01*
X007435Y002461D01*
X007835Y002061D01*
X007835Y001961D01*
X008230Y001961D01*
X006535Y002361D02*
X006435Y002461D01*
X001535Y003211D02*
X001235Y003511D01*
X001235Y004061D01*
X000985Y004311D01*
D27*
X002635Y001311D03*
X004585Y000811D03*
X006585Y000811D03*
X008585Y000811D03*
X010535Y001311D03*
X010535Y016861D03*
X008585Y017361D03*
X006585Y017361D03*
X004585Y017361D03*
X002635Y016861D03*
D28*
X002885Y015961D02*
X003585Y016661D01*
M02*
