G75*
G70*
%OFA0B0*%
%FSLAX24Y24*%
%IPPOS*%
%LPD*%
%AMOC8*
5,1,8,0,0,1.08239X$1,22.5*
%
%ADD10C,0.0000*%
D10*
X003282Y000423D02*
X005396Y000145D01*
X005541Y000132D01*
X006244Y000111D02*
X006859Y000111D01*
X008212Y000196D02*
X010037Y000473D01*
X010942Y000750D02*
X011035Y000800D01*
X011126Y000853D01*
X011214Y000912D01*
X011299Y000974D01*
X011381Y001040D01*
X011460Y001110D01*
X011535Y001184D01*
X011607Y001262D01*
X011675Y001342D01*
X011739Y001426D01*
X011799Y001513D01*
X011854Y001603D01*
X011906Y001695D01*
X011952Y001790D01*
X011994Y001886D01*
X010942Y000750D02*
X010819Y000692D01*
X010694Y000640D01*
X010566Y000594D01*
X010436Y000554D01*
X010304Y000521D01*
X010171Y000493D01*
X010036Y000472D01*
X001324Y001887D02*
X001153Y002339D01*
X001003Y002799D01*
X000876Y003266D01*
X000772Y003738D01*
X000690Y004215D01*
X000632Y004695D01*
X000597Y005177D01*
X000585Y005661D01*
X000585Y014676D01*
X001818Y017152D02*
X002762Y017569D01*
X001818Y017152D02*
X001740Y017116D01*
X001664Y017075D01*
X001590Y017031D01*
X001518Y016984D01*
X001448Y016933D01*
X001381Y016878D01*
X001317Y016821D01*
X001255Y016761D01*
X001196Y016697D01*
X001141Y016631D01*
X001089Y016563D01*
X001040Y016492D01*
X000994Y016418D01*
X000953Y016343D01*
X000914Y016266D01*
X000880Y016187D01*
X004380Y017911D02*
X008764Y017911D01*
X010250Y017625D02*
X011491Y017128D01*
X011565Y017096D01*
X011638Y017061D01*
X011709Y017022D01*
X011778Y016980D01*
X011845Y016935D01*
X011909Y016887D01*
X011972Y016836D01*
X012032Y016781D01*
X012089Y016724D01*
X012143Y016665D01*
X012195Y016603D01*
X012244Y016538D01*
X012289Y016472D01*
X012332Y016403D01*
X012371Y016332D01*
X012406Y016260D01*
X012439Y016186D01*
X012735Y014676D02*
X012735Y005661D01*
X008213Y000196D02*
X007763Y000148D01*
X007312Y000120D01*
X006860Y000111D01*
X003282Y000422D02*
X003147Y000450D01*
X003013Y000485D01*
X002881Y000525D01*
X002751Y000572D01*
X002623Y000625D01*
X002498Y000685D01*
X002376Y000750D01*
X002376Y000749D02*
X002283Y000799D01*
X002192Y000853D01*
X002104Y000911D01*
X002019Y000973D01*
X001937Y001039D01*
X001858Y001110D01*
X001783Y001184D01*
X001711Y001261D01*
X001643Y001342D01*
X001579Y001426D01*
X001519Y001513D01*
X001464Y001602D01*
X001413Y001695D01*
X001366Y001789D01*
X001324Y001886D01*
X011995Y001887D02*
X012167Y002339D01*
X012317Y002799D01*
X012444Y003266D01*
X012548Y003738D01*
X012630Y004215D01*
X012688Y004695D01*
X012723Y005177D01*
X012735Y005661D01*
X010250Y017625D02*
X010072Y017691D01*
X009891Y017749D01*
X009707Y017798D01*
X009521Y017839D01*
X009333Y017870D01*
X009144Y017893D01*
X008954Y017906D01*
X008764Y017911D01*
X012439Y016186D02*
X012508Y016005D01*
X012568Y015821D01*
X012619Y015634D01*
X012660Y015445D01*
X012693Y015254D01*
X012716Y015062D01*
X012730Y014869D01*
X012735Y014676D01*
X006244Y000111D02*
X005892Y000116D01*
X005541Y000132D01*
X001108Y008920D02*
X001110Y008946D01*
X001116Y008972D01*
X001126Y008997D01*
X001139Y009020D01*
X001155Y009040D01*
X001175Y009058D01*
X001197Y009073D01*
X001220Y009085D01*
X001246Y009093D01*
X001272Y009097D01*
X001298Y009097D01*
X001324Y009093D01*
X001350Y009085D01*
X001374Y009073D01*
X001395Y009058D01*
X001415Y009040D01*
X001431Y009020D01*
X001444Y008997D01*
X001454Y008972D01*
X001460Y008946D01*
X001462Y008920D01*
X001460Y008894D01*
X001454Y008868D01*
X001444Y008843D01*
X001431Y008820D01*
X001415Y008800D01*
X001395Y008782D01*
X001373Y008767D01*
X001350Y008755D01*
X001324Y008747D01*
X001298Y008743D01*
X001272Y008743D01*
X001246Y008747D01*
X001220Y008755D01*
X001196Y008767D01*
X001175Y008782D01*
X001155Y008800D01*
X001139Y008820D01*
X001126Y008843D01*
X001116Y008868D01*
X001110Y008894D01*
X001108Y008920D01*
X001108Y010101D02*
X001110Y010127D01*
X001116Y010153D01*
X001126Y010178D01*
X001139Y010201D01*
X001155Y010221D01*
X001175Y010239D01*
X001197Y010254D01*
X001220Y010266D01*
X001246Y010274D01*
X001272Y010278D01*
X001298Y010278D01*
X001324Y010274D01*
X001350Y010266D01*
X001374Y010254D01*
X001395Y010239D01*
X001415Y010221D01*
X001431Y010201D01*
X001444Y010178D01*
X001454Y010153D01*
X001460Y010127D01*
X001462Y010101D01*
X001460Y010075D01*
X001454Y010049D01*
X001444Y010024D01*
X001431Y010001D01*
X001415Y009981D01*
X001395Y009963D01*
X001373Y009948D01*
X001350Y009936D01*
X001324Y009928D01*
X001298Y009924D01*
X001272Y009924D01*
X001246Y009928D01*
X001220Y009936D01*
X001196Y009948D01*
X001175Y009963D01*
X001155Y009981D01*
X001139Y010001D01*
X001126Y010024D01*
X001116Y010049D01*
X001110Y010075D01*
X001108Y010101D01*
X002762Y017569D02*
X002933Y017640D01*
X003107Y017703D01*
X003284Y017758D01*
X003463Y017804D01*
X003644Y017843D01*
X003827Y017873D01*
X004010Y017894D01*
X004195Y017907D01*
X004380Y017911D01*
X000881Y016186D02*
X000812Y016005D01*
X000752Y015821D01*
X000701Y015634D01*
X000660Y015445D01*
X000627Y015254D01*
X000604Y015062D01*
X000590Y014869D01*
X000585Y014676D01*
M02*
