G75*
G70*
%OFA0B0*%
%FSLAX24Y24*%
%IPPOS*%
%LPD*%
%AMOC8*
5,1,8,0,0,1.08239X$1,22.5*
%
%ADD10R,0.0828X0.0592*%
%ADD11R,0.0316X0.0946*%
%ADD12R,0.0297X0.0552*%
%ADD13R,0.0631X0.0218*%
%ADD14R,0.0828X0.0789*%
%ADD15R,0.0340X0.0880*%
%ADD16R,0.0671X0.0356*%
%ADD17R,0.0316X0.0474*%
%ADD18R,0.0395X0.0474*%
%ADD19C,0.0434*%
%ADD20C,0.0820*%
%ADD21C,0.0830*%
D10*
X010105Y002128D03*
X011364Y002128D03*
X011364Y004294D03*
X010105Y004294D03*
D11*
X010185Y005337D03*
X010685Y005337D03*
X011185Y005337D03*
X011185Y007384D03*
X010685Y007384D03*
X010185Y007384D03*
X009685Y007384D03*
X009685Y005337D03*
D12*
X002309Y006349D03*
X001935Y006349D03*
X001561Y006349D03*
X001561Y007373D03*
X002309Y007373D03*
D13*
X002278Y012949D03*
X002278Y013205D03*
X002278Y013461D03*
X002278Y013717D03*
X002278Y013973D03*
D14*
X001235Y015036D03*
X001235Y011886D03*
D15*
X003485Y009931D03*
X003985Y009931D03*
X004485Y009931D03*
X004985Y009931D03*
X005485Y009931D03*
X005985Y009931D03*
X006485Y009931D03*
X006985Y009931D03*
X007485Y009931D03*
X007985Y009931D03*
X008485Y009931D03*
X008985Y009931D03*
X008985Y008891D03*
X008485Y008891D03*
X007985Y008891D03*
X007485Y008891D03*
X006985Y008891D03*
X006485Y008891D03*
X005985Y008891D03*
X005485Y008891D03*
X004985Y008891D03*
X004485Y008891D03*
X003985Y008891D03*
X003485Y008891D03*
X003485Y004931D03*
X003985Y004931D03*
X004485Y004931D03*
X004985Y004931D03*
X005485Y004931D03*
X005985Y004931D03*
X006485Y004931D03*
X006985Y004931D03*
X007485Y004931D03*
X007985Y004931D03*
X008485Y004931D03*
X008985Y004931D03*
X008985Y013891D03*
X008485Y013891D03*
X007985Y013891D03*
X007485Y013891D03*
X006985Y013891D03*
X006485Y013891D03*
X005985Y013891D03*
X005485Y013891D03*
X004985Y013891D03*
X004485Y013891D03*
X003985Y013891D03*
X003485Y013891D03*
D16*
X001974Y010397D03*
X001974Y009806D03*
X001974Y008625D03*
D17*
X000891Y008074D03*
X000891Y010948D03*
D18*
X001718Y010948D03*
X001718Y008074D03*
D19*
X001285Y008920D03*
X001285Y010101D03*
D20*
X003735Y014961D03*
X003735Y015961D03*
X004735Y015961D03*
X004735Y014961D03*
X005735Y014961D03*
X005735Y015961D03*
X006735Y015961D03*
X006735Y014961D03*
X007735Y014961D03*
X007735Y015961D03*
X008735Y015961D03*
X008735Y014961D03*
X008735Y003911D03*
X008735Y002911D03*
X007735Y002911D03*
X007735Y003911D03*
X006735Y003911D03*
X006735Y002911D03*
X007235Y001911D03*
X006235Y001911D03*
X005735Y002911D03*
X005735Y003911D03*
X004735Y003911D03*
X004735Y002911D03*
X005235Y001911D03*
X003735Y002911D03*
X003735Y003911D03*
D21*
X002635Y001311D03*
X004585Y000811D03*
X006585Y000811D03*
X008585Y000811D03*
X010535Y001311D03*
X010535Y016861D03*
X008585Y017361D03*
X006585Y017361D03*
X004585Y017361D03*
X002635Y016861D03*
M02*
