G75*
G70*
%OFA0B0*%
%FSLAX24Y24*%
%IPPOS*%
%LPD*%
%AMOC8*
5,1,8,0,0,1.08239X$1,22.5*
%
%ADD10R,0.0748X0.0512*%
%ADD11R,0.0236X0.0866*%
%ADD12R,0.0217X0.0472*%
%ADD13R,0.0551X0.0138*%
%ADD14R,0.0748X0.0709*%
%ADD15R,0.0260X0.0800*%
%ADD16R,0.0591X0.0276*%
%ADD17R,0.0236X0.0394*%
%ADD18R,0.0315X0.0394*%
%ADD19C,0.0740*%
%ADD20C,0.0100*%
%ADD21C,0.0270*%
%ADD22C,0.0200*%
%ADD23C,0.0750*%
%ADD24C,0.0110*%
D10*
X010105Y002128D03*
X011364Y002128D03*
X011364Y004294D03*
X010105Y004294D03*
D11*
X010185Y005337D03*
X010685Y005337D03*
X011185Y005337D03*
X011185Y007384D03*
X010685Y007384D03*
X010185Y007384D03*
X009685Y007384D03*
X009685Y005337D03*
D12*
X002309Y006349D03*
X001935Y006349D03*
X001561Y006349D03*
X001561Y007373D03*
X002309Y007373D03*
D13*
X002278Y012949D03*
X002278Y013205D03*
X002278Y013461D03*
X002278Y013717D03*
X002278Y013973D03*
D14*
X001235Y015036D03*
X001235Y011886D03*
D15*
X003485Y009931D03*
X003985Y009931D03*
X004485Y009931D03*
X004985Y009931D03*
X005485Y009931D03*
X005985Y009931D03*
X006485Y009931D03*
X006985Y009931D03*
X007485Y009931D03*
X007985Y009931D03*
X008485Y009931D03*
X008985Y009931D03*
X008985Y008891D03*
X008485Y008891D03*
X007985Y008891D03*
X007485Y008891D03*
X006985Y008891D03*
X006485Y008891D03*
X005985Y008891D03*
X005485Y008891D03*
X004985Y008891D03*
X004485Y008891D03*
X003985Y008891D03*
X003485Y008891D03*
X003485Y004931D03*
X003985Y004931D03*
X004485Y004931D03*
X004985Y004931D03*
X005485Y004931D03*
X005985Y004931D03*
X006485Y004931D03*
X006985Y004931D03*
X007485Y004931D03*
X007985Y004931D03*
X008485Y004931D03*
X008985Y004931D03*
X008985Y013891D03*
X008485Y013891D03*
X007985Y013891D03*
X007485Y013891D03*
X006985Y013891D03*
X006485Y013891D03*
X005985Y013891D03*
X005485Y013891D03*
X004985Y013891D03*
X004485Y013891D03*
X003985Y013891D03*
X003485Y013891D03*
D16*
X001974Y010397D03*
X001974Y009806D03*
X001974Y008625D03*
D17*
X000891Y008074D03*
X000891Y010948D03*
D18*
X001718Y010948D03*
X001718Y008074D03*
D19*
X003735Y003911D03*
X003735Y002911D03*
X004735Y002911D03*
X004735Y003911D03*
X005735Y003911D03*
X005735Y002911D03*
X006235Y001911D03*
X006735Y002911D03*
X006735Y003911D03*
X007735Y003911D03*
X007735Y002911D03*
X007235Y001911D03*
X008735Y002911D03*
X008735Y003911D03*
X005235Y001911D03*
X005735Y014961D03*
X005735Y015961D03*
X006735Y015961D03*
X006735Y014961D03*
X007735Y014961D03*
X007735Y015961D03*
X008735Y015961D03*
X008735Y014961D03*
X004735Y014961D03*
X004735Y015961D03*
X003735Y015961D03*
X003735Y014961D03*
D20*
X003585Y014461D02*
X003985Y014461D01*
X004235Y014711D01*
X004235Y015211D01*
X004485Y015461D01*
X005235Y015461D01*
X005735Y015961D01*
X005485Y015461D02*
X005235Y015211D01*
X005235Y014761D01*
X004985Y014511D01*
X004985Y013891D01*
X004485Y013891D02*
X004485Y013461D01*
X004685Y013261D01*
X004735Y012961D02*
X004985Y013211D01*
X005385Y013211D01*
X005085Y012961D02*
X004885Y012761D01*
X003735Y012761D01*
X003485Y012511D01*
X003485Y009931D01*
X003285Y009411D02*
X002885Y009011D01*
X001785Y009011D01*
X001973Y007373D02*
X001561Y007373D01*
X001973Y007373D02*
X001985Y007361D01*
X002309Y007373D02*
X003023Y007373D01*
X003685Y006711D01*
X003485Y007361D02*
X003485Y008891D01*
X003285Y009411D02*
X004185Y009411D01*
X004235Y009461D01*
X004235Y011661D01*
X003985Y012161D02*
X003985Y009931D01*
X004485Y009931D02*
X004485Y012211D01*
X004185Y012511D01*
X003985Y012161D02*
X003735Y012411D01*
X004235Y012961D02*
X003985Y013211D01*
X003985Y013891D01*
X003485Y013891D02*
X003485Y014361D01*
X003585Y014461D01*
X004235Y012961D02*
X004735Y012961D01*
X004685Y012511D02*
X004985Y012211D01*
X004985Y009931D01*
X005485Y009931D02*
X005485Y011511D01*
X005735Y011761D01*
X005735Y014961D01*
X005485Y015461D02*
X008235Y015461D01*
X008735Y015961D01*
X008735Y014961D02*
X008235Y014511D01*
X008235Y011911D01*
X008035Y011711D01*
X007585Y011711D01*
X006985Y011111D01*
X006985Y009931D01*
X007285Y009411D02*
X007235Y009361D01*
X007235Y008361D01*
X007135Y008261D01*
X007385Y008011D02*
X006835Y008011D01*
X006735Y008111D01*
X006735Y011211D01*
X007485Y011961D01*
X007735Y011961D01*
X007485Y011961D02*
X007485Y013891D01*
X007235Y014511D02*
X007235Y012011D01*
X006485Y011261D01*
X006485Y009931D01*
X005985Y009931D02*
X005985Y011361D01*
X006235Y011611D01*
X006235Y014511D01*
X006735Y014961D01*
X007235Y014511D02*
X007735Y014961D01*
X008485Y014361D02*
X008485Y013891D01*
X008485Y014361D02*
X008585Y014461D01*
X008985Y014461D01*
X009485Y014961D01*
X009485Y015011D01*
X008985Y013961D02*
X008985Y013891D01*
X008985Y013261D01*
X009535Y012761D02*
X009435Y012661D01*
X009435Y012161D01*
X009785Y011811D01*
X009785Y011511D01*
X009685Y011411D01*
X008935Y011411D01*
X008235Y010711D01*
X008235Y008411D01*
X008285Y008361D01*
X008435Y008361D01*
X008485Y008411D01*
X008485Y008891D01*
X008735Y009361D02*
X008735Y007061D01*
X008185Y006511D01*
X008185Y006261D01*
X008485Y005961D01*
X008485Y004931D01*
X008985Y004931D02*
X009005Y004911D01*
X009235Y004911D01*
X009385Y005061D01*
X009385Y005261D01*
X009461Y005337D01*
X009685Y005337D01*
X009685Y005911D01*
X009785Y006011D01*
X009935Y006011D01*
X010035Y006261D02*
X010185Y006111D01*
X010185Y005337D01*
X010685Y005337D02*
X010685Y006061D01*
X010585Y006461D02*
X010685Y006561D01*
X010685Y007384D01*
X010685Y008211D01*
X010435Y008461D01*
X009785Y008461D01*
X009485Y008211D02*
X009585Y008111D01*
X009385Y007911D01*
X009335Y007911D01*
X009585Y008111D02*
X009685Y008011D01*
X009685Y007384D01*
X010185Y007384D02*
X010185Y008211D01*
X010335Y008911D02*
X009635Y008911D01*
X009485Y008761D01*
X009485Y008211D01*
X009285Y008911D02*
X009005Y008911D01*
X008985Y008891D01*
X008735Y009361D02*
X008685Y009411D01*
X008535Y009411D01*
X008485Y009461D01*
X008485Y009931D01*
X008485Y010611D01*
X008685Y010811D01*
X009385Y010811D01*
X010035Y010761D02*
X009335Y010061D01*
X009335Y009911D01*
X009005Y009911D01*
X008985Y009931D01*
X008965Y009911D01*
X009335Y009911D02*
X009335Y009561D01*
X009635Y009261D02*
X009285Y008911D01*
X009635Y009261D02*
X009635Y010011D01*
X010635Y011011D01*
X010635Y011311D01*
X010035Y010761D02*
X010035Y011911D01*
X009735Y012211D01*
X009735Y012511D01*
X009535Y012761D02*
X010085Y012761D01*
X010285Y012961D01*
X010285Y013811D01*
X011135Y014661D01*
X011735Y014411D02*
X011735Y009911D01*
X010885Y009461D02*
X010885Y012161D01*
X011135Y012411D01*
X009885Y013061D02*
X009885Y016211D01*
X009635Y016461D01*
X009485Y011711D02*
X008935Y011711D01*
X008335Y011111D01*
X007885Y011111D01*
X007735Y010961D01*
X007735Y008411D01*
X007985Y008161D01*
X007985Y007761D02*
X007435Y007761D01*
X007385Y008011D02*
X007485Y008111D01*
X007485Y008891D01*
X007435Y009411D02*
X007285Y009411D01*
X007435Y009411D02*
X007485Y009461D01*
X007485Y009931D01*
X007985Y009931D02*
X007985Y010561D01*
X008035Y010611D01*
X008035Y010861D01*
X009935Y009811D02*
X010435Y009811D01*
X010435Y009411D02*
X009935Y009411D01*
X010335Y008911D02*
X010885Y009461D01*
X011135Y008511D02*
X011135Y008211D01*
X011185Y008161D01*
X011185Y007384D01*
X010585Y006461D02*
X010085Y006461D01*
X010035Y006511D01*
X009485Y006511D01*
X009235Y005961D02*
X008735Y005461D01*
X008735Y004461D01*
X008785Y004411D01*
X008985Y004411D01*
X009235Y004161D01*
X009235Y003611D01*
X009035Y003411D01*
X008485Y003411D01*
X008235Y003161D01*
X008235Y002661D01*
X007985Y002411D01*
X007435Y002411D01*
X007235Y002111D01*
X007235Y001911D01*
X007835Y001961D02*
X008535Y001961D01*
X007735Y002911D02*
X007235Y003411D01*
X007235Y004161D01*
X006985Y004411D01*
X006535Y004411D01*
X006485Y004461D01*
X006485Y004931D01*
X006235Y004461D02*
X006235Y005411D01*
X003985Y007661D01*
X003985Y008891D01*
X004485Y008891D02*
X004485Y007761D01*
X005635Y006611D01*
X006735Y006611D01*
X007735Y005611D01*
X007735Y003911D01*
X008235Y004411D02*
X008235Y005811D01*
X007135Y006911D01*
X005885Y006911D01*
X004985Y007811D01*
X004985Y008891D01*
X005235Y008061D02*
X005435Y007861D01*
X006335Y007861D01*
X006785Y007411D01*
X008135Y007411D01*
X007435Y007161D02*
X007935Y006661D01*
X007485Y006211D02*
X007985Y005711D01*
X007985Y004931D01*
X008235Y004411D02*
X008735Y003911D01*
X009485Y004511D02*
X009685Y004711D01*
X009685Y005337D01*
X010035Y006261D02*
X008535Y006261D01*
X008485Y006311D01*
X007485Y005511D02*
X007485Y004931D01*
X007485Y005511D02*
X006685Y006311D01*
X006985Y005661D02*
X006985Y004931D01*
X006235Y004461D02*
X006735Y003961D01*
X006735Y003911D01*
X006235Y004161D02*
X006235Y003411D01*
X006735Y002911D01*
X006235Y004161D02*
X005985Y004411D01*
X005985Y004931D01*
X005485Y004931D02*
X005485Y005661D01*
X005235Y005611D02*
X003485Y007361D01*
X002896Y006349D02*
X003260Y005986D01*
X002896Y006349D02*
X002309Y006349D01*
X001935Y006349D01*
X001685Y005811D02*
X001435Y005811D01*
X001035Y005411D01*
X001035Y004211D01*
X001985Y003261D01*
X003485Y004931D02*
X003485Y005461D01*
X003635Y005611D01*
X004585Y005611D01*
X004735Y005461D01*
X004735Y003911D01*
X005235Y004161D02*
X004985Y004411D01*
X004985Y004931D01*
X005235Y004411D02*
X005235Y005611D01*
X004485Y004931D02*
X004485Y004411D01*
X004235Y004161D01*
X004235Y003411D01*
X003735Y002911D01*
X003735Y003911D02*
X003985Y004161D01*
X003985Y004931D01*
X005235Y004411D02*
X005735Y003911D01*
X005235Y004161D02*
X005235Y003411D01*
X004735Y002911D01*
X006135Y007161D02*
X007435Y007161D01*
X005235Y008061D02*
X005235Y011261D01*
X005735Y011211D02*
X005735Y011461D01*
X005985Y011711D01*
X005985Y013111D01*
X010685Y005337D02*
X010685Y004411D01*
X010567Y004294D01*
X010105Y004294D01*
X010485Y003761D02*
X009985Y003261D01*
X009685Y003261D01*
X011185Y004761D02*
X011185Y005061D01*
X011535Y005061D01*
X011585Y005011D01*
X011185Y004761D02*
X011364Y004581D01*
X011364Y004294D01*
X011185Y005061D02*
X011185Y005337D01*
D21*
X001535Y003211D03*
X001985Y003261D03*
X002835Y004261D03*
X002835Y004711D03*
X001685Y005811D03*
X001335Y004811D03*
X001985Y007361D03*
X001335Y008211D03*
X001785Y009011D03*
X001985Y009311D03*
X002835Y011761D03*
X001985Y012461D03*
X001235Y013461D03*
X003735Y012411D03*
X004185Y012511D03*
X004685Y012511D03*
X005085Y012961D03*
X005385Y013211D03*
X005985Y013111D03*
X004685Y013261D03*
X004235Y011661D03*
X005235Y011261D03*
X005735Y011211D03*
X007735Y011961D03*
X008035Y010861D03*
X009335Y009561D03*
X009935Y009411D03*
X009935Y009811D03*
X010435Y009811D03*
X010435Y009411D03*
X011135Y008511D03*
X010185Y008211D03*
X009785Y008461D03*
X009335Y007911D03*
X009485Y006511D03*
X009235Y005961D03*
X008485Y006311D03*
X007935Y006661D03*
X007485Y006211D03*
X006985Y005661D03*
X006685Y006311D03*
X006135Y007161D03*
X007135Y008261D03*
X007435Y007761D03*
X007985Y007761D03*
X008135Y007411D03*
X007985Y008161D03*
X009385Y010811D03*
X009485Y011711D03*
X009735Y012511D03*
X009885Y013061D03*
X010635Y012961D03*
X011135Y012411D03*
X010635Y011311D03*
X011185Y011011D03*
X011735Y009911D03*
X012235Y007961D03*
X012235Y006811D03*
X011585Y005011D03*
X010685Y006061D03*
X009935Y006011D03*
X009485Y004511D03*
X009685Y003261D03*
X010485Y003761D03*
X011235Y003611D03*
X007835Y001961D03*
X005485Y005661D03*
X004185Y006111D03*
X003685Y006711D03*
X004185Y002061D03*
X004335Y001361D03*
X003935Y000811D03*
X008985Y013261D03*
X009485Y015011D03*
X009635Y016461D03*
X011135Y014661D03*
X011735Y014411D03*
D22*
X012335Y014311D02*
X012335Y009511D01*
X011885Y009061D01*
X011885Y006361D01*
X012335Y005911D01*
X012335Y004061D01*
X010935Y002661D01*
X009685Y002661D01*
X008585Y001561D01*
X008585Y000811D01*
X008585Y001561D02*
X007835Y001561D01*
X007635Y001361D01*
X004785Y001361D01*
X004185Y001961D01*
X004185Y002061D01*
X004335Y001361D02*
X003935Y001361D01*
X002835Y002461D01*
X002835Y004261D01*
X002835Y004711D02*
X002735Y004811D01*
X001335Y004811D01*
X001535Y003211D02*
X003935Y000811D01*
X003435Y002361D02*
X004935Y002361D01*
X005035Y002461D01*
X005435Y002461D01*
X005535Y002361D01*
X005785Y002361D01*
X006235Y001911D01*
X008535Y001961D02*
X009535Y002961D01*
X010585Y002961D01*
X011235Y003611D01*
X012235Y006811D02*
X012235Y007961D01*
X011185Y008911D02*
X011185Y011011D01*
X010635Y011311D02*
X010635Y012961D01*
X012335Y014311D02*
X010385Y016261D01*
X010235Y016261D01*
X009985Y016511D01*
X009985Y016661D01*
X009285Y017361D01*
X008585Y017361D01*
X006585Y017361D02*
X006585Y016761D01*
X003685Y016761D01*
X002735Y015811D01*
X002735Y014011D01*
X002735Y011861D01*
X002835Y011761D01*
X002735Y010911D02*
X002735Y010561D01*
X002585Y010411D01*
X001988Y010411D01*
X001974Y010397D01*
X001959Y010411D01*
X001938Y010411D01*
X001585Y010411D01*
X001435Y010561D01*
X000885Y010561D01*
X000835Y010511D01*
X000835Y008711D01*
X001335Y008211D01*
X001985Y009311D02*
X001974Y009322D01*
X001974Y009806D01*
X001974Y010397D02*
X001938Y010411D01*
X002735Y010911D02*
X001985Y011661D01*
X001985Y012461D01*
X001746Y012949D02*
X001235Y013461D01*
X001746Y012949D02*
X002278Y012949D01*
X002278Y013973D02*
X002696Y013973D01*
X002706Y013974D01*
X002715Y013978D01*
X002723Y013984D01*
X002729Y013992D01*
X002733Y014001D01*
X002734Y014011D01*
X003385Y006111D02*
X003260Y005986D01*
X003185Y005911D01*
X003185Y002611D01*
X003435Y002361D01*
X003385Y006111D02*
X004185Y006111D01*
X011135Y008511D02*
X011135Y008861D01*
X011185Y008911D01*
D23*
X010535Y001311D03*
X008585Y000811D03*
X006585Y000811D03*
X004585Y000811D03*
X002635Y001311D03*
X002635Y016861D03*
X004585Y017361D03*
X006585Y017361D03*
X008585Y017361D03*
X010535Y016861D03*
D24*
X009635Y016461D02*
X009335Y016761D01*
X006585Y016761D01*
M02*
