%
M48
M72
T01C0.0130
T02C0.0354
T03C0.0394
T04C0.0400
%
T01
X1535Y3211
X1985Y3261
X2835Y4261
X2835Y4711
X1685Y5811
X1335Y4811
X1985Y7361
X1335Y8211
X1785Y9011
X1985Y9311
X2835Y11761
X1985Y12461
X1235Y13461
X3735Y12411
X4185Y12511
X4685Y12511
X5085Y12961
X5385Y13211
X5985Y13111
X4685Y13261
X4235Y11661
X5235Y11261
X5735Y11211
X7735Y11961
X8035Y10861
X9335Y9561
X9935Y9411
X9935Y9811
X10435Y9811
X10435Y9411
X11135Y8511
X10185Y8211
X9785Y8461
X9335Y7911
X9485Y6511
X9235Y5961
X8485Y6311
X7935Y6661
X7485Y6211
X6985Y5661
X6685Y6311
X6135Y7161
X7135Y8261
X7435Y7761
X7985Y7761
X8135Y7411
X7985Y8161
X9385Y10811
X9485Y11711
X9735Y12511
X9885Y13061
X10635Y12961
X11135Y12411
X10635Y11311
X11185Y11011
X11735Y9911
X12235Y7961
X12235Y6811
X11585Y5011
X10685Y6061
X9935Y6011
X9485Y4511
X9685Y3261
X10485Y3761
X11235Y3611
X7835Y1961
X5485Y5661
X4185Y6111
X3685Y6711
X4185Y2061
X4335Y1361
X3935Y811
X8985Y13261
X9485Y15011
X9635Y16461
X11135Y14661
X11735Y14411
T02
X1285Y10101
X1285Y8920
T03
X2635Y1311
X4585Y811
X6585Y811
X8585Y811
X10535Y1311
X10535Y16861
X8585Y17361
X6585Y17361
X4585Y17361
X2635Y16861
T04
X3735Y15961
X3735Y14961
X4735Y14961
X4735Y15961
X5735Y15961
X5735Y14961
X6735Y14961
X6735Y15961
X7735Y15961
X7735Y14961
X8735Y14961
X8735Y15961
X8735Y3911
X8735Y2911
X7735Y2911
X7735Y3911
X6735Y3911
X6735Y2911
X7235Y1911
X6235Y1911
X5735Y2911
X5735Y3911
X4735Y3911
X4735Y2911
X5235Y1911
X3735Y2911
X3735Y3911
M30
