G75*
G70*
%OFA0B0*%
%FSLAX24Y24*%
%IPPOS*%
%LPD*%
%AMOC8*
5,1,8,0,0,1.08239X$1,22.5*
%
%ADD10C,0.0040*%
%ADD11C,0.0000*%
%ADD12C,0.0060*%
%ADD13C,0.0080*%
%ADD14C,0.0157*%
%ADD15R,0.0240X0.0620*%
%ADD16C,0.0050*%
%ADD17R,0.0079X0.0079*%
D10*
X000705Y005081D02*
X000705Y005541D01*
X000935Y005541D01*
X001011Y005464D01*
X001011Y005311D01*
X000935Y005234D01*
X000705Y005234D01*
X000858Y005234D02*
X001011Y005081D01*
X001165Y005081D02*
X001165Y005541D01*
X001318Y005234D02*
X001472Y005081D01*
X001472Y005541D01*
X001318Y005234D02*
X001165Y005081D01*
X011355Y003491D02*
X011355Y003031D01*
X011355Y003261D02*
X011508Y003261D01*
X011355Y003491D02*
X011661Y003491D01*
X011815Y003491D02*
X012122Y003491D01*
X011968Y003261D02*
X011815Y003261D01*
X011815Y003031D02*
X011815Y003491D01*
D11*
X012735Y005661D02*
X012735Y014676D01*
X011491Y017128D02*
X010250Y017625D01*
X008764Y017911D02*
X004380Y017911D01*
X002762Y017569D02*
X001818Y017152D01*
X001740Y017116D01*
X001664Y017075D01*
X001590Y017031D01*
X001518Y016984D01*
X001448Y016933D01*
X001381Y016878D01*
X001317Y016821D01*
X001255Y016761D01*
X001196Y016697D01*
X001141Y016631D01*
X001089Y016563D01*
X001040Y016492D01*
X000994Y016418D01*
X000953Y016343D01*
X000914Y016266D01*
X000880Y016187D01*
X000585Y014676D02*
X000585Y005661D01*
X011995Y001887D02*
X012167Y002339D01*
X012317Y002799D01*
X012444Y003266D01*
X012548Y003738D01*
X012630Y004215D01*
X012688Y004695D01*
X012723Y005177D01*
X012735Y005661D01*
X001324Y001887D02*
X001153Y002339D01*
X001003Y002799D01*
X000876Y003266D01*
X000772Y003738D01*
X000690Y004215D01*
X000632Y004695D01*
X000597Y005177D01*
X000585Y005661D01*
X001108Y008920D02*
X001110Y008946D01*
X001116Y008972D01*
X001126Y008997D01*
X001139Y009020D01*
X001155Y009040D01*
X001175Y009058D01*
X001197Y009073D01*
X001220Y009085D01*
X001246Y009093D01*
X001272Y009097D01*
X001298Y009097D01*
X001324Y009093D01*
X001350Y009085D01*
X001374Y009073D01*
X001395Y009058D01*
X001415Y009040D01*
X001431Y009020D01*
X001444Y008997D01*
X001454Y008972D01*
X001460Y008946D01*
X001462Y008920D01*
X001460Y008894D01*
X001454Y008868D01*
X001444Y008843D01*
X001431Y008820D01*
X001415Y008800D01*
X001395Y008782D01*
X001373Y008767D01*
X001350Y008755D01*
X001324Y008747D01*
X001298Y008743D01*
X001272Y008743D01*
X001246Y008747D01*
X001220Y008755D01*
X001196Y008767D01*
X001175Y008782D01*
X001155Y008800D01*
X001139Y008820D01*
X001126Y008843D01*
X001116Y008868D01*
X001110Y008894D01*
X001108Y008920D01*
X001108Y010101D02*
X001110Y010127D01*
X001116Y010153D01*
X001126Y010178D01*
X001139Y010201D01*
X001155Y010221D01*
X001175Y010239D01*
X001197Y010254D01*
X001220Y010266D01*
X001246Y010274D01*
X001272Y010278D01*
X001298Y010278D01*
X001324Y010274D01*
X001350Y010266D01*
X001374Y010254D01*
X001395Y010239D01*
X001415Y010221D01*
X001431Y010201D01*
X001444Y010178D01*
X001454Y010153D01*
X001460Y010127D01*
X001462Y010101D01*
X001460Y010075D01*
X001454Y010049D01*
X001444Y010024D01*
X001431Y010001D01*
X001415Y009981D01*
X001395Y009963D01*
X001373Y009948D01*
X001350Y009936D01*
X001324Y009928D01*
X001298Y009924D01*
X001272Y009924D01*
X001246Y009928D01*
X001220Y009936D01*
X001196Y009948D01*
X001175Y009963D01*
X001155Y009981D01*
X001139Y010001D01*
X001126Y010024D01*
X001116Y010049D01*
X001110Y010075D01*
X001108Y010101D01*
X002762Y017569D02*
X002933Y017640D01*
X003107Y017703D01*
X003284Y017758D01*
X003463Y017804D01*
X003644Y017843D01*
X003827Y017873D01*
X004010Y017894D01*
X004195Y017907D01*
X004380Y017911D01*
X000881Y016186D02*
X000812Y016005D01*
X000752Y015821D01*
X000701Y015634D01*
X000660Y015445D01*
X000627Y015254D01*
X000604Y015062D01*
X000590Y014869D01*
X000585Y014676D01*
X005541Y000132D02*
X005892Y000116D01*
X006244Y000111D01*
X006859Y000111D01*
X005541Y000132D02*
X005396Y000145D01*
X003282Y000423D01*
X002376Y000749D02*
X002283Y000799D01*
X002192Y000853D01*
X002104Y000911D01*
X002019Y000973D01*
X001937Y001039D01*
X001858Y001110D01*
X001783Y001184D01*
X001711Y001261D01*
X001643Y001342D01*
X001579Y001426D01*
X001519Y001513D01*
X001464Y001602D01*
X001413Y001695D01*
X001366Y001789D01*
X001324Y001886D01*
X002376Y000750D02*
X002498Y000685D01*
X002623Y000625D01*
X002751Y000572D01*
X002881Y000525D01*
X003013Y000485D01*
X003147Y000450D01*
X003282Y000422D01*
X008212Y000196D02*
X010037Y000473D01*
X010942Y000750D02*
X011035Y000800D01*
X011126Y000853D01*
X011214Y000912D01*
X011299Y000974D01*
X011381Y001040D01*
X011460Y001110D01*
X011535Y001184D01*
X011607Y001262D01*
X011675Y001342D01*
X011739Y001426D01*
X011799Y001513D01*
X011854Y001603D01*
X011906Y001695D01*
X011952Y001790D01*
X011994Y001886D01*
X010942Y000750D02*
X010819Y000692D01*
X010694Y000640D01*
X010566Y000594D01*
X010436Y000554D01*
X010304Y000521D01*
X010171Y000493D01*
X010036Y000472D01*
X008213Y000196D02*
X007763Y000148D01*
X007312Y000120D01*
X006860Y000111D01*
X010250Y017625D02*
X010072Y017691D01*
X009891Y017749D01*
X009707Y017798D01*
X009521Y017839D01*
X009333Y017870D01*
X009144Y017893D01*
X008954Y017906D01*
X008764Y017911D01*
X011491Y017128D02*
X011565Y017096D01*
X011638Y017061D01*
X011709Y017022D01*
X011778Y016980D01*
X011845Y016935D01*
X011909Y016887D01*
X011972Y016836D01*
X012032Y016781D01*
X012089Y016724D01*
X012143Y016665D01*
X012195Y016603D01*
X012244Y016538D01*
X012289Y016472D01*
X012332Y016403D01*
X012371Y016332D01*
X012406Y016260D01*
X012439Y016186D01*
X012508Y016005D01*
X012568Y015821D01*
X012619Y015634D01*
X012660Y015445D01*
X012693Y015254D01*
X012716Y015062D01*
X012730Y014869D01*
X012735Y014676D01*
D12*
X010553Y014247D02*
X010316Y014247D01*
X010316Y013775D02*
X010553Y013775D01*
X010421Y012079D02*
X010421Y011843D01*
X009948Y011843D02*
X009948Y012079D01*
X009948Y010779D02*
X009948Y010543D01*
X010421Y010543D02*
X010421Y010779D01*
X010598Y008629D02*
X010598Y008393D01*
X011071Y008393D02*
X011071Y008629D01*
X011416Y006547D02*
X011653Y006547D01*
X011653Y006075D02*
X011416Y006075D01*
X011416Y005897D02*
X011653Y005897D01*
X011653Y005425D02*
X011416Y005425D01*
X009235Y004161D02*
X009235Y002661D01*
X008985Y002411D01*
X008485Y002411D01*
X008235Y002661D01*
X008235Y004161D01*
X008485Y004411D01*
X008985Y004411D01*
X009235Y004161D01*
X008235Y004161D02*
X007985Y004411D01*
X007485Y004411D01*
X007235Y004161D01*
X007235Y002661D01*
X007485Y002411D01*
X007985Y002411D01*
X008235Y002661D01*
X008466Y002197D02*
X008703Y002197D01*
X008703Y001725D02*
X008466Y001725D01*
X007235Y002661D02*
X006985Y002411D01*
X006485Y002411D01*
X006235Y002661D01*
X006235Y004161D01*
X006485Y004411D01*
X006985Y004411D01*
X007235Y004161D01*
X006235Y004161D02*
X005985Y004411D01*
X005485Y004411D01*
X005235Y004161D01*
X005235Y002661D01*
X005485Y002411D01*
X005985Y002411D01*
X006235Y002661D01*
X005235Y002661D02*
X004985Y002411D01*
X004485Y002411D01*
X004235Y002661D01*
X004235Y004161D01*
X004485Y004411D01*
X004985Y004411D01*
X005235Y004161D01*
X004235Y004161D02*
X003985Y004411D01*
X003485Y004411D01*
X003235Y004161D01*
X003235Y002661D01*
X003485Y002411D01*
X003985Y002411D01*
X004235Y002661D01*
X004303Y002097D02*
X004066Y002097D01*
X004066Y001625D02*
X004303Y001625D01*
X005568Y008610D02*
X005735Y008777D01*
X005401Y009111D02*
X005234Y008944D01*
X006979Y009631D02*
X008390Y009631D01*
X007170Y012691D02*
X007172Y012720D01*
X007178Y012748D01*
X007187Y012775D01*
X007201Y012800D01*
X007217Y012824D01*
X007237Y012844D01*
X007259Y012863D01*
X007283Y012877D01*
X007310Y012889D01*
X007337Y012897D01*
X007366Y012901D01*
X007394Y012901D01*
X007423Y012897D01*
X007450Y012889D01*
X007477Y012877D01*
X007501Y012863D01*
X007523Y012844D01*
X007543Y012824D01*
X007559Y012800D01*
X007573Y012775D01*
X007582Y012748D01*
X007588Y012720D01*
X007590Y012691D01*
X007588Y012662D01*
X007582Y012634D01*
X007573Y012607D01*
X007559Y012582D01*
X007543Y012558D01*
X007523Y012538D01*
X007501Y012519D01*
X007477Y012505D01*
X007450Y012493D01*
X007423Y012485D01*
X007394Y012481D01*
X007366Y012481D01*
X007337Y012485D01*
X007310Y012493D01*
X007283Y012505D01*
X007259Y012519D01*
X007237Y012538D01*
X007217Y012558D01*
X007201Y012582D01*
X007187Y012607D01*
X007178Y012634D01*
X007172Y012662D01*
X007170Y012691D01*
X006979Y012991D02*
X008390Y012991D01*
X007853Y013275D02*
X007616Y013275D01*
X007616Y013747D02*
X007853Y013747D01*
X007985Y014461D02*
X007485Y014461D01*
X007235Y014711D01*
X007235Y016211D01*
X007485Y016461D01*
X007985Y016461D01*
X008235Y016211D01*
X008485Y016461D01*
X008985Y016461D01*
X009235Y016211D01*
X009235Y014711D01*
X008985Y014461D01*
X008485Y014461D01*
X008235Y014711D01*
X008235Y016211D01*
X007235Y016211D02*
X006985Y016461D01*
X006485Y016461D01*
X006235Y016211D01*
X006235Y014711D01*
X006485Y014461D01*
X006985Y014461D01*
X007235Y014711D01*
X007985Y014461D02*
X008235Y014711D01*
X006235Y014711D02*
X005985Y014461D01*
X005485Y014461D01*
X005235Y014711D01*
X005235Y016211D01*
X005485Y016461D01*
X005985Y016461D01*
X006235Y016211D01*
X005235Y016211D02*
X004985Y016461D01*
X004485Y016461D01*
X004235Y016211D01*
X004235Y014711D01*
X004485Y014461D01*
X004985Y014461D01*
X005235Y014711D01*
X004235Y014711D02*
X003985Y014461D01*
X003485Y014461D01*
X003235Y014711D01*
X003235Y016211D01*
X003485Y016461D01*
X003985Y016461D01*
X004235Y016211D01*
D13*
X006494Y008351D02*
X006494Y007898D01*
X006494Y008351D02*
X008975Y008351D01*
X008975Y007898D01*
X008975Y006323D02*
X008975Y005871D01*
X006494Y005871D01*
X006494Y006323D01*
X005845Y006617D02*
X005845Y005948D01*
X005727Y005790D01*
X004762Y005790D01*
X004624Y005948D01*
X004624Y006617D01*
X004605Y007365D02*
X004605Y008231D01*
X005845Y008231D01*
X005845Y007365D01*
X006938Y005161D02*
X007331Y004925D01*
X007331Y005397D01*
X006938Y005161D01*
X010829Y015128D02*
X010862Y015161D01*
X010892Y015196D01*
X010919Y015233D01*
X010944Y015273D01*
X010965Y015314D01*
X010983Y015357D01*
X010998Y015401D01*
X011009Y015446D01*
X011016Y015492D01*
X011020Y015538D01*
X011020Y015584D01*
X011016Y015630D01*
X011009Y015676D01*
X010998Y015721D01*
X010983Y015765D01*
X010965Y015808D01*
X010944Y015849D01*
X010919Y015889D01*
X010892Y015926D01*
X010862Y015961D01*
X010829Y015994D01*
X010041Y015994D02*
X010008Y015961D01*
X009978Y015926D01*
X009951Y015889D01*
X009926Y015849D01*
X009905Y015808D01*
X009887Y015765D01*
X009872Y015721D01*
X009861Y015676D01*
X009854Y015630D01*
X009850Y015584D01*
X009850Y015538D01*
X009854Y015492D01*
X009861Y015446D01*
X009872Y015401D01*
X009887Y015357D01*
X009905Y015314D01*
X009926Y015273D01*
X009951Y015233D01*
X009978Y015196D01*
X010008Y015161D01*
X010041Y015128D01*
X012179Y015128D02*
X012212Y015161D01*
X012242Y015196D01*
X012269Y015233D01*
X012294Y015273D01*
X012315Y015314D01*
X012333Y015357D01*
X012348Y015401D01*
X012359Y015446D01*
X012366Y015492D01*
X012370Y015538D01*
X012370Y015584D01*
X012366Y015630D01*
X012359Y015676D01*
X012348Y015721D01*
X012333Y015765D01*
X012315Y015808D01*
X012294Y015849D01*
X012269Y015889D01*
X012242Y015926D01*
X012212Y015961D01*
X012179Y015994D01*
X011391Y015994D02*
X011358Y015961D01*
X011328Y015926D01*
X011301Y015889D01*
X011276Y015849D01*
X011255Y015808D01*
X011237Y015765D01*
X011222Y015721D01*
X011211Y015676D01*
X011204Y015630D01*
X011200Y015584D01*
X011200Y015538D01*
X011204Y015492D01*
X011211Y015446D01*
X011222Y015401D01*
X011237Y015357D01*
X011255Y015314D01*
X011276Y015273D01*
X011301Y015233D01*
X011328Y015196D01*
X011358Y015161D01*
X011391Y015128D01*
D14*
X005751Y006771D02*
X004728Y006771D01*
D15*
X006865Y005161D03*
D16*
X001551Y002130D02*
X001394Y002130D01*
X001377Y002131D01*
X001360Y002136D01*
X001345Y002143D01*
X001331Y002153D01*
X001319Y002165D01*
X001309Y002179D01*
X001302Y002194D01*
X001297Y002211D01*
X001296Y002228D01*
X001296Y004394D01*
X001297Y004411D01*
X001302Y004428D01*
X001309Y004443D01*
X001319Y004457D01*
X001331Y004469D01*
X001345Y004479D01*
X001360Y004486D01*
X001377Y004491D01*
X001394Y004492D01*
X001551Y004492D01*
X001689Y003901D02*
X002280Y003901D01*
X002280Y002720D01*
X001689Y002720D01*
X001689Y003901D01*
X002418Y004492D02*
X002575Y004492D01*
X002595Y004487D01*
X002614Y004478D01*
X002631Y004467D01*
X002646Y004452D01*
X002658Y004435D01*
X002667Y004416D01*
X002673Y004396D01*
X002675Y004375D01*
X002673Y004354D01*
X002674Y004354D02*
X002674Y002228D01*
X002673Y002228D02*
X002672Y002211D01*
X002667Y002194D01*
X002660Y002179D01*
X002650Y002165D01*
X002638Y002153D01*
X002624Y002143D01*
X002609Y002136D01*
X002592Y002131D01*
X002575Y002130D01*
X002418Y002130D01*
X001135Y008161D02*
X004135Y008161D01*
X005335Y009361D01*
X005335Y011761D01*
X004135Y012961D01*
X001135Y012961D01*
X001087Y012940D01*
X001041Y012916D01*
X000997Y012889D01*
X000955Y012858D01*
X000915Y012824D01*
X000878Y012788D01*
X000844Y012749D01*
X000813Y012707D01*
X000785Y012663D01*
X000760Y012617D01*
X000739Y012570D01*
X000721Y012521D01*
X000708Y012471D01*
X000697Y012419D01*
X000691Y012368D01*
X000689Y012316D01*
X000691Y012264D01*
X000696Y012212D01*
X000705Y012161D01*
X000719Y012110D01*
X000735Y012061D01*
X000804Y011988D01*
X000871Y011911D01*
X000933Y011832D01*
X000992Y011750D01*
X001046Y011665D01*
X001097Y011577D01*
X001143Y011488D01*
X001185Y011396D01*
X001222Y011302D01*
X001255Y011207D01*
X001284Y011110D01*
X001308Y011012D01*
X001327Y010913D01*
X001341Y010813D01*
X001351Y010712D01*
X001355Y010611D01*
X001355Y010511D01*
X001351Y010410D01*
X001341Y010309D01*
X001327Y010209D01*
X001308Y010110D01*
X001284Y010012D01*
X001255Y009915D01*
X001222Y009820D01*
X001185Y009726D01*
X001143Y009634D01*
X001097Y009545D01*
X001046Y009457D01*
X000992Y009372D01*
X000933Y009290D01*
X000871Y009211D01*
X000804Y009134D01*
X000735Y009061D01*
X000719Y009012D01*
X000705Y008961D01*
X000696Y008910D01*
X000691Y008858D01*
X000689Y008806D01*
X000691Y008754D01*
X000697Y008703D01*
X000708Y008651D01*
X000721Y008601D01*
X000739Y008552D01*
X000760Y008505D01*
X000785Y008459D01*
X000813Y008415D01*
X000844Y008373D01*
X000878Y008334D01*
X000915Y008298D01*
X000955Y008264D01*
X000997Y008233D01*
X001041Y008206D01*
X001087Y008182D01*
X001135Y008161D01*
X009796Y004594D02*
X009796Y002468D01*
X009794Y002447D01*
X009796Y002426D01*
X009802Y002406D01*
X009811Y002387D01*
X009823Y002370D01*
X009838Y002355D01*
X009855Y002344D01*
X009874Y002335D01*
X009894Y002330D01*
X010051Y002330D01*
X010189Y002920D02*
X010780Y002920D01*
X010780Y004101D01*
X010189Y004101D01*
X010189Y002920D01*
X010918Y002330D02*
X011075Y002330D01*
X011092Y002331D01*
X011109Y002336D01*
X011124Y002343D01*
X011138Y002353D01*
X011150Y002365D01*
X011160Y002379D01*
X011167Y002394D01*
X011172Y002411D01*
X011173Y002428D01*
X011174Y002428D02*
X011174Y004594D01*
X011173Y004594D02*
X011172Y004611D01*
X011167Y004628D01*
X011160Y004643D01*
X011150Y004657D01*
X011138Y004669D01*
X011124Y004679D01*
X011109Y004686D01*
X011092Y004691D01*
X011075Y004692D01*
X010918Y004692D01*
X010051Y004692D02*
X009894Y004692D01*
X009877Y004691D01*
X009860Y004686D01*
X009845Y004679D01*
X009831Y004669D01*
X009819Y004657D01*
X009809Y004643D01*
X009802Y004628D01*
X009797Y004611D01*
X009796Y004594D01*
D17*
X011774Y014011D03*
M02*
